<?xml version="1.0" encoding="utf-8"?>
<COLLADA xmlns="http://www.collada.org/2005/11/COLLADASchema" version="1.4.1" xmlns:xsi="http://www.w3.org/2001/XMLSchema-instance">
  <asset>
    <contributor>
      <author>Blender User</author>
      <authoring_tool>Blender 4.3.1 commit date:2024-12-10, commit time:07:46, hash:33d812126174</authoring_tool>
    </contributor>
    <created>2026-06-01T21:36:07</created>
    <modified>2026-06-01T21:36:07</modified>
    <unit name="centimeter" meter="0.01"/>
    <up_axis>Z_UP</up_axis>
  </asset>
  <library_effects>
    <effect id="Materiais-effect">
      <profile_COMMON>
        <newparam sid="ming_gun_png-surface">
          <surface type="2D">
            <init_from>ming_gun_png</init_from>
          </surface>
        </newparam>
        <newparam sid="ming_gun_png-sampler">
          <sampler2D>
            <source>ming_gun_png-surface</source>
          </sampler2D>
        </newparam>
        <technique sid="common">
          <lambert>
            <emission>
              <color sid="emission">0 0 0 1</color>
            </emission>
            <diffuse>
              <texture texture="ming_gun_png-sampler" texcoord="Mapa UV"/>
            </diffuse>
            <index_of_refraction>
              <float sid="ior">1.5</float>
            </index_of_refraction>
          </lambert>
        </technique>
      </profile_COMMON>
    </effect>
  </library_effects>
  <library_images>
    <image id="ming_gun_png" name="ming_gun_png">
      <init_from>/home/welton/Downloads/ming_gun.png</init_from>
    </image>
  </library_images>
  <library_materials>
    <material id="Materiais-material" name="Materiais">
      <instance_effect url="#Materiais-effect"/>
    </material>
  </library_materials>
  <library_geometries>
    <geometry id="Cubo-mesh" name="Cubo">
      <mesh>
        <source id="Cubo-mesh-positions">
          <float_array id="Cubo-mesh-positions-array" count="720">-0.03345584 -0.2111619 -0.7284833 -0.03345584 -0.07246154 0.08084332 -0.03345584 0.06787043 -0.7643241 -0.03345584 0.1155737 0.08084332 0.0399298 -0.2111619 -0.7284833 0.0399298 -0.07246154 0.08084332 0.0399298 0.06787043 -0.7643241 0.0399298 0.1155737 0.08084332 -0.03345584 -0.1738041 -0.5530323 -0.03345584 -0.1158995 -0.3417404 -0.03345584 -0.08838051 -0.1304484 -0.03345584 0.1134801 -0.1304484 -0.03345584 0.07159304 -0.3417404 -0.03345584 0.06752866 -0.5530323 0.0399298 0.1134801 -0.1304484 0.0399298 0.07159304 -0.3417404 0.0399298 0.06752866 -0.5530323 0.0399298 -0.08838051 -0.1304484 0.0399298 -0.1158995 -0.3417404 0.0399298 -0.1738041 -0.5530323 -0.03345584 -0.07873427 0.1607237 -0.03345584 0.1150904 0.1607237 0.0399298 0.1150904 0.1607237 0.0399298 -0.07873427 0.1607237 -0.05529552 -0.07164573 -0.7464037 -0.05529552 0.02155601 0.08084332 0.06176948 -0.07164573 -0.7464037 0.06176948 0.02155601 0.08084332 0.06176948 -0.05313771 -0.5530323 0.06176948 -0.02215319 -0.3417404 0.06176948 0.01254975 -0.1304484 -0.05529552 -0.05313766 -0.5530323 -0.05529552 -0.02215319 -0.3417404 -0.05529552 0.01254975 -0.1304484 -0.05529552 0.01817804 0.1607237 0.06176948 0.01817804 0.1607237 0.003236949 0.0699985 -0.7643241 0.003236949 0.1188931 0.08084332 0.003236949 -0.2160025 -0.7284833 0.003236949 -0.07383811 0.08084332 0.003236949 -0.1777117 -0.5530323 0.003236949 -0.1183609 -0.3417404 0.003236949 -0.0901547 -0.1304484 0.003236949 0.06964826 -0.5530323 0.003236949 0.07381415 -0.3417404 0.003236949 0.1167473 -0.1304484 0.003236949 0.1183978 0.1607237 0.003236949 -0.08026754 0.1607237 0.003236949 0.01906514 0.1607237 0.003236949 -0.07300198 -0.7464037 0.06176948 0.01817804 2.304567 0.0399298 -0.07873427 2.304567 0.003236949 -0.08026754 2.304567 -0.03345584 -0.07873427 2.304567 -0.05529552 0.01817804 2.304567 0.003236949 0.01906514 2.304567 0.003236949 -0.1016705 0.6966846 0.003236949 -0.08026754 1.232645 0.003236949 -0.08026754 1.768607 -0.03345584 -0.07873427 1.768607 -0.03345584 -0.07873427 1.232645 -0.03345584 -0.1001372 0.6966846 0.0399298 -0.1001372 0.6966846 0.0399298 -0.07873427 1.232645 0.0399298 -0.07873427 1.768607 0.06176948 0.01817804 0.6966846 0.06176948 0.01817804 1.232645 0.06176948 0.01817804 1.768607 -0.05529552 0.01817804 0.6966846 -0.05529552 0.01817804 1.232645 -0.05529552 0.01817804 1.768607 0.003236949 0.01906514 1.768607 0.003236949 0.01906514 1.232645 0.003236949 0.01906514 0.6966846 -0.03345584 -0.1083524 0.4287042 0.003236949 0.01906514 0.4287042 0.003236949 -0.1098857 0.4287042 0.0399298 -0.1083524 0.4287042 0.06176948 0.01817804 0.4287042 -0.05529552 0.01817804 0.4287042 0.003237009 -0.008267521 1.924174 0.003237009 -0.008267521 2.542157 0.003237009 -0.01419121 2.613347 0.003237009 -0.008267521 0.1414173 -0.02539551 -0.006519138 2.613347 -0.02243369 -0.001389026 0.1414173 -0.04635596 0.01444119 2.613347 -0.04122591 0.01740306 0.1414173 -0.05402809 0.04307383 2.613347 -0.0481044 0.04307383 0.1414173 -0.04635596 0.07170635 2.613347 -0.04122591 0.06874454 0.1414173 -0.02539551 0.09266698 2.613347 -0.02243369 0.08753693 0.1414173 0.003237009 0.1003391 2.613347 0.003237009 0.09441536 0.1414173 0.03186953 0.09266698 2.613347 0.02890771 0.08753693 0.1414173 0.05282998 0.07170635 2.613347 0.04769992 0.06874454 0.1414173 0.06050211 0.04307383 2.613347 0.05457842 0.04307383 0.1414173 0.05282998 0.01444119 2.613347 0.04769992 0.01740306 0.1414173 0.03186953 -0.006519138 2.613347 0.02890771 -0.001389026 0.1414173 0.003237009 -0.008267521 1.306192 -0.02243369 -0.001389026 1.306192 -0.02243369 -0.001389026 1.924174 -0.02243369 -0.001389026 2.542157 -0.04122591 0.01740306 1.306192 -0.04122591 0.01740306 1.924174 -0.04122591 0.01740306 2.542157 -0.0481044 0.04307383 1.306192 -0.0481044 0.04307383 1.924174 -0.0481044 0.04307383 2.542157 -0.04122591 0.06874454 1.306192 -0.04122591 0.06874454 1.924174 -0.04122591 0.06874454 2.542157 -0.02243369 0.08753693 1.306192 -0.02243369 0.08753693 1.924174 -0.02243369 0.08753693 2.542157 0.003237009 0.09441536 1.306192 0.003237009 0.09441536 1.924174 0.003237009 0.09441536 2.542157 0.02890771 0.08753693 1.306192 0.02890771 0.08753693 1.924174 0.02890771 0.08753693 2.542157 0.04769992 0.06874454 1.306192 0.04769992 0.06874454 1.924174 0.04769992 0.06874454 2.542157 0.05457842 0.04307383 1.306192 0.05457842 0.04307383 1.924174 0.05457842 0.04307383 2.542157 0.04769992 0.01740306 1.306192 0.04769992 0.01740306 1.924174 0.04769992 0.01740306 2.542157 0.02890771 -0.001389026 1.306192 0.02890771 -0.001389026 1.924174 0.02890771 -0.001389026 2.542157 0.003237009 -0.01419121 2.613347 -0.02539551 -0.006519138 2.613347 -0.04635596 0.01444119 2.613347 -0.05402809 0.04307383 2.613347 -0.04635596 0.07170635 2.613347 -0.02539551 0.09266704 2.613347 0.003237009 0.1003391 2.613347 0.03186953 0.09266704 2.613347 0.05282998 0.07170635 2.613347 0.06050211 0.04307383 2.613347 0.05282998 0.01444119 2.613347 0.03186953 -0.006519138 2.613347 0.003237009 -0.06757801 2.435838 -0.01015311 -0.06399011 2.435838 -0.01995533 -0.05418789 2.435838 -0.02354323 -0.04079771 2.435838 -0.01995533 -0.02740758 2.435838 -0.01015311 -0.01760524 2.435838 0.003237009 -0.0140174 2.435838 0.01662713 -0.01760524 2.435838 0.02642935 -0.02740758 2.435838 0.03001725 -0.04079771 2.435838 0.02642935 -0.05418789 2.435838 0.01662713 -0.06399011 2.435838 -0.01015311 -0.06399011 2.220957 0.003237009 -0.06757801 2.220957 -0.01995533 -0.05418789 2.220957 -0.02354323 -0.04079771 2.220957 -0.01995533 -0.02740758 2.220957 -0.01015311 -0.01760524 2.220957 0.003237009 -0.0140174 2.220957 0.01662713 -0.01760524 2.220957 0.02642935 -0.02740758 2.220957 0.03001725 -0.04079771 2.220957 0.02642935 -0.05418789 2.220957 0.01662713 -0.06399011 2.220957 -0.05852919 0.06111651 0.09432464 -0.05852919 0.04905623 0.1232214 -0.05852919 0.1660386 0.170382 -0.01924097 0.09744715 0.2411904 -0.03013014 0.06111651 0.09432464 -0.03013014 0.04905623 0.1232214 -0.03013014 0.1660386 0.170382 -0.02000939 0.09182769 0.2307996 -0.05136525 0.1084848 0.1433733 -0.05136525 0.09848141 0.1650183 -0.03729397 0.1084848 0.1433733 -0.03729397 0.09848141 0.1650183 -0.05852919 0.05508643 0.1087731 -0.05852919 0.1311554 0.1789238 -0.03013014 0.05508643 0.1087731 -0.03013014 0.1311554 0.1789238 -0.03729397 0.103483 0.1541957 -0.05136525 0.103483 0.1541957 -0.05703306 0.1129327 0.1988772 -0.05852919 0.1351454 0.209268 -0.03013014 0.1351454 0.209268 -0.03162628 0.1129327 0.1988772 -0.03382676 0.09744715 0.2411904 -0.03305834 0.09182769 0.2307996 0.03963035 -0.09551811 0.06091296 0.03963035 -0.1035369 0.1806541 0.003536462 -0.09727787 0.06091296 0.003536462 -0.105497 0.1806541 0.03963035 -0.0575518 0.04724001 0.03963035 -0.06557065 0.1943269 0.003536462 -0.05931156 0.04724001 0.003536462 -0.06753069 0.1943269 0.007465004 -0.09379303 0.07403057 0.007464706 -0.1002117 0.1675403 0.03569918 -0.09867846 0.1675403 0.03569948 -0.0924164 0.07403057 0.007465898 -0.07055807 0.1782195 0.03570038 -0.0690248 0.1782195 0.03570038 -0.06275206 0.06334745 0.007465958 -0.06412869 0.06334745 -0.0538277 -0.1414038 -0.7374433 0.06030172 -0.02545273 0.08084332 0.06030172 -0.1134709 -0.5530323 0.06030172 -0.06902635 -0.3417404 0.06030172 -0.03791534 -0.1304484 0.06030172 -0.03027808 0.1607237 -0.0538277 -0.02545273 0.08084332 0.06030172 -0.1414038 -0.7374433 -0.0538277 -0.1134709 -0.5530323 -0.0538277 -0.06902635 -0.3417404 -0.0538277 -0.03791534 -0.1304484 -0.0538277 -0.03027808 0.1607237 0.003236949 -0.1445022 -0.7374433 0.06030172 -0.03027808 2.304567 -0.0538277 -0.03027808 2.304567 0.003236949 -0.03060114 2.304567 -0.0538277 -0.04097956 0.6966846 -0.0538277 -0.03027808 1.232645 -0.0538277 -0.03027808 1.768607 0.06030172 -0.04097956 0.6966846 0.06030172 -0.03027808 1.232645 0.06030172 -0.03027808 1.768607 0.06030172 -0.04508715 0.4287042 -0.0538277 -0.04508715 0.4287042</float_array>
          <technique_common>
            <accessor source="#Cubo-mesh-positions-array" count="240" stride="3">
              <param name="X" type="float"/>
              <param name="Y" type="float"/>
              <param name="Z" type="float"/>
            </accessor>
          </technique_common>
        </source>
        <source id="Cubo-mesh-normals">
          <float_array id="Cubo-mesh-normals-array" count="1197">-0.9950127 0.09974765 4.42707e-4 -0.9766458 0.2135823 -0.02335608 -0.9951663 0.09746927 -0.01199656 0 0.9945302 -0.1044507 0.08997601 0.995942 -0.001977622 0.08670943 0.9906948 -0.1049062 0.9793262 -0.2011176 0.02172178 0.9191165 -0.3939843 -0.001110196 0.9257271 -0.3758331 0.04217517 0 -0.9999986 -0.001749575 -0.0474506 -0.9935688 0.1028074 0 -0.9946438 0.1033629 0 -0.1261618 -0.9920097 0.01270645 -0.1263318 -0.9919067 0 -0.1243419 -0.9922395 -0.08997601 0.995942 -0.001977622 0 0.9999815 0.006090939 0 0.999998 -0.001976549 0 -0.9709492 0.2392857 -0.1247451 -0.9695092 0.2109282 0 -0.9770036 0.2132232 0 -0.9798665 0.1996543 -0.1008535 -0.9659116 0.2384184 -0.06460303 -0.978147 0.1976231 0.9874366 -0.1550956 0.03023934 0.9473485 -0.3132674 0.06629049 0.9602662 -0.2729669 0.05812132 0.9830636 -0.1793422 0.03771543 0.9178764 -0.3906735 0.06983625 0.9762578 -0.2136762 0.03554564 0 0.999961 -0.008835375 0.05787497 0.9983225 0.001650691 0 0.9999986 0.001657903 0.05992293 0.9924598 -0.1069239 0.05766707 0.9982972 -0.008789896 0 0.9941381 -0.1081181 -0.9973483 0.07276511 -0.001374185 -0.9835333 0.1800874 -0.01519381 -0.9879636 0.1546865 2.50201e-4 -0.995566 0.09361201 -0.009233236 -0.9971154 0.07541668 -0.008565783 -0.9741871 0.2246166 -0.02251404 0.04174971 -0.9991281 0 3.60794e-7 -1 0 0 -1 0 0.9950127 0.09974765 4.42703e-4 0.9747058 0.2234393 0.004857063 0.9986886 0.05113756 0.002466678 -0.9191165 -0.3939843 -0.001110196 -0.9768593 -0.2134772 -0.01317155 -0.9774132 -0.2113379 -1.62805e-4 0.04098057 -0.9946649 -0.09466958 0 -0.9954688 -0.09508943 -0.9747058 0.2234393 0.004857063 -0.9740648 0.2262687 -4.3443e-4 0.9774131 -0.2113379 -1.62778e-4 0.9768593 -0.2134773 -0.01317155 0 0 1 0 0 1 -0.9793262 -0.2011176 0.02172178 -0.9762577 -0.2136761 0.03554564 -0.9830636 -0.1793421 0.03771543 -0.9874367 -0.1550956 0.03023934 0.9741871 0.2246167 -0.02251404 0.9951663 0.09746927 -0.01199656 0.995566 0.09361201 -0.009233236 0.9835333 0.1800874 -0.01519381 0.9971154 0.07541668 -0.008565783 0.9973483 0.07276511 -0.001374185 0.9879636 0.1546865 2.50201e-4 -0.004895508 -0.1249369 -0.9921527 -1.86301e-7 -0.126314 -0.9919904 0 -0.1243442 -0.9922392 0.9766458 0.2135823 -0.02335608 0.004895269 -0.1249369 -0.9921527 -0.002947568 -0.1272123 -0.9918711 0 0 1 2.62561e-7 0 1 -0.04098057 -0.994665 -0.09466958 -0.03749078 -0.9992958 -0.001579344 -0.04174971 -0.9991281 0 -0.04174977 -0.9991281 0 -0.08670943 0.9906948 -0.1049062 -0.05992293 0.9924598 -0.1069239 -0.05766707 0.9982972 -0.008789896 -0.05787497 0.9983225 0.001650691 0.06460314 -0.978147 0.1976231 0.1008535 -0.9659116 0.2384184 0.1247452 -0.9695092 0.2109282 0.08977192 0.9959442 0.006024956 -0.01270645 -0.1263318 -0.9919067 -0.005930721 -0.1272886 -0.9918481 0.0474506 -0.9935688 0.1028074 3.96313e-7 0 1 -3.66491e-7 0 1 3.18571e-6 0 1 2.65587e-6 0 1 0.9995415 -0.03027701 0 0.9771614 -0.2124989 0 0.9771612 -0.2125 0 -0.0151534 0.9998853 0 0 1 0 0 1 0 0.0151534 0.9998852 0 0.0151534 0.9998853 0 -0.9218443 -0.3875606 0 -0.9771609 -0.2125011 0 -0.9771613 -0.2124994 0 -0.9848902 -0.1730603 -0.006450831 -0.9459772 -0.3241011 0.009254872 -0.9839369 -0.1784569 0.004634916 -0.9227756 -0.385316 0.004107415 -0.9774204 -0.2112954 0.001953005 0 1 0 0.0151534 0.9998852 0 0 1 0 0.0151534 0.9998853 0 -0.0151534 0.9998852 0 0 1 0 -0.0151534 0.9998853 0 -0.0151534 0.9998853 0 0.9997189 -0.02370899 -4.14711e-4 0.9839369 -0.1784569 0.004634916 0.9848902 -0.1730604 -0.006450831 0.9996884 -0.02496093 2.33412e-4 0.9774202 -0.2112959 0.001953005 0.9995415 -0.03027695 0 -0.04171639 -0.9983388 -0.03974443 0 -0.999378 0.03526794 -0.0417242 -0.9985073 0.03524595 -1.69658e-7 -0.9998007 0.01996558 -0.04174154 -0.9989297 0.01992702 0.04171639 -0.9983388 -0.03974443 0 -0.9992144 -0.03963088 0.0417242 -0.9985073 0.03524595 0.04174154 -0.9989298 0.01992678 -0.0151534 0.9998852 0 -2.23552e-7 1 0 -0.9240965 -0.3812296 -0.02664279 -0.8630439 0.4982762 -0.08292251 -0.4995641 0.8652688 -0.04178273 -0.8652704 0.4995613 -0.04178303 0.9991267 1.43499e-6 -0.04178243 0.8660261 0.4999989 0 0.8652691 0.4995635 -0.04178297 -0.4999985 -0.8660263 0 -0.2588193 -0.9659258 0 -0.2588193 -0.9659259 0 -0.8660262 0.4999986 0 0.8630437 0.4982767 -0.08292257 -0.7071052 -0.7071084 0 -0.5000005 -0.8660252 0 -1.12948e-6 0.9991267 -0.04178243 -0.2588192 0.9659259 0 0.8660247 -0.5000015 0 0.9659254 -0.2588208 0 -0.9659258 -0.2588196 0 -0.9659257 -0.2588195 0 -0.9659257 -0.2588195 0 -0.4982883 0.8630368 -0.08292293 0.8652682 -0.4995651 -0.04178327 -0.866026 0.499999 0 -0.9659255 0.2588203 0 0.2588191 0.9659258 0 3.48644e-7 1 0 0 1 0 0.8630423 -0.4982789 -0.08292269 0.9965561 8.95917e-7 -0.08292251 -0.70711 0.7071037 0 -0.8660255 0.4999999 0 0.4995623 0.8652698 -0.04178267 0.4999994 -0.8660258 0 0.8660244 -0.5000019 0 -0.2588192 0.9659259 0 0.4982885 0.8630367 -0.08292293 0 0.9965561 -0.08292317 0.4995613 -0.8652703 -0.04178273 1.43386e-6 1 0 0.7071104 0.7071032 0 0.7071105 0.7071031 0 0.8660262 0.4999986 0 0.2588193 -0.9659259 0 0.4999991 -0.866026 0 0.9659252 0.2588216 0 0.8660269 0.4999977 0 0 -0.9991267 -0.0417822 0.9659254 -0.2588206 0 0.4982866 -0.8630378 -0.08292275 0.866024 -0.5000027 0 0.9659252 0.2588217 0 0.2588192 -0.9659259 0 0.4999981 -0.8660265 0 -0.70711 0.7071036 0 -0.9991267 -3.1921e-6 -0.04178279 -0.9965561 9.87533e-6 -0.08292233 -0.9659255 0.2588204 0 -0.8652678 -0.4995659 -0.04178237 -0.8630432 -0.4982776 -0.08292245 -0.9659258 -0.2588195 0 -0.4982777 -0.8630431 -0.08292281 -0.4995622 -0.8652699 -0.04178321 -0.4999993 -0.8660259 0 -0.7071053 -0.7071083 0 0 -0.9965561 -0.08292287 2.31594e-6 0 1 -4.65924e-6 0 1 -6.46394e-7 0 1 -4.91611e-6 0 1 9.83288e-6 0 1 2.67736e-6 0 1 0.25882 0.9659256 0 -0.8660274 0.4999967 0 -0.9659256 0.2588201 0 -0.9659255 0.2588202 0 0.500002 -0.8660243 0 0.8660237 -0.5000032 0 0.866026 -0.499999 0 -0.4999978 -0.8660268 0 -0.2588201 -0.9659256 0 -0.2588195 -0.9659257 0 0.8660249 0.5000011 0 0.707111 0.7071026 0 0.7071104 0.7071033 0 -0.7071098 0.7071037 0 -0.8660252 0.5000004 0 0.2588195 -0.9659258 0 0.4999979 -0.8660266 0 -0.7071059 -0.7071076 0 -0.5000016 -0.8660246 0 0.9659251 0.2588219 0 0.8660274 0.4999966 0 -0.2588201 0.9659256 0 -0.2588201 0.9659256 0 -0.9659259 -0.258819 0 -0.9659258 -0.2588195 0 0.9659254 -0.2588207 0 0.9659254 -0.258821 0 -0.9893404 -0.1020501 -0.1038817 -0.9996695 -0.001592516 -0.02566128 -0.9990916 -0.03861546 -0.01802557 0.9996694 -0.001592397 -0.02566081 0.9893407 -0.1020483 -0.1038805 0.9990916 -0.0386148 -0.01802533 0 -0.6457225 0.7635722 0 -0.8061668 0.5916883 0 -0.8061671 0.5916879 0 -0.9228519 -0.3851552 0 -0.9228506 -0.3851581 0 -0.9228506 -0.3851581 0 -0.9197307 0.3925501 0 -0.9197306 0.3925501 0 0.424826 -0.9052751 0 0.5813493 -0.8136541 0 0.5813474 -0.8136556 0 0.7193217 -0.6946771 0 0.7193218 -0.6946771 0.9904949 -0.00237888 -0.1375287 0.9910574 -0.03931415 -0.1275135 0.9934858 0.1050719 0.04411232 -0.9934856 0.1050735 0.04411303 -0.9935166 0.1049174 0.04378765 -0.9934294 0.1054548 0.04446613 0.9934297 0.105453 0.04446542 0.9963051 -0.07743066 -0.03715777 0 0.2378413 0.9713041 0 0.2378413 0.9713041 0 0.2378412 0.9713041 0 -0.9228494 -0.3851611 0 -0.9228492 -0.3851614 0 -0.8796083 0.4756986 0 -0.8796084 0.4756987 0 0.9914659 -0.1303669 0 -0.8341733 -0.5515025 0 -0.8341735 -0.5515024 0 -0.8341733 -0.5515027 -0.970736 -0.1953622 0.1396609 -0.960405 -0.1684855 0.2218893 0 0.6462233 0.7631484 0 0.6462231 0.7631486 0 0.6462231 0.7631486 -0.8392363 -0.4583866 0.2925136 0.9610832 0.1666742 -0.2203155 0.9534695 0.2300174 -0.1949049 -0.9842783 -0.04200851 -0.1715563 0.9842788 -0.0420081 -0.1715539 0 -0.6457225 0.7635722 0 -0.9228516 -0.3851555 0 0.4248259 -0.9052751 0.9935167 0.104916 0.04378694 -0.9963051 -0.07743191 -0.03715801 0 0.2378413 0.9713041 0 -0.8796084 0.4756985 0 -0.8341735 -0.5515022 0 0.6462233 0.7631484 -0.8007783 -0.5496335 0.2380277 0.04961454 -0.9965156 -0.06704473 0.05307334 -0.9962676 -0.06807428 0.05409705 -0.9961917 -0.06837892 0.01839655 -0.3387724 0.9406885 0.01839661 -0.3387723 0.9406885 0.01839625 -0.3387725 0.9406885 0.01651799 -0.3387848 -0.9407189 0.01651799 -0.3387848 -0.9407189 0.01651787 -0.3387848 -0.9407189 -0.04961585 0.9965156 0.06704419 -0.05307203 0.9962677 0.0680747 -0.04858952 0.9965868 0.066738 -0.01839637 0.3387733 -0.9406882 -0.01839643 0.3387732 -0.9406882 -0.01839643 0.3387731 -0.9406883 -0.01651799 0.3387849 0.9407189 -0.01651805 0.3387849 0.9407189 -0.01651793 0.3387849 0.9407189 0.7107098 0.7019132 0.04700702 0.7106939 0.7019292 0.0470069 0.7106935 0.7019296 0.0470069 -0.96029 0.09455484 0.2624931 -0.9602808 0.09455114 0.262528 -0.9602774 0.09454977 0.2625408 0.9626909 0.09166342 -0.254606 0.9627023 0.09166777 -0.2545615 0.9627067 0.09166949 -0.254544 -0.05316185 0.9789683 -0.1969645 -0.05316209 0.9789683 -0.1969648 -0.05316162 0.9789684 -0.1969643 -0.744049 0.6665568 0.04575157 -0.7440625 0.6665417 0.04575163 -0.744047 0.6665591 0.04575157 0.9595283 0.0953992 0.2649611 0.9595377 0.09540301 0.264926 0.9595239 0.09539735 0.2649779 -0.9634495 0.09079426 -0.2520346 -0.9634384 0.09078985 -0.2520788 -0.9634556 0.09079664 -0.2520106 -0.046507 0.9538661 0.2966085 -0.04650688 0.9538663 0.296608 -0.04650682 0.9538664 0.2966077 -0.9997189 -0.02370899 -4.14711e-4 -0.9986886 0.0511375 0.002466678 0.9240965 -0.3812297 -0.02664279 0.9518029 -0.3064874 -0.01168984 0.9218444 -0.3875606 0 0.9227756 -0.3853161 0.004107415 0.9459772 -0.3241012 0.009254872 -0.9995415 -0.03027707 0 -0.9995415 -0.03027713 0 -0.9996884 -0.02496093 2.33412e-4 -0.9995415 -0.03027701 0 0.9218443 -0.3875606 0 -4.41678e-7 0 1 -7.9813e-7 0 1 -0.9257272 -0.375833 0.04217517 -0.9473485 -0.3132674 0.06629043 -0.9602662 -0.2729669 0.05812132 -0.9178765 -0.3906735 0.06983625 0.005930721 -0.1272886 -0.9918481 -0.08977192 0.9959442 0.006024956 0.04174971 -0.9991282 0 0.9740648 0.2262688 -4.3443e-4 0.03749078 -0.9992958 -0.001579344 -2.62561e-7 0 1 0.002947151 -0.1272123 -0.9918711 0.9995416 -0.03027713 0 -0.9218443 -0.3875605 0 -0.9518029 -0.3064874 -0.01168978 -0.7071053 -0.7071083 0 -0.9659258 -0.2588195 0 -0.7071099 0.7071037 0 0.2588192 0.9659259 0 0.9659253 0.2588214 0 0.2588192 -0.9659259 0 3.39122e-6 0 1 3.39171e-5 0 1 -2.86701e-6 0 1 -6.50227e-6 0 1 2.06508e-5 0 1 -1.69584e-5 0 1 -1.31093e-5 0 1 2.05421e-5 0 1 -2.1668e-5 0 1 3.8771e-5 0 1 -0.7071104 0.7071033 0 0.25882 -0.9659256 0 -0.7071054 -0.7071083 0 -0.9659259 -0.2588189 0 0.04859006 -0.9965866 -0.06673967 0.01839691 -0.3387722 0.9406886 0.01651811 -0.3387848 -0.940719 -0.05409759 0.9961916 0.06838041 -0.01839637 0.3387733 -0.9406882 -0.01651811 0.3387849 0.940719 0.7107121 0.7019108 0.04700708 -0.9602944 0.09455668 0.2624761 0.9626848 0.09166115 -0.2546295 -0.05316221 0.9789682 -0.1969649 -0.7440629 0.6665414 0.04575163 0.9595411 0.09540444 0.2649132 -0.9634339 0.09078806 -0.2520965 -0.04650712 0.953866 0.2966089</float_array>
          <technique_common>
            <accessor source="#Cubo-mesh-normals-array" count="399" stride="3">
              <param name="X" type="float"/>
              <param name="Y" type="float"/>
              <param name="Z" type="float"/>
            </accessor>
          </technique_common>
        </source>
        <source id="Cubo-mesh-map-0">
          <float_array id="Cubo-mesh-map-0-array" count="2496">0.3579338 0.9822888 0.4351678 0.9284229 0.435168 0.9822888 0.4351678 0.9807637 0.3579337 0.9268978 0.4351678 0.9268978 0.4351678 0.8995684 0.3579337 0.8726354 0.4351678 0.8726354 0.3579335 0.9280642 0.4351677 0.8741981 0.4351677 0.9280642 0.8213368 0.8995684 0.6668687 0.8726354 0.8213366 0.8726354 0.3579337 0.9811601 0.3579337 0.9272941 0.3579337 0.9272941 0.5896348 0.9280642 0.6668685 0.8741981 0.6668687 0.9280642 0.5124014 0.9280642 0.5896348 0.8741981 0.5896348 0.9280642 0.4351677 0.9280642 0.5124014 0.8741981 0.5124014 0.9280642 0.6668687 0.8995684 0.589635 0.8726354 0.6668687 0.8726354 0.589635 0.8995684 0.5124015 0.8726354 0.589635 0.8726354 0.5124016 0.8995684 0.4351678 0.8726354 0.5124015 0.8726354 0.5896353 0.9807637 0.6668695 0.9268978 0.6668695 0.9807637 0.5896353 0.9807637 0.5124016 0.9268978 0.5896353 0.9268978 0.5124016 0.9807637 0.4351678 0.9268978 0.5124016 0.9268978 0.6668695 0.9822888 0.5896353 0.9284229 0.6668695 0.9284229 0.5124018 0.9822888 0.5896353 0.9284229 0.5896355 0.9822888 0.435168 0.9822888 0.5124018 0.9284229 0.5124018 0.9822888 0.3579337 0.9819301 0.3579335 0.9280642 0.3579335 0.9280642 0.3579337 0.9265014 0.3579337 0.9803674 0.3579337 0.9265014 0.3579339 0.9804878 0.3579339 0.9535548 0.3579339 0.9535548 0.3579335 0.9280642 0.3579337 0.9819301 0.3579335 0.9280642 0.5052381 1.049726 0.5052379 0.99586 0.5052379 0.99586 0.3579337 0.8995684 0.3579337 0.9265014 0.3579337 0.8995684 0.04899865 0.9803674 0.2034661 0.9265014 0.2034661 0.9803674 0.435168 0.9535548 0.5124018 0.9266218 0.5124018 0.9535548 0.5124018 0.9535548 0.5896355 0.9266218 0.5896355 0.9535548 0.5896355 0.9535548 0.6668695 0.9266218 0.6668696 0.9535548 0.5124016 0.9803674 0.4351678 0.9265014 0.5124016 0.9265014 0.5896353 0.9803674 0.5124016 0.9265014 0.589635 0.9265014 0.5896353 0.9803674 0.6668687 0.9265014 0.6668695 0.9803674 0.6668695 0.9803674 0.821337 0.9265014 0.821337 0.9803674 0.4351678 0.9803674 0.3579337 0.9265014 0.4351678 0.9265014 0.3579339 0.9535548 0.435168 0.9266218 0.435168 0.9535548 0.9758045 0.9803674 0.821337 0.9265014 0.9758045 0.9265014 0.3579337 0.9803674 0.2034661 0.9265014 0.3579337 0.9265014 0.3579335 0.9280642 0.3579335 0.8741981 0.3579335 0.8741981 0.3579335 0.9280642 0.3579335 0.8741981 0.3579335 0.8741981 0.4351678 0.9811601 0.5124016 0.9272941 0.5124018 0.9811601 0.5124018 0.9811601 0.5896353 0.9272941 0.5896353 0.9811601 0.6668695 0.9811601 0.5896353 0.9272941 0.6668695 0.9272941 0.5124015 0.9819301 0.4351677 0.9280642 0.5124014 0.9280642 0.589635 0.9819301 0.5124014 0.9280642 0.5896348 0.9280642 0.6668687 0.9819301 0.5896348 0.9280642 0.6668687 0.9280642 0.3579337 0.9268978 0.3579337 0.9807637 0.3579337 0.9268978 0.8213368 0.8995684 0.9758041 0.8726354 0.9758043 0.8995684 0.4351678 0.9819301 0.3579335 0.9280642 0.4351677 0.9280642 0.3579337 0.9811601 0.4351678 0.9272941 0.4351678 0.9811601 0.2034661 0.8995684 0.04899865 0.8726354 0.2034661 0.8726354 0.2034661 0.8995684 0.3579337 0.8726354 0.3579337 0.8995684 0.3579337 0.9265014 0.3579337 0.8995684 0.3579337 0.8995684 0.04899865 0.9265014 0.2034661 0.9265014 0.2034661 0.9265014 0.2034661 0.9265014 0.3579337 0.9265014 0.3579337 0.9265014 0.3579339 0.9804878 0.3579339 0.9535548 0.3579339 0.9535548 0.3579339 0.9535548 0.3579339 0.9804878 0.3579339 0.9535548 0.3579339 0.9535548 0.3579339 0.9804878 0.3579339 0.9535548 0.3579339 0.9535548 0.3579339 0.9804878 0.3579339 0.9535548 0.2034661 0.9265014 0.3579337 0.9265014 0.3579337 0.9265014 0.3579337 0.9265014 0.2034661 0.9265014 0.3579337 0.9265014 0.3579337 0.9265014 0.2034661 0.9265014 0.3579337 0.9265014 0.04899865 0.9265014 0.2034661 0.9265014 0.2034661 0.9265014 0.04899865 0.9265014 0.2034661 0.9265014 0.2034661 0.9265014 0.04899865 0.9265014 0.2034661 0.9265014 0.2034661 0.9265014 0.3579337 0.9265014 0.3579337 0.8995684 0.3579337 0.8995684 0.3579337 0.9265014 0.3579337 0.8995684 0.3579337 0.8995684 0.3579337 0.9265014 0.3579337 0.8995684 0.3579337 0.8995684 0.3579335 0.8741981 0.3579335 0.9280642 0.3579335 0.8741981 0.3579335 0.8741981 0.3579335 0.9280642 0.3579335 0.8741981 0.3579335 0.9280642 0.3579335 0.8741981 0.3579335 0.8741981 0.3579337 0.9819301 0.3579335 0.9280642 0.3579335 0.9280642 0.3579337 0.9819301 0.3579335 0.9280642 0.3579335 0.9280642 0.3579337 0.9819301 0.3579335 0.9280642 0.3579335 0.9280642 0.3579335 0.9280642 0.3579337 0.9819301 0.3579335 0.9280642 0.3579335 0.9280642 0.3579335 0.8741981 0.3579335 0.8741981 0.3579337 0.8995684 0.3579337 0.9265014 0.3579337 0.8995684 0.04899865 0.9265014 0.2034661 0.9265014 0.2034661 0.9265014 0.2034661 0.9265014 0.3579337 0.9265014 0.3579337 0.9265014 0.3579339 0.9804878 0.3579339 0.9535548 0.3579339 0.9535548 0.9938478 0.524348 0.9483829 0.5036807 0.9483829 0.5199159 0.9483829 0.4815029 0.553712 0.4655364 0.9483829 0.4655364 0.9012284 0.5036807 0.1573518 0.4815029 0.9012284 0.4815029 0.9483829 0.5036807 0.553712 0.5199159 0.9483829 0.5199159 0.9938478 0.4636941 0.9483829 0.4815029 0.9483829 0.4655364 0.9012284 0.519916 0.1573518 0.5036807 0.9012284 0.5036807 0.9483829 0.4815029 0.553712 0.5036807 0.9483829 0.5036807 0.553712 0.4974696 0.159041 0.4815029 0.553712 0.4815029 0.9012284 0.4815029 0.1573518 0.4974696 0.9012284 0.4974696 0.9938478 0.5062395 0.9483829 0.4815029 0.9483829 0.5036807 0.9483829 0.4974696 0.553712 0.4815029 0.9483829 0.4815029 0.9012284 0.4655364 0.1573518 0.4815029 0.9012284 0.4815029 0.553712 0.459325 0.159041 0.4815029 0.553712 0.4815029 0.9938478 0.4993117 0.9483829 0.4815029 0.9938478 0.4815029 0.9012284 0.5036807 0.1573518 0.519916 0.9012284 0.519916 0.9483829 0.459325 0.553712 0.4815029 0.9483829 0.4815029 0.553712 0.459325 0.159041 0.4430899 0.553712 0.4430899 0.9012284 0.4815029 0.1573518 0.5036807 0.9012284 0.5036807 0.9938478 0.4567663 0.9483829 0.4815029 0.9938478 0.4815029 0.9483829 0.459325 0.553712 0.4430899 0.9483829 0.4430899 0.9012284 0.459325 0.1573518 0.4815029 0.9012284 0.4815029 0.553712 0.4430899 0.159041 0.459325 0.553712 0.459325 0.9938478 0.4386578 0.9483829 0.459325 0.9483829 0.4430899 0.9012284 0.4430899 0.1573518 0.459325 0.9012284 0.459325 0.9483829 0.4430899 0.553712 0.459325 0.9483829 0.459325 0.553712 0.4815029 0.159041 0.459325 0.553712 0.459325 0.9012284 0.4815029 0.1573518 0.4655364 0.9012284 0.4655364 0.9938478 0.4386578 0.9483829 0.459325 0.9938478 0.4567663 0.9483829 0.4815029 0.553712 0.459325 0.9483829 0.459325 0.9012284 0.4974696 0.1573518 0.4815029 0.9012284 0.4815029 0.9938478 0.4567663 0.9483829 0.4815029 0.9483829 0.459325 0.9012284 0.459325 0.1573518 0.4430899 0.9012284 0.4430899 0.553712 0.4815029 0.159041 0.5036807 0.553712 0.5036807 0.553712 0.4815029 0.159041 0.4655364 0.553712 0.4655364 0.9012284 0.4815029 0.1573518 0.459325 0.9012284 0.459325 0.553712 0.5036807 0.159041 0.519916 0.553712 0.5199159 0.9938478 0.4636941 0.9483829 0.4815029 0.9938478 0.4815029 0.9483829 0.4655364 0.553712 0.4815029 0.9483829 0.4815029 0.553712 0.4655364 0.159041 0.4815029 0.553712 0.4815029 0.9938478 0.4815029 0.9483829 0.4974696 0.9938478 0.4993117 0.9483829 0.4815029 0.553712 0.4974696 0.9483829 0.4974696 0.553712 0.4815029 0.159041 0.4974696 0.553712 0.4974696 0.9938478 0.5062395 0.9483829 0.5199159 0.9483829 0.5036807 0.9483829 0.5199159 0.553712 0.5036807 0.9483829 0.5036807 0.553712 0.5199159 0.159041 0.5036807 0.553712 0.5036807 0.9938478 0.5062395 0.9483829 0.4815029 0.9938478 0.4815029 0.9483829 0.4815029 0.553712 0.5036807 0.553712 0.4815029 0.553712 0.4815029 0.159041 0.5036807 0.159041 0.4815029 0.8996391 0.2141601 0.9280071 0.2047069 0.9280071 0.2236134 0.4746043 0.2078766 0.5749764 0.2997738 0.3742325 0.2997738 0.6816945 0.4501363 0.3183057 0.4807687 0.6816945 0.4807687 0.6816945 0.4587154 0.3183057 0.4807687 0.6816945 0.4807687 0.6816945 0.4501363 0.3183057 0.427712 0.6816945 0.427712 0.6816945 0.5114011 0.3183057 0.4807687 0.6816945 0.4807687 0.6816945 0.427712 0.3183057 0.4501363 0.6816945 0.4501363 0.6816945 0.5114011 0.3183057 0.5338255 0.6816945 0.5338255 0.6816945 0.4807687 0.3183057 0.4501363 0.6816945 0.4501363 0.6816945 0.5338255 0.3183057 0.5114011 0.6816945 0.5114011 0.6816945 0.4807687 0.3183057 0.4587154 0.6816945 0.4587154 0.6816945 0.4807687 0.3183057 0.5114011 0.6816945 0.5114011 0.6816945 0.4807687 0.3183057 0.5028222 0.6816945 0.5028221 0.6816945 0.5028221 0.3183057 0.4807687 0.6816945 0.4807687 0.7735002 0.5063511 0.78942 0.4853518 0.7926452 0.4919645 0.7934187 0.4849972 0.7820498 0.5045042 0.7965455 0.4914188 0.8279992 0.4729825 0.7996647 0.4978246 0.7958623 0.4985604 0.8196755 0.4536378 0.8302199 0.4639374 0.8238475 0.4633342 0.7958623 0.4985604 0.7924292 0.5161416 0.7853093 0.5184125 0.7527993 0.5005195 0.7934187 0.4849972 0.78942 0.4853518 0.78942 0.4853518 0.8263199 0.4548411 0.8196755 0.4536378 0.7820498 0.5045042 0.7800281 0.5207952 0.7924292 0.5161416 0.8302199 0.4639374 0.7934187 0.4849972 0.7965455 0.4914188 0.8238475 0.4633342 0.78942 0.4853518 0.8196755 0.4536378 0.8279992 0.4729825 0.7926452 0.4919645 0.8238475 0.4633342 0.8341014 0.4729914 0.7965455 0.4914188 0.7996647 0.4978246 0.7735002 0.5063511 0.7622656 0.4990335 0.7527993 0.5005195 0.8238475 0.4633342 0.8341014 0.4729914 0.8279992 0.4729825 0.8011255 0.5400219 0.8078075 0.5330781 0.8046435 0.5381567 0.7715237 0.523548 0.7820498 0.5045042 0.7735002 0.5063511 0.7924292 0.5161416 0.8047158 0.5346294 0.7853093 0.5184125 0.7853093 0.5184125 0.7715237 0.523548 0.7735002 0.5063511 0.7800281 0.5207952 0.8011255 0.5400219 0.8046435 0.5381567 0.7853093 0.5184125 0.8011255 0.5400219 0.7715237 0.523548 0.7924292 0.5161416 0.8046435 0.5381567 0.8078075 0.5330781 0.7735002 0.5063511 0.7527993 0.5005195 0.78942 0.4853518 0.7934187 0.4849972 0.7622656 0.4990335 0.7820498 0.5045042 0.8279992 0.4729825 0.8341014 0.4729914 0.7996647 0.4978246 0.8196755 0.4536378 0.8263199 0.4548411 0.8302199 0.4639374 0.7958623 0.4985604 0.7996647 0.4978246 0.7924292 0.5161416 0.7527993 0.5005195 0.7622656 0.4990335 0.7934187 0.4849972 0.78942 0.4853518 0.7934187 0.4849972 0.8263199 0.4548411 0.7924292 0.5161416 0.7996647 0.4978246 0.7820498 0.5045042 0.7996647 0.4978246 0.7965455 0.4914188 0.7820498 0.5045042 0.8302199 0.4639374 0.8263199 0.4548411 0.7934187 0.4849972 0.8238475 0.4633342 0.7926452 0.4919645 0.78942 0.4853518 0.8279992 0.4729825 0.7958623 0.4985604 0.7926452 0.4919645 0.8341014 0.4729914 0.8302199 0.4639374 0.7965455 0.4914188 0.7735002 0.5063511 0.7820498 0.5045042 0.7622656 0.4990335 0.8238475 0.4633342 0.8302199 0.4639374 0.8341014 0.4729914 0.8011255 0.5400219 0.8047158 0.5346294 0.8078075 0.5330781 0.7715237 0.523548 0.7800281 0.5207952 0.7820498 0.5045042 0.7924292 0.5161416 0.8078075 0.5330781 0.8047158 0.5346294 0.7926452 0.4919645 0.7958623 0.4985604 0.7735002 0.5063511 0.7958623 0.4985604 0.7853093 0.5184125 0.7735002 0.5063511 0.7800281 0.5207952 0.7715237 0.523548 0.8011255 0.5400219 0.7853093 0.5184125 0.8047158 0.5346294 0.8011255 0.5400219 0.7924292 0.5161416 0.7800281 0.5207952 0.8046435 0.5381567 0.4018617 0.9170277 0.4018619 0.9888451 0.4018617 0.9170277 0.4018619 0.9888451 0.4018617 0.9170277 0.4018617 0.9170277 0.4018619 0.9888451 0.4018617 0.9170277 0.4018619 0.9888451 0.4018617 0.9170277 0.4018619 0.9888451 0.4018619 0.9888451 0.4018617 0.9170277 0.4018619 0.9888451 0.4018617 0.9170277 0.4018619 0.9888451 0.4018617 0.9170277 0.4018617 0.9170277 0.4018619 0.9888451 0.4018619 0.9888451 0.4018619 0.9888451 0.4018617 0.9170277 0.4018617 0.9170277 0.4018617 0.9170277 0.4018619 0.9888451 0.4018619 0.9888451 0.4018619 0.9888451 0.4018617 0.9170277 0.4018619 0.9888451 0.4018617 0.9170277 0.4018617 0.9170277 0.4018617 0.9170277 0.4018617 0.9170277 0.4018619 0.9888451 0.4018619 0.9888451 0.4018619 0.9888451 0.4018617 0.9170277 0.4018617 0.9170277 0.4018617 0.9170277 0.4018617 0.9170277 0.4018619 0.9888451 0.4018619 0.9888451 0.3579339 0.9535548 0.3579338 0.9266218 0.3579338 0.9266218 0.3579337 0.8726354 0.3579337 0.8995684 0.3579337 0.8726354 0.3579337 0.8995684 0.3579337 0.8726354 0.3579337 0.8726354 0.3579337 0.8995684 0.3579337 0.8726354 0.3579337 0.8726354 0.3579337 0.8995684 0.3579337 0.8726354 0.3579337 0.8726354 0.3579339 0.9535548 0.3579338 0.9266218 0.3579338 0.9266218 0.3579338 0.9266218 0.3579339 0.9535548 0.3579338 0.9266218 0.3579338 0.9266218 0.3579339 0.9535548 0.3579338 0.9266218 0.3579339 0.9535548 0.3579338 0.9266218 0.3579338 0.9266218 0.3579337 0.8995684 0.3579337 0.8726354 0.3579337 0.8726354 0.2034661 0.9265014 0.3579337 0.8995684 0.3579337 0.9265014 0.2034661 0.9265014 0.04899865 0.8995684 0.2034661 0.8995684 0.821337 0.9265014 0.9758043 0.8995684 0.9758045 0.9265014 0.3579339 0.9804878 0.435168 0.9535548 0.435168 0.9804878 0.5896355 0.9804878 0.6668696 0.9535548 0.6668696 0.9804878 0.5124018 0.9804878 0.5896355 0.9535548 0.5896355 0.9804878 0.435168 0.9804878 0.5124018 0.9535548 0.5124018 0.9804878 0.3579337 0.8726354 0.3579337 0.8995684 0.3579337 0.8726354 0.3579339 0.9535548 0.3579338 0.9266218 0.3579338 0.9266218 0.5124016 0.9265014 0.4351678 0.8995684 0.5124016 0.8995684 0.589635 0.9265014 0.5124016 0.8995684 0.589635 0.8995684 0.6668687 0.9265014 0.589635 0.8995684 0.6668687 0.8995684 0.821337 0.9265014 0.6668687 0.8995684 0.8213368 0.8995684 0.4351678 0.9265014 0.3579337 0.8995684 0.4351678 0.8995684 0.3579338 0.9822888 0.3579337 0.9284229 0.4351678 0.9284229 0.4351678 0.9807637 0.3579337 0.9807637 0.3579337 0.9268978 0.4351678 0.8995684 0.3579337 0.8995684 0.3579337 0.8726354 0.3579335 0.9280642 0.3579335 0.8741981 0.4351677 0.8741981 0.8213368 0.8995684 0.6668687 0.8995684 0.6668687 0.8726354 0.3579337 0.9811601 0.3579337 0.9811601 0.3579337 0.9272941 0.5896348 0.9280642 0.5896348 0.8741981 0.6668685 0.8741981 0.5124014 0.9280642 0.5124014 0.8741981 0.5896348 0.8741981 0.4351677 0.9280642 0.4351677 0.8741981 0.5124014 0.8741981 0.6668687 0.8995684 0.589635 0.8995684 0.589635 0.8726354 0.589635 0.8995684 0.5124016 0.8995684 0.5124015 0.8726354 0.5124016 0.8995684 0.4351678 0.8995684 0.4351678 0.8726354 0.5896353 0.9807637 0.5896353 0.9268978 0.6668695 0.9268978 0.5896353 0.9807637 0.5124016 0.9807637 0.5124016 0.9268978 0.5124016 0.9807637 0.4351678 0.9807637 0.4351678 0.9268978 0.6668695 0.9822888 0.5896355 0.9822888 0.5896353 0.9284229 0.5124018 0.9822888 0.5124018 0.9284229 0.5896353 0.9284229 0.435168 0.9822888 0.4351678 0.9284229 0.5124018 0.9284229 0.3579337 0.9819301 0.3579337 0.9819301 0.3579335 0.9280642 0.3579337 0.9265014 0.3579337 0.9803674 0.3579337 0.9803674 0.3579339 0.9804878 0.3579339 0.9804878 0.3579339 0.9535548 0.3579335 0.9280642 0.3579337 0.9819301 0.3579337 0.9819301 0.5052381 1.049726 0.5052381 1.049726 0.5052379 0.99586 0.3579337 0.8995684 0.3579337 0.9265014 0.3579337 0.9265014 0.04899865 0.9803674 0.04899865 0.9265014 0.2034661 0.9265014 0.435168 0.9535548 0.435168 0.9266218 0.5124018 0.9266218 0.5124018 0.9535548 0.5124018 0.9266218 0.5896355 0.9266218 0.5896355 0.9535548 0.5896355 0.9266218 0.6668695 0.9266218 0.5124016 0.9803674 0.4351678 0.9803674 0.4351678 0.9265014 0.5896353 0.9803674 0.5124016 0.9803674 0.5124016 0.9265014 0.5896353 0.9803674 0.589635 0.9265014 0.6668687 0.9265014 0.6668695 0.9803674 0.6668687 0.9265014 0.821337 0.9265014 0.4351678 0.9803674 0.3579337 0.9803674 0.3579337 0.9265014 0.3579339 0.9535548 0.3579338 0.9266218 0.435168 0.9266218 0.9758045 0.9803674 0.821337 0.9803674 0.821337 0.9265014 0.3579337 0.9803674 0.2034661 0.9803674 0.2034661 0.9265014 0.3579335 0.9280642 0.3579335 0.9280642 0.3579335 0.8741981 0.3579335 0.9280642 0.3579335 0.9280642 0.3579335 0.8741981 0.4351678 0.9811601 0.4351678 0.9272941 0.5124016 0.9272941 0.5124018 0.9811601 0.5124016 0.9272941 0.5896353 0.9272941 0.6668695 0.9811601 0.5896353 0.9811601 0.5896353 0.9272941 0.5124015 0.9819301 0.4351678 0.9819301 0.4351677 0.9280642 0.589635 0.9819301 0.5124015 0.9819301 0.5124014 0.9280642 0.6668687 0.9819301 0.589635 0.9819301 0.5896348 0.9280642 0.3579337 0.9268978 0.3579337 0.9807637 0.3579337 0.9807637 0.8213368 0.8995684 0.8213366 0.8726354 0.9758041 0.8726354 0.4351678 0.9819301 0.3579337 0.9819301 0.3579335 0.9280642 0.3579337 0.9811601 0.3579337 0.9272941 0.4351678 0.9272941 0.2034661 0.8995684 0.04899865 0.8995684 0.04899865 0.8726354 0.2034661 0.8995684 0.2034661 0.8726354 0.3579337 0.8726354 0.3579337 0.9265014 0.3579337 0.9265014 0.3579337 0.8995684 0.04899865 0.9265014 0.04899865 0.9265014 0.2034661 0.9265014 0.2034661 0.9265014 0.2034661 0.9265014 0.3579337 0.9265014 0.3579339 0.9804878 0.3579339 0.9804878 0.3579339 0.9535548 0.3579339 0.9535548 0.3579339 0.9804878 0.3579339 0.9804878 0.3579339 0.9535548 0.3579339 0.9804878 0.3579339 0.9804878 0.3579339 0.9535548 0.3579339 0.9804878 0.3579339 0.9804878 0.2034661 0.9265014 0.2034661 0.9265014 0.3579337 0.9265014 0.3579337 0.9265014 0.2034661 0.9265014 0.2034661 0.9265014 0.3579337 0.9265014 0.2034661 0.9265014 0.2034661 0.9265014 0.04899865 0.9265014 0.04899865 0.9265014 0.2034661 0.9265014 0.04899865 0.9265014 0.04899865 0.9265014 0.2034661 0.9265014 0.04899865 0.9265014 0.04899865 0.9265014 0.2034661 0.9265014 0.3579337 0.9265014 0.3579337 0.9265014 0.3579337 0.8995684 0.3579337 0.9265014 0.3579337 0.9265014 0.3579337 0.8995684 0.3579337 0.9265014 0.3579337 0.9265014 0.3579337 0.8995684 0.3579335 0.8741981 0.3579335 0.9280642 0.3579335 0.9280642 0.3579335 0.8741981 0.3579335 0.9280642 0.3579335 0.9280642 0.3579335 0.9280642 0.3579335 0.9280642 0.3579335 0.8741981 0.3579337 0.9819301 0.3579337 0.9819301 0.3579335 0.9280642 0.3579337 0.9819301 0.3579337 0.9819301 0.3579335 0.9280642 0.3579337 0.9819301 0.3579337 0.9819301 0.3579335 0.9280642 0.3579335 0.9280642 0.3579337 0.9819301 0.3579337 0.9819301 0.3579335 0.9280642 0.3579335 0.9280642 0.3579335 0.8741981 0.3579337 0.8995684 0.3579337 0.9265014 0.3579337 0.9265014 0.04899865 0.9265014 0.04899865 0.9265014 0.2034661 0.9265014 0.2034661 0.9265014 0.2034661 0.9265014 0.3579337 0.9265014 0.3579339 0.9804878 0.3579339 0.9804878 0.3579339 0.9535548 0.9938478 0.524348 0.9938478 0.5062395 0.9483829 0.5036807 0.9483829 0.4815029 0.553712 0.4815029 0.553712 0.4655364 0.9012284 0.5036807 0.1573518 0.5036807 0.1573518 0.4815029 0.9483829 0.5036807 0.553712 0.5036807 0.553712 0.5199159 0.9938478 0.4636941 0.9938478 0.4815029 0.9483829 0.4815029 0.9012284 0.519916 0.1573518 0.519916 0.1573518 0.5036807 0.9483829 0.4815029 0.553712 0.4815029 0.553712 0.5036807 0.553712 0.4974696 0.159041 0.4974696 0.159041 0.4815029 0.9012284 0.4815029 0.1573518 0.4815029 0.1573518 0.4974696 0.9938478 0.5062395 0.9938478 0.4815029 0.9483829 0.4815029 0.9483829 0.4974696 0.553712 0.4974696 0.553712 0.4815029 0.9012284 0.4655364 0.1573518 0.4655364 0.1573518 0.4815029 0.553712 0.459325 0.159041 0.459325 0.159041 0.4815029 0.9938478 0.4993117 0.9483829 0.4974696 0.9483829 0.4815029 0.9012284 0.5036807 0.1573518 0.5036807 0.1573518 0.519916 0.9483829 0.459325 0.553712 0.459325 0.553712 0.4815029 0.553712 0.459325 0.159041 0.459325 0.159041 0.4430899 0.9012284 0.4815029 0.1573518 0.4815029 0.1573518 0.5036807 0.9938478 0.4567663 0.9483829 0.459325 0.9483829 0.4815029 0.9483829 0.459325 0.553712 0.459325 0.553712 0.4430899 0.9012284 0.459325 0.1573518 0.459325 0.1573518 0.4815029 0.553712 0.4430899 0.159041 0.4430899 0.159041 0.459325 0.9938478 0.4386578 0.9938478 0.4567663 0.9483829 0.459325 0.9012284 0.4430899 0.1573518 0.4430899 0.1573518 0.459325 0.9483829 0.4430899 0.553712 0.4430899 0.553712 0.459325 0.553712 0.4815029 0.159041 0.4815029 0.159041 0.459325 0.9012284 0.4815029 0.1573518 0.4815029 0.1573518 0.4655364 0.9938478 0.4386578 0.9483829 0.4430899 0.9483829 0.459325 0.9483829 0.4815029 0.553712 0.4815029 0.553712 0.459325 0.9012284 0.4974696 0.1573518 0.4974696 0.1573518 0.4815029 0.9938478 0.4567663 0.9938478 0.4815029 0.9483829 0.4815029 0.9012284 0.459325 0.1573518 0.459325 0.1573518 0.4430899 0.553712 0.4815029 0.159041 0.4815029 0.159041 0.5036807 0.553712 0.4815029 0.159041 0.4815029 0.159041 0.4655364 0.9012284 0.4815029 0.1573518 0.4815029 0.1573518 0.459325 0.553712 0.5036807 0.159041 0.5036807 0.159041 0.519916 0.9938478 0.4636941 0.9483829 0.4655364 0.9483829 0.4815029 0.9483829 0.4655364 0.553712 0.4655364 0.553712 0.4815029 0.553712 0.4655364 0.159041 0.4655364 0.159041 0.4815029 0.9938478 0.4815029 0.9483829 0.4815029 0.9483829 0.4974696 0.9483829 0.4815029 0.553712 0.4815029 0.553712 0.4974696 0.553712 0.4815029 0.159041 0.4815029 0.159041 0.4974696 0.9938478 0.5062395 0.9938478 0.524348 0.9483829 0.5199159 0.9483829 0.5199159 0.553712 0.5199159 0.553712 0.5036807 0.553712 0.5199159 0.159041 0.519916 0.159041 0.5036807 0.9938478 0.5062395 0.9483829 0.5036807 0.9483829 0.4815029 0.9483829 0.4815029 0.9483829 0.5036807 0.553712 0.5036807 0.553712 0.4815029 0.553712 0.5036807 0.159041 0.5036807 0.9280071 0.2236134 0.9185512 0.2250758 0.9090951 0.2236134 0.9090951 0.2236134 0.9021729 0.219618 0.8996391 0.2141601 0.8996391 0.2141601 0.9021729 0.2087023 0.9280071 0.2047069 0.9021729 0.2087023 0.9090951 0.2047069 0.9280071 0.2047069 0.9090951 0.2047069 0.9185512 0.2032445 0.9280071 0.2047069 0.9280071 0.2047069 0.9349294 0.2087023 0.9280071 0.2236134 0.9349294 0.2087023 0.9374632 0.2141601 0.9280071 0.2236134 0.9374632 0.2141601 0.9349294 0.219618 0.9280071 0.2236134 0.9280071 0.2236134 0.9090951 0.2236134 0.8996391 0.2141601 0.3742325 0.2997738 0.358705 0.2691414 0.3742325 0.2385089 0.3742325 0.2385089 0.4166544 0.2160846 0.3742325 0.2997738 0.4166544 0.2160846 0.4746043 0.2078766 0.3742325 0.2997738 0.4746043 0.2078766 0.532554 0.2160846 0.5749764 0.2997738 0.532554 0.2160846 0.5749764 0.2385089 0.5749764 0.2997738 0.5749764 0.2385089 0.5905042 0.2691414 0.5749764 0.2997738 0.5749764 0.2997738 0.532554 0.3221982 0.3742325 0.2997738 0.532554 0.3221982 0.4746043 0.3304061 0.3742325 0.2997738 0.4746043 0.3304061 0.4166544 0.3221982 0.3742325 0.2997738 0.6816945 0.4501363 0.3183057 0.4501363 0.3183057 0.4807687 0.6816945 0.4587154 0.3183057 0.4587154 0.3183057 0.4807687 0.6816945 0.4501363 0.3183057 0.4501363 0.3183057 0.427712 0.6816945 0.5114011 0.3183057 0.5114011 0.3183057 0.4807687 0.6816945 0.427712 0.3183057 0.427712 0.3183057 0.4501363 0.6816945 0.5114011 0.3183057 0.5114011 0.3183057 0.5338255 0.6816945 0.4807687 0.3183057 0.4807687 0.3183057 0.4501363 0.6816945 0.5338255 0.3183057 0.5338255 0.3183057 0.5114011 0.6816945 0.4807687 0.3183057 0.4807687 0.3183057 0.4587154 0.6816945 0.4807687 0.3183057 0.4807687 0.3183057 0.5114011 0.6816945 0.4807687 0.3183057 0.4807687 0.3183057 0.5028222 0.6816945 0.5028221 0.3183057 0.5028222 0.3183057 0.4807687 0.4018617 0.9170277 0.4018619 0.9888451 0.4018619 0.9888451 0.4018619 0.9888451 0.4018619 0.9888451 0.4018617 0.9170277 0.4018619 0.9888451 0.4018617 0.9170277 0.4018617 0.9170277 0.4018617 0.9170277 0.4018617 0.9170277 0.4018619 0.9888451 0.4018617 0.9170277 0.4018619 0.9888451 0.4018619 0.9888451 0.4018619 0.9888451 0.4018619 0.9888451 0.4018617 0.9170277 0.4018619 0.9888451 0.4018619 0.9888451 0.4018619 0.9888451 0.4018617 0.9170277 0.4018617 0.9170277 0.4018617 0.9170277 0.4018619 0.9888451 0.4018619 0.9888451 0.4018619 0.9888451 0.4018617 0.9170277 0.4018619 0.9888451 0.4018619 0.9888451 0.4018617 0.9170277 0.4018617 0.9170277 0.4018617 0.9170277 0.4018619 0.9888451 0.4018619 0.9888451 0.4018619 0.9888451 0.4018617 0.9170277 0.4018617 0.9170277 0.4018617 0.9170277 0.4018617 0.9170277 0.4018617 0.9170277 0.4018619 0.9888451 0.3579339 0.9535548 0.3579339 0.9535548 0.3579338 0.9266218 0.3579337 0.8726354 0.3579337 0.8995684 0.3579337 0.8995684 0.3579337 0.8995684 0.3579337 0.8995684 0.3579337 0.8726354 0.3579337 0.8995684 0.3579337 0.8995684 0.3579337 0.8726354 0.3579337 0.8995684 0.3579337 0.8995684 0.3579337 0.8726354 0.3579339 0.9535548 0.3579339 0.9535548 0.3579338 0.9266218 0.3579338 0.9266218 0.3579339 0.9535548 0.3579339 0.9535548 0.3579338 0.9266218 0.3579339 0.9535548 0.3579339 0.9535548 0.3579339 0.9535548 0.3579339 0.9535548 0.3579338 0.9266218 0.3579337 0.8995684 0.3579337 0.8995684 0.3579337 0.8726354 0.2034661 0.9265014 0.2034661 0.8995684 0.3579337 0.8995684 0.2034661 0.9265014 0.04899865 0.9265014 0.04899865 0.8995684 0.821337 0.9265014 0.8213368 0.8995684 0.9758043 0.8995684 0.3579339 0.9804878 0.3579339 0.9535548 0.435168 0.9535548 0.5896355 0.9804878 0.5896355 0.9535548 0.6668696 0.9535548 0.5124018 0.9804878 0.5124018 0.9535548 0.5896355 0.9535548 0.435168 0.9804878 0.435168 0.9535548 0.5124018 0.9535548 0.3579337 0.8726354 0.3579337 0.8995684 0.3579337 0.8995684 0.3579339 0.9535548 0.3579339 0.9535548 0.3579338 0.9266218 0.5124016 0.9265014 0.4351678 0.9265014 0.4351678 0.8995684 0.589635 0.9265014 0.5124016 0.9265014 0.5124016 0.8995684 0.6668687 0.9265014 0.589635 0.9265014 0.589635 0.8995684 0.821337 0.9265014 0.6668687 0.9265014 0.6668687 0.8995684 0.4351678 0.9265014 0.3579337 0.9265014 0.3579337 0.8995684</float_array>
          <technique_common>
            <accessor source="#Cubo-mesh-map-0-array" count="1248" stride="2">
              <param name="S" type="float"/>
              <param name="T" type="float"/>
            </accessor>
          </technique_common>
        </source>
        <vertices id="Cubo-mesh-vertices">
          <input semantic="POSITION" source="#Cubo-mesh-positions"/>
        </vertices>
        <triangles material="Materiais-material" count="416">
          <input semantic="VERTEX" source="#Cubo-mesh-vertices" offset="0"/>
          <input semantic="NORMAL" source="#Cubo-mesh-normals" offset="1"/>
          <input semantic="TEXCOORD" source="#Cubo-mesh-map-0" offset="2" set="0"/>
          <p>25 0 0 11 1 1 33 2 2 45 3 3 7 4 4 14 5 5 220 6 6 5 7 7 17 8 8 39 9 9 10 10 10 42 11 11 228 12 12 4 13 13 38 14 14 3 15 15 46 16 16 37 17 17 40 18 18 0 19 19 38 20 20 41 21 21 8 22 22 40 18 23 42 11 24 9 23 25 41 21 26 223 24 27 19 25 28 4 26 29 218 27 30 18 28 31 19 25 32 219 29 33 17 8 34 18 28 35 43 30 36 6 31 37 36 32 38 43 30 39 15 33 40 16 34 41 44 35 42 14 5 43 15 33 44 24 36 45 13 37 46 2 38 47 32 39 48 13 37 49 31 40 50 33 2 51 12 41 52 32 39 53 64 42 54 52 43 55 58 44 56 27 45 57 22 46 58 35 47 59 1 48 60 227 49 61 222 50 62 39 9 63 23 51 64 47 52 65 25 0 66 21 53 67 3 54 68 217 55 69 35 47 70 221 56 71 21 57 72 48 58 73 46 58 74 226 59 75 32 39 76 225 60 77 225 60 78 31 40 79 224 61 80 224 61 81 24 36 82 216 62 83 15 63 84 30 64 85 29 65 86 16 66 87 29 65 88 28 67 89 16 66 90 26 68 91 6 69 92 6 70 93 49 71 94 36 72 95 14 73 96 27 45 97 30 64 98 222 50 99 33 2 100 226 59 101 2 74 102 49 71 103 24 75 104 22 76 105 48 58 106 35 77 107 39 9 108 20 78 109 1 79 110 58 44 111 53 80 112 59 81 113 11 82 114 44 35 115 12 83 116 12 83 117 43 30 118 13 84 119 2 85 120 43 30 121 36 32 122 18 86 123 42 11 124 41 21 125 19 87 126 41 21 127 40 18 128 4 88 129 40 18 130 38 20 131 7 4 132 46 16 133 22 89 134 228 12 135 0 90 136 216 91 137 17 92 138 39 9 139 42 11 140 3 15 141 45 3 142 11 82 143 231 93 144 53 94 145 52 58 146 231 93 147 51 95 148 229 96 149 67 97 150 229 98 151 237 99 152 70 100 153 55 101 154 71 102 155 71 102 156 50 103 157 67 104 158 59 105 159 230 106 160 234 107 161 239 108 162 61 109 163 232 110 164 232 110 165 60 111 166 233 112 167 233 112 168 59 105 169 234 107 170 75 113 171 65 114 172 78 114 173 65 114 174 72 115 175 66 116 176 66 116 177 71 102 178 67 104 179 79 117 180 73 118 181 75 113 182 68 119 183 72 115 184 73 118 185 69 120 186 71 102 187 72 115 188 78 121 189 235 122 190 238 123 191 65 124 192 236 125 193 235 122 194 66 126 195 237 99 196 236 125 197 74 127 198 56 128 199 61 129 200 61 129 201 57 130 202 60 131 203 57 130 204 59 81 205 60 131 206 77 132 207 56 128 208 76 133 209 62 134 210 57 130 211 56 128 212 63 135 213 58 44 214 57 130 215 47 52 216 77 132 217 76 133 218 47 52 219 74 127 220 20 78 221 221 56 222 78 121 223 238 123 224 34 136 225 75 113 226 48 137 227 48 137 228 78 114 229 35 116 230 20 138 231 239 108 232 227 49 233 90 139 234 121 140 235 118 141 236 133 142 237 129 143 238 130 144 239 107 145 240 83 146 241 106 147 242 121 140 243 117 148 244 118 141 245 98 149 246 133 142 247 130 144 248 110 150 249 85 151 250 107 145 251 124 152 252 120 153 253 121 140 254 135 154 255 131 155 256 132 155 257 113 156 258 87 157 259 110 158 260 92 159 261 124 152 262 121 140 263 136 160 264 132 155 265 133 142 266 116 161 267 89 162 268 113 162 269 126 163 270 122 164 271 123 165 272 102 166 273 133 142 274 100 167 275 119 168 276 91 169 277 116 161 278 127 170 279 123 165 280 124 152 281 138 171 282 134 172 283 135 154 284 122 164 285 93 173 286 119 153 287 96 174 288 124 152 289 94 175 290 139 176 291 135 154 292 136 160 293 125 163 294 95 177 295 122 164 296 129 143 297 125 178 298 126 179 299 102 166 300 139 176 301 136 160 302 128 180 303 97 178 304 125 178 305 130 144 306 126 179 307 127 170 308 80 181 309 137 182 310 138 171 311 131 183 312 99 184 313 128 180 314 98 149 315 127 170 316 96 174 317 81 185 318 138 171 319 139 176 320 134 172 321 101 186 322 131 155 323 104 187 324 81 185 325 139 176 326 137 182 327 103 188 328 134 172 329 123 165 330 119 153 331 120 153 332 132 189 333 128 180 334 129 143 335 106 190 336 105 191 337 137 182 338 120 192 339 116 161 340 117 148 341 90 139 342 115 193 343 88 194 344 118 141 345 114 195 346 115 193 347 117 148 348 113 162 349 114 195 350 88 194 351 112 196 352 86 197 353 115 193 354 111 198 355 112 196 356 114 198 357 110 158 358 111 198 359 84 199 360 112 196 361 109 200 362 112 196 363 108 201 364 109 200 365 111 202 366 107 145 367 108 201 368 84 199 369 81 185 370 82 203 371 81 185 372 108 201 373 80 147 374 80 147 375 107 145 376 106 147 377 149 204 378 145 205 379 141 206 380 161 207 381 157 208 382 153 209 383 159 210 384 170 210 385 158 210 386 156 211 387 167 212 388 155 213 389 163 214 390 174 215 391 162 216 392 153 217 393 165 218 394 152 219 395 160 220 396 171 221 397 159 222 398 157 223 399 168 224 400 156 211 401 152 225 402 175 226 403 163 214 404 154 227 405 164 228 406 153 217 407 161 229 408 172 230 409 160 220 410 158 231 411 169 232 412 157 231 413 155 198 414 166 233 415 154 234 416 162 216 417 173 235 418 161 236 419 189 237 420 184 238 421 193 239 422 186 240 423 191 241 424 192 242 425 177 243 426 187 244 427 185 245 428 176 246 429 190 247 430 188 248 431 185 245 432 197 249 433 194 250 434 178 251 435 186 252 436 184 253 437 184 253 438 180 254 439 176 255 440 191 241 441 196 256 442 197 257 443 190 258 444 186 240 445 192 242 446 188 259 447 184 238 448 176 260 449 177 261 450 193 239 451 188 259 452 181 262 453 192 242 454 187 263 455 189 264 456 182 265 457 178 266 458 188 248 459 181 267 460 177 268 461 198 269 462 183 269 463 179 270 464 195 271 465 191 271 466 189 271 467 197 272 468 199 273 469 194 274 470 194 275 471 195 276 472 189 237 473 196 277 474 198 278 475 179 279 476 194 275 477 198 280 478 195 276 479 197 257 480 179 281 481 183 282 482 189 237 483 178 283 484 184 238 485 186 240 486 182 284 487 191 241 488 177 243 489 181 285 490 187 244 491 176 246 492 180 286 493 190 247 494 185 245 495 187 244 496 197 249 497 178 251 498 182 287 499 186 252 500 184 253 501 186 252 502 180 254 503 197 257 504 187 263 505 191 241 506 187 263 507 192 242 508 191 241 509 190 258 510 180 288 511 186 240 512 188 259 513 193 239 514 184 238 515 177 261 516 185 289 517 193 239 518 181 262 519 190 258 520 192 242 521 189 264 522 191 290 523 182 265 524 188 248 525 190 247 526 181 267 527 198 269 528 199 291 529 183 269 530 195 271 531 196 271 532 191 271 533 197 272 534 183 292 535 199 273 536 193 239 537 185 289 538 189 237 539 185 289 540 194 275 541 189 237 542 196 277 543 195 293 544 198 278 545 194 275 546 199 294 547 198 280 548 197 257 549 196 256 550 179 281 551 202 295 552 201 296 553 203 297 554 201 298 555 207 299 556 203 300 557 200 301 558 206 302 559 204 303 560 208 304 561 210 305 562 211 306 563 212 307 564 210 308 565 209 309 566 211 310 567 215 311 568 208 312 569 200 313 570 210 314 571 201 315 572 202 316 573 215 317 574 206 318 575 201 319 576 213 320 577 205 321 578 207 322 579 213 323 580 212 324 581 202 325 582 209 326 583 208 327 584 200 328 585 214 329 586 211 330 587 203 331 588 212 332 589 209 333 590 206 334 591 214 335 592 204 336 593 227 49 594 79 337 595 34 338 596 23 339 597 238 123 598 77 340 599 236 125 600 64 341 601 63 342 602 235 122 603 63 342 604 62 343 605 238 123 606 62 343 607 77 340 608 233 112 609 70 344 610 69 345 611 68 346 612 233 112 613 69 345 614 79 337 615 232 110 616 68 346 617 234 107 618 54 347 619 70 344 620 237 99 621 51 348 622 64 341 623 55 349 624 229 96 625 50 58 626 55 349 627 230 350 628 231 93 629 49 71 630 216 91 631 24 75 632 1 48 633 226 59 634 10 351 635 8 352 636 216 62 637 0 353 638 9 354 639 224 61 640 8 352 641 10 351 642 225 60 643 9 354 644 5 7 645 221 56 646 23 339 647 222 50 648 34 338 649 25 0 650 29 65 651 220 6 652 219 29 653 28 67 654 219 29 655 218 27 656 26 68 657 218 27 658 223 24 659 49 71 660 223 355 661 228 12 662 30 64 663 217 55 664 220 6 665 25 0 666 3 54 667 11 1 668 45 3 669 37 17 670 7 4 671 220 6 672 217 55 673 5 7 674 39 9 675 1 79 676 10 10 677 228 12 678 223 355 679 4 13 680 3 15 681 21 356 682 46 16 683 40 18 684 8 22 685 0 19 686 41 21 687 9 23 688 8 22 689 42 11 690 10 10 691 9 23 692 223 24 693 218 27 694 19 25 695 218 27 696 219 29 697 18 28 698 219 29 699 220 6 700 17 8 701 43 30 702 16 34 703 6 31 704 43 30 705 44 35 706 15 33 707 44 35 708 45 3 709 14 5 710 24 36 711 31 40 712 13 37 713 32 39 714 12 41 715 13 37 716 33 2 717 11 1 718 12 41 719 64 42 720 51 357 721 52 43 722 27 45 723 7 358 724 22 46 725 1 48 726 20 138 727 227 49 728 39 9 729 5 359 730 23 51 731 25 0 732 34 338 733 21 53 734 217 55 735 27 45 736 35 47 737 21 57 738 34 360 739 48 58 740 226 59 741 33 2 742 32 39 743 225 60 744 32 39 745 31 40 746 224 61 747 31 40 748 24 36 749 15 63 750 14 73 751 30 64 752 16 66 753 15 63 754 29 65 755 16 66 756 28 67 757 26 68 758 6 70 759 26 361 760 49 71 761 14 73 762 7 358 763 27 45 764 222 50 765 25 0 766 33 2 767 2 74 768 36 72 769 49 71 770 22 76 771 46 58 772 48 58 773 39 9 774 47 52 775 20 78 776 58 44 777 52 43 778 53 80 779 11 82 780 45 3 781 44 35 782 12 83 783 44 35 784 43 30 785 2 85 786 13 84 787 43 30 788 18 86 789 17 92 790 42 11 791 19 87 792 18 86 793 41 21 794 4 88 795 19 87 796 40 18 797 7 4 798 37 17 799 46 16 800 228 12 801 38 14 802 0 90 803 17 92 804 5 359 805 39 9 806 3 15 807 37 17 808 45 3 809 231 93 810 230 350 811 53 94 812 231 93 813 52 58 814 51 95 815 67 97 816 50 362 817 229 98 818 70 100 819 54 119 820 55 101 821 71 102 822 55 101 823 50 103 824 59 105 825 53 363 826 230 106 827 239 108 828 74 364 829 61 109 830 232 110 831 61 109 832 60 111 833 233 112 834 60 111 835 59 105 836 75 113 837 73 118 838 65 114 839 65 114 840 73 118 841 72 115 842 66 116 843 72 115 844 71 102 845 79 117 846 68 119 847 73 118 848 68 119 849 69 120 850 72 115 851 69 120 852 70 100 853 71 102 854 78 121 855 65 124 856 235 122 857 65 124 858 66 126 859 236 125 860 66 126 861 67 97 862 237 99 863 74 127 864 76 133 865 56 128 866 61 129 867 56 128 868 57 130 869 57 130 870 58 44 871 59 81 872 77 132 873 62 134 874 56 128 875 62 134 876 63 135 877 57 130 878 63 135 879 64 42 880 58 44 881 47 52 882 23 51 883 77 132 884 47 52 885 76 133 886 74 127 887 221 56 888 35 47 889 78 121 890 34 136 891 79 117 892 75 113 893 48 137 894 75 113 895 78 114 896 20 138 897 74 364 898 239 108 899 90 139 900 92 159 901 121 140 902 133 142 903 132 189 904 129 143 905 107 145 906 85 151 907 83 146 908 121 140 909 120 192 910 117 148 911 98 149 912 100 167 913 133 142 914 110 150 915 87 365 916 85 151 917 124 152 918 123 165 919 120 153 920 135 154 921 134 172 922 131 155 923 113 156 924 89 366 925 87 157 926 92 159 927 94 175 928 124 152 929 136 160 930 135 154 931 132 155 932 116 161 933 91 169 934 89 162 935 126 163 936 125 163 937 122 164 938 102 166 939 136 160 940 133 142 941 119 168 942 93 367 943 91 169 944 127 170 945 126 163 946 123 165 947 138 171 948 137 182 949 134 172 950 122 164 951 95 177 952 93 173 953 96 174 954 127 170 955 124 152 956 139 176 957 138 171 958 135 154 959 125 163 960 97 368 961 95 177 962 129 143 963 128 180 964 125 178 965 102 166 966 104 187 967 139 176 968 128 180 969 99 184 970 97 178 971 130 144 972 129 143 973 126 179 974 80 181 975 106 190 976 137 182 977 131 183 978 101 369 979 99 184 980 98 149 981 130 144 982 127 170 983 81 185 984 80 181 985 138 171 986 134 172 987 103 188 988 101 186 989 104 187 990 82 203 991 81 185 992 137 182 993 105 191 994 103 188 995 123 165 996 122 164 997 119 153 998 132 189 999 131 183 1000 128 180 1001 106 190 1002 83 370 1003 105 191 1004 120 192 1005 119 168 1006 116 161 1007 90 139 1008 118 141 1009 115 193 1010 118 141 1011 117 148 1012 114 195 1013 117 148 1014 116 161 1015 113 162 1016 88 194 1017 115 193 1018 112 196 1019 115 193 1020 114 198 1021 111 198 1022 114 198 1023 113 156 1024 110 158 1025 84 199 1026 86 197 1027 112 196 1028 112 196 1029 111 202 1030 108 201 1031 111 202 1032 110 150 1033 107 145 1034 84 199 1035 109 200 1036 81 185 1037 81 185 1038 109 200 1039 108 201 1040 80 147 1041 108 201 1042 107 145 1043 141 206 1044 140 58 1045 151 371 1046 151 371 1047 150 372 1048 149 204 1049 149 204 1050 148 373 1051 145 205 1052 148 373 1053 147 58 1054 145 205 1055 147 58 1056 146 58 1057 145 205 1058 145 205 1059 144 374 1060 141 206 1061 144 374 1062 143 375 1063 141 206 1064 143 375 1065 142 376 1066 141 206 1067 141 206 1068 151 371 1069 149 204 1070 153 209 1071 152 58 1072 163 58 1073 163 58 1074 162 377 1075 153 209 1076 162 377 1077 161 207 1078 153 209 1079 161 207 1080 160 58 1081 157 208 1082 160 58 1083 159 58 1084 157 208 1085 159 58 1086 158 58 1087 157 208 1088 157 208 1089 156 378 1090 153 209 1091 156 378 1092 155 379 1093 153 209 1094 155 379 1095 154 380 1096 153 209 1097 159 210 1098 171 210 1099 170 210 1100 156 211 1101 168 224 1102 167 212 1103 163 214 1104 175 226 1105 174 215 1106 153 217 1107 164 228 1108 165 218 1109 160 220 1110 172 230 1111 171 221 1112 157 223 1113 169 381 1114 168 224 1115 152 225 1116 165 382 1117 175 226 1118 154 227 1119 166 383 1120 164 228 1121 161 229 1122 173 183 1123 172 230 1124 158 231 1125 170 232 1126 169 232 1127 155 198 1128 167 384 1129 166 233 1130 162 216 1131 174 215 1132 173 235 1133 202 295 1134 200 385 1135 201 296 1136 201 298 1137 205 386 1138 207 299 1139 200 301 1140 202 387 1141 206 302 1142 208 304 1143 209 388 1144 210 305 1145 212 307 1146 213 389 1147 210 308 1148 211 310 1149 214 390 1150 215 311 1151 200 313 1152 211 391 1153 210 314 1154 202 316 1155 208 392 1156 215 317 1157 201 319 1158 210 393 1159 213 320 1160 207 322 1161 205 394 1162 213 323 1163 202 325 1164 203 395 1165 209 326 1166 200 328 1167 204 396 1168 214 329 1169 203 331 1170 207 397 1171 212 332 1172 206 334 1173 215 398 1174 214 335 1175 227 49 1176 239 108 1177 79 337 1178 23 339 1179 221 56 1180 238 123 1181 236 125 1182 237 99 1183 64 341 1184 235 122 1185 236 125 1186 63 342 1187 238 123 1188 235 122 1189 62 343 1190 233 112 1191 234 107 1192 70 344 1193 68 346 1194 232 110 1195 233 112 1196 79 337 1197 239 108 1198 232 110 1199 234 107 1200 230 106 1201 54 347 1202 237 99 1203 229 98 1204 51 348 1205 55 349 1206 231 93 1207 229 96 1208 55 349 1209 54 58 1210 230 350 1211 49 71 1212 228 12 1213 216 91 1214 1 48 1215 222 50 1216 226 59 1217 8 352 1218 224 61 1219 216 62 1220 9 354 1221 225 60 1222 224 61 1223 10 351 1224 226 59 1225 225 60 1226 5 7 1227 217 55 1228 221 56 1229 222 50 1230 227 49 1231 34 338 1232 29 65 1233 30 64 1234 220 6 1235 28 67 1236 29 65 1237 219 29 1238 26 68 1239 28 67 1240 218 27 1241 49 71 1242 26 361 1243 223 355 1244 30 64 1245 27 45 1246 217 55 1247</p>
        </triangles>
      </mesh>
    </geometry>
  </library_geometries>
  <library_visual_scenes>
    <visual_scene id="Scene" name="Scene">
      <node id="arquebus" name="arquebus" type="NODE">
        <matrix sid="transform">1 0 0 0 0 1 0 0 0 0 1 0 0 0 0 1</matrix>
        <instance_geometry url="#Cubo-mesh" name="arquebus">
          <bind_material>
            <technique_common>
              <instance_material symbol="Materiais-material" target="#Materiais-material">
                <bind_vertex_input semantic="Mapa UV" input_semantic="TEXCOORD" input_set="0"/>
              </instance_material>
            </technique_common>
          </bind_material>
        </instance_geometry>
        <node id="prop_projectile" name="prop_projectile" type="NODE">
          <matrix sid="transform">1 0 0 0 0 1 0 0.0460838 0 0 1 2.590581 0 0 0 1</matrix>
        </node>
      </node>
    </visual_scene>
  </library_visual_scenes>
  <scene>
    <instance_visual_scene url="#Scene"/>
  </scene>
</COLLADA>