<?xml version="1.0" encoding="utf-8"?>
<COLLADA xmlns="http://www.collada.org/2005/11/COLLADASchema" version="1.4.1" xmlns:xsi="http://www.w3.org/2001/XMLSchema-instance">
  <asset>
    <contributor>
      <author>Blender User</author>
      <authoring_tool>Blender 4.3.1 commit date:2024-12-10, commit time:07:46, hash:33d812126174</authoring_tool>
    </contributor>
    <created>2026-06-05T19:29:58</created>
    <modified>2026-06-05T19:29:58</modified>
    <unit name="centimeter" meter="0.01"/>
    <up_axis>Z_UP</up_axis>
  </asset>
  <library_effects>
    <effect id="Materiais-effect">
      <profile_COMMON>
        <newparam sid="ming_gun_png-surface">
          <surface type="2D">
            <init_from>ming_gun_png</init_from>
          </surface>
        </newparam>
        <newparam sid="ming_gun_png-sampler">
          <sampler2D>
            <source>ming_gun_png-surface</source>
          </sampler2D>
        </newparam>
        <technique sid="common">
          <lambert>
            <emission>
              <color sid="emission">0 0 0 1</color>
            </emission>
            <diffuse>
              <texture texture="ming_gun_png-sampler" texcoord="Cubo-mesh-map-0"/>
            </diffuse>
            <index_of_refraction>
              <float sid="ior">1.5</float>
            </index_of_refraction>
          </lambert>
        </technique>
      </profile_COMMON>
    </effect>
  </library_effects>
  <library_images>
    <image id="ming_gun_png" name="ming_gun_png">
      <init_from>/home/welton/Downloads/ming_gun.png</init_from>
    </image>
  </library_images>
  <library_materials>
    <material id="Materiais-material" name="Materiais">
      <instance_effect url="#Materiais-effect"/>
    </material>
  </library_materials>
  <library_geometries>
    <geometry id="Cubo-mesh" name="Cubo">
      <mesh>
        <source id="Cubo-mesh-positions">
          <float_array id="Cubo-mesh-positions-array" count="444">0.003237009 -0.06690806 2.176208 0.003237009 -0.03200602 2.385082 0.003237009 -0.08479249 2.526269 0.003237009 -0.03200602 1.573649 -0.06069612 -0.06766164 2.526269 -0.03430289 -0.02194714 1.573649 -0.1074984 -0.02085959 2.526269 -0.06178402 0.005533695 1.573649 -0.1246294 0.04307377 2.526269 -0.0718429 0.04307377 1.573649 -0.1074984 0.1070069 2.526269 -0.06178402 0.08061379 1.573649 -0.06069612 0.1538096 2.526269 -0.03430289 0.1080951 1.573649 0.003237009 0.1709405 2.526269 0.003237009 0.1181539 1.573649 0.06717014 0.1538096 2.526269 0.04077696 0.1080951 1.573649 0.1139724 0.1070069 2.526269 0.06825804 0.08061379 1.573649 0.1311034 0.04307377 2.526269 0.07831692 0.04307377 1.573649 0.1139724 -0.02085959 2.526269 0.06825804 0.005533695 1.573649 0.06717014 -0.06766164 2.526269 0.04077696 -0.02194714 1.573649 0.003237009 -0.04132324 1.967334 -0.03896152 -0.03001612 1.967334 -0.05175393 -0.05217313 2.176208 -0.03430289 -0.02194714 2.385082 -0.069853 8.75104e-4 1.967334 -0.09201008 -0.01191729 2.176208 -0.06178402 0.005533695 2.385082 -0.08116018 0.04307377 1.967334 -0.106745 0.04307377 2.176208 -0.0718429 0.04307377 2.385082 -0.069853 0.08527237 1.967334 -0.09201008 0.09806478 2.176208 -0.06178402 0.08061379 2.385082 -0.03896152 0.1161641 1.967334 -0.05175393 0.1383212 2.176208 -0.03430289 0.1080951 2.385082 0.003237009 0.1274712 1.967334 0.003237009 0.153056 2.176208 0.003237009 0.1181539 2.385082 0.04543554 0.1161641 1.967334 0.05822795 0.1383212 2.176208 0.04077696 0.1080951 2.385082 0.07632702 0.08527237 1.967334 0.09848403 0.09806478 2.176208 0.06825804 0.08061379 2.385082 0.0876342 0.04307377 1.967334 0.113219 0.04307377 2.176208 0.07831692 0.04307377 2.385082 0.07632702 8.75104e-4 1.967334 0.09848403 -0.01191729 2.176208 0.06825804 0.005533695 2.385082 0.04543554 -0.03001612 1.967334 0.05822795 -0.05217313 2.176208 0.04077696 -0.02194714 2.385082 0.003236949 -0.08076512 2.524295 -0.05868244 -0.06417381 2.524295 -0.1040106 -0.01884591 2.524295 -0.120602 0.04307377 2.524295 -0.1040106 0.1049932 2.524295 -0.05868244 0.1503219 2.524295 0.003236949 0.1669132 2.524295 0.06515645 0.1503219 2.524295 0.1104846 0.1049932 2.524295 0.127076 0.04307377 2.524295 0.1104846 -0.01884591 2.524295 0.06515645 -0.06417381 2.524295 -0.05852913 0.06111645 1.672583 -0.05852913 0.04905623 1.70148 -0.05852913 0.1660386 1.748641 -0.01924097 0.09744715 1.819449 -0.03013008 0.06111645 1.672583 -0.03013008 0.04905623 1.70148 -0.03013008 0.1660386 1.748641 -0.02000933 0.09182769 1.809058 -0.05136519 0.1084848 1.721632 -0.05136519 0.09848141 1.743277 -0.03729397 0.1084848 1.721632 -0.03729397 0.09848141 1.743277 -0.05852913 0.05508643 1.687032 -0.05852913 0.1311554 1.757182 -0.03013008 0.05508643 1.687032 -0.03013008 0.1311554 1.757182 -0.03729397 0.103483 1.732454 -0.05136519 0.103483 1.732454 -0.05703306 0.1129327 1.777136 -0.05852913 0.1351454 1.787527 -0.03013008 0.1351454 1.787527 -0.03162628 0.1129327 1.777136 -0.0338267 0.09744715 1.819449 -0.03305834 0.09182769 1.809058 0.0477032 -0.04401171 -0.1571262 0.0477032 -0.05503314 -0.03738504 -0.004536032 -0.0464304 -0.1571262 -0.004536032 -0.05772721 -0.03738504 0.0477032 0.008170962 -0.1707991 0.0477032 -0.002850472 -0.02371227 -0.004536032 0.005752265 -0.1707991 -0.004536032 -0.005544483 -0.02371227 0.001149773 -0.04164069 -0.1440086 0.001149296 -0.05046284 -0.0504989 0.04201352 -0.04835546 -0.0504989 0.042014 -0.0397486 -0.1440086 0.001151025 -0.009705424 -0.03981965 0.04201531 -0.007598042 -0.03981965 0.04201531 0.001023471 -0.1546917 0.001151144 -8.68615e-4 -0.1546917 0.003237009 -0.01625764 1.597726 0.003237009 -0.01625764 -0.4538541 -0.02642875 -0.008308649 -0.4538541 -0.04814553 0.01340794 -0.4538541 -0.05609452 0.04307377 -0.4538541 -0.04814553 0.0727396 -0.4538541 -0.02642875 0.09445655 -0.4538541 0.003237009 0.1024055 -0.4538541 0.03290277 0.09445655 -0.4538541 0.05461955 0.0727396 -0.4538541 0.06256854 0.04307377 -0.4538541 0.05461955 0.01340794 -0.4538541 0.03290277 -0.008308649 -0.4538541 0.003237009 -0.01625764 0.8865582 -0.02642875 -0.008308649 0.8865582 -0.02642875 -0.008308649 1.597726 -0.04814553 0.01340794 0.8865582 -0.04814553 0.01340794 1.597726 -0.05609452 0.04307377 0.8865582 -0.05609452 0.04307377 1.597726 -0.04814553 0.0727396 0.8865582 -0.04814553 0.0727396 1.597726 -0.02642875 0.09445655 0.8865582 -0.02642875 0.09445655 1.597726 0.003237009 0.1024055 0.8865582 0.003237009 0.1024055 1.597726 0.03290277 0.09445655 0.8865582 0.03290277 0.09445655 1.597726 0.05461955 0.0727396 0.8865582 0.05461955 0.0727396 1.597726 0.06256854 0.04307377 0.8865582 0.06256854 0.04307377 1.597726 0.05461955 0.01340794 0.8865582 0.05461955 0.01340794 1.597726 0.03290277 -0.008308649 0.8865582 0.03290277 -0.008308649 1.597726</float_array>
          <technique_common>
            <accessor source="#Cubo-mesh-positions-array" count="148" stride="3">
              <param name="X" type="float"/>
              <param name="Y" type="float"/>
              <param name="Z" type="float"/>
            </accessor>
          </technique_common>
        </source>
        <source id="Cubo-mesh-normals">
          <float_array id="Cubo-mesh-normals-array" count="837">-0.8111845 0.4683367 -0.3502007 -0.4974789 0.8616577 -0.1003029 -0.8616586 0.4974775 -0.1003036 0.994957 -4.32912e-7 -0.1003025 0.8658288 0.4998852 0.02134275 0.8616592 0.4974764 -0.1003036 -0.4986538 -0.8636963 -0.07330036 -0.2587532 -0.9656732 -0.02285432 -0.2581713 -0.9635003 -0.07081592 -0.8658289 0.499885 0.02134269 0.8111847 0.4683364 -0.3502007 -0.8636938 -0.4986582 -0.07330071 -0.4998608 -0.8657826 -0.02366006 9.55812e-7 0.994957 -0.1003021 -0.2587639 0.9657208 0.02061212 0.865827 -0.4998883 0.02134269 0.9635005 -0.2581707 -0.07081556 0.9657202 -0.2587655 0.020612 -0.9973099 -1.38688e-6 -0.07330065 -0.8657829 -0.4998603 -0.02366012 -0.4683489 0.8111772 -0.3502015 0.8616563 -0.4974812 -0.1003043 -0.8636974 0.4986523 -0.07330048 -0.9997202 2.31849e-6 -0.02366012 0.2587633 0.9657208 0.0206198 -1.39785e-6 0.9973099 -0.07330077 -1.92966e-7 0.9997723 0.02134287 0.8111833 -0.4683384 -0.3502012 0.9366747 5.81285e-7 -0.3502007 -0.7053346 0.7053285 -0.07081586 -0.8657828 0.4998604 -0.02366006 0.4974809 0.8616566 -0.100303 0.4998853 -0.8658286 0.02134275 0.8636955 -0.4986553 -0.0733006 -0.2587513 0.9656736 -0.02285432 -0.2581689 0.963501 -0.07081574 0.4683487 0.8111772 -0.3502016 0 0.9366742 -0.3502021 0.4974762 -0.8616593 -0.1003031 0.2581692 0.9635008 -0.07081598 1.88806e-6 0.9997202 -0.02366012 0.705335 0.7053282 -0.07081562 0.7069596 0.7069535 0.020612 0.8636956 0.4986551 -0.07330054 0.7069255 0.7069188 -0.02285432 0.2587656 -0.9657201 0.02061963 0.4986562 -0.8636952 -0.07330054 0.9635003 0.2581713 -0.07081574 0.8657847 0.4998573 -0.02366006 0 -0.994957 -0.1003031 0.9656732 -0.258753 -0.02285432 0.4683467 -0.8111786 -0.3502011 0.8657808 -0.4998639 -0.02366012 0.96572 0.2587661 0.02061963 0.2581712 -0.9635003 -0.07081574 0.499858 -0.8657842 -0.02366006 -0.7069596 0.7069534 0.02061963 -0.9937524 0.009900391 -0.1111685 -0.9366745 1.1429e-5 -0.3502012 -0.9535846 0.2555133 0.1593402 -0.9957494 -0.08815228 -0.0266928 -0.8616576 -0.4974796 -0.100302 -0.8111828 -0.4683392 -0.3502014 -0.9535847 -0.2555131 0.1593406 -0.8618369 -0.5069023 0.01695442 -0.4683368 -0.8111842 -0.350201 -0.4974776 -0.8616586 -0.1003032 -0.4998853 -0.8658288 0.02133882 0 -0.9366745 -0.350201 -0.2587657 -0.9657201 0.02061969 9.90425e-7 0 1 1.68607e-6 0 1 -8.37361e-7 0 1 -0.9893404 -0.1020503 -0.1038823 -0.9996694 -0.001591622 -0.02566111 -0.9990916 -0.03861421 -0.01802515 0.9996694 -0.001591682 -0.02566069 0.9893407 -0.1020492 -0.1038804 0.9990916 -0.03861427 -0.01802515 0 -0.6457228 0.7635721 0 -0.8061665 0.5916887 0 -0.806167 0.5916882 0 -0.922852 -0.3851549 0 -0.9228507 -0.385158 0 -0.9228507 -0.3851581 0 -0.9197304 0.3925507 0 -0.9197305 0.3925507 0 0.4248261 -0.905275 0 0.581349 -0.8136544 0 0.5813471 -0.8136557 0 0.7193211 -0.6946778 0 0.7193211 -0.6946778 0.9904947 -0.002379119 -0.1375305 0.9910572 -0.03933018 -0.12751 0.9934858 0.1050716 0.0441122 -0.9934856 0.105073 0.04411292 -0.9935166 0.1049172 0.04378741 -0.9934238 0.1056619 0.04409927 0.9934297 0.1054529 0.0444653 0.996305 -0.07743269 -0.03715837 0 0.2378423 0.9713038 0 0.2378423 0.9713038 0 0.2378422 0.9713038 0 -0.9228494 -0.3851612 0 -0.9228492 -0.3851615 0 -0.8796064 0.4757021 0 -0.8796065 0.4757022 0 -0.8796065 0.4757022 0 0.9914656 -0.1303686 0 0.9914656 -0.1303686 0 0.9914656 -0.1303689 0 -0.8341754 -0.5514994 0 -0.8341755 -0.5514993 0 -0.8341754 -0.5514994 -0.9707359 -0.1953631 0.1396604 -0.960404 -0.1684879 0.2218916 0 0.6462234 0.7631484 0 0.6462233 0.7631486 0 0.6462232 0.7631485 -0.8392354 -0.4583874 0.292515 0.9910596 -0.03919082 -0.1275341 0.9610819 0.1667068 -0.2202963 0.9534694 0.2300162 -0.1949067 -0.984278 -0.04200923 -0.1715575 0.9842786 -0.04200857 -0.1715549 0 -0.6457227 0.763572 0 -0.922852 -0.3851547 0 0.424826 -0.905275 0.9935167 0.1049156 0.0437867 -0.9934296 0.105452 0.04447156 -0.996305 -0.07743239 -0.03715854 0 0.2378425 0.9713037 0 -0.8796065 0.4757021 0 0.9914657 -0.1303683 0 -0.8341754 -0.5514993 0 0.6462234 0.7631484 -0.800778 -0.5496335 0.2380289 0.9610924 0.1665745 -0.2203503 0.04630261 -0.9944351 -0.09463042 0.05107021 -0.994573 -0.09064435 0.0512759 -0.9942695 -0.09380263 0.01307004 -0.2534401 0.9672628 0.01307004 -0.25344 0.9672628 0.01307028 -0.2534399 0.9672629 0.01173478 -0.2534467 -0.9672782 0.01173472 -0.2534467 -0.9672782 0.01173466 -0.2534468 -0.9672783 -0.04907858 0.9947288 0.09003365 -0.04819488 0.9942713 0.09540295 -0.04605835 0.9947341 0.09155774 -0.01306998 0.2534413 -0.9672625 -0.01306998 0.2534413 -0.9672625 -0.0130698 0.2534415 -0.9672625 -0.01173514 0.2534469 0.9672781 -0.0117352 0.2534469 0.9672782 -0.01173502 0.2534469 0.9672781 0.6915963 0.7192437 0.06620389 0.691577 0.7192624 0.06620365 0.6915764 0.719263 0.06620365 -0.925584 0.09596961 0.3661751 -0.9255634 0.09596413 0.3662285 -0.9255584 0.09596276 0.3662416 0.9298511 0.09322983 -0.3559287 0.9298758 0.0932362 -0.3558625 0.9298823 0.09323787 -0.3558451 -0.04964363 0.9626379 -0.2662026 -0.04964321 0.9626383 -0.2662014 -0.04964387 0.9626377 -0.2662033 -0.7258915 0.6847688 0.06460118 -0.7259097 0.6847496 0.06460142 -0.7258886 0.6847718 0.06460118 0.9242278 0.09676164 0.3693783 0.9242477 0.09676688 0.369327 0.9242208 0.09675979 0.3693962 -0.9312142 0.09240788 -0.3525635 -0.9311897 0.09240162 -0.3526298 -0.9312242 0.09241044 -0.3525362 -0.0425378 0.9187047 0.3926477 -0.04253679 0.9187058 0.3926454 -0.04253643 0.9187061 0.3926447 -0.2587531 -0.9656732 -0.02285432 -0.7069251 0.7069191 -0.02285432 -0.2587511 0.9656737 -0.02285438 0.258751 0.9656737 -0.02285432 0.7069256 0.7069186 -0.02285432 0.965673 0.2587537 -0.02285432 0.9656731 -0.2587535 -0.02285432 0.2587533 -0.9656732 -0.02285432 -0.9938623 9.44868e-4 0.1106207 0 0 1 1.45028e-6 0 1 1.45048e-5 0 1 -1.2261e-6 0 1 4.90437e-6 0 1 -1.45028e-6 0 1 -1.45048e-5 0 1 0.04605662 -0.9947341 -0.09155905 0.0130698 -0.2534403 0.9672628 0.01173484 -0.2534467 -0.9672783 -0.05127424 0.9942695 0.09380364 -0.01307016 0.2534413 -0.9672626 -0.01173532 0.2534469 0.9672781 0.6915994 0.7192409 0.06620389 -0.9255914 0.09597158 0.3661558 0.9298413 0.09322726 -0.3559551 -0.04964303 0.9626384 -0.266201 -0.7259103 0.6847488 0.06460142 0.9242526 0.09676814 0.3693147 -0.9311831 0.09239989 -0.3526477 -0.04253834 0.9187042 0.3926489 -0.4999987 -0.8660263 0 -0.2588207 -0.9659254 0 -0.2588208 -0.9659254 0 -0.7071043 -0.7071092 0 -0.5000007 -0.866025 0 0.9659256 -0.25882 0 0.9659255 -0.2588205 0 0.9659256 -0.25882 0 -0.9659255 -0.2588204 0 -0.9659255 -0.2588204 0 -0.9659255 -0.2588203 0 -0.866026 0.4999992 0 -0.9659253 0.2588208 0 -0.9659254 0.2588207 0 0.2588187 0.965926 0 3.34603e-7 1 0 -2.19007e-6 1 0 -0.70711 0.7071036 0 -0.8660254 0.5000002 0 0.5000014 -0.8660247 0 0.7071046 -0.7071089 0 0.7071047 -0.7071089 0 -0.2588187 0.9659259 0 -0.2588186 0.9659259 0 0.2588186 0.965926 0 1.47314e-6 1 0 0.8660251 0.5000008 0 0.7071102 0.7071034 0 0.7071104 0.7071033 0 0.8660263 0.4999985 0 0.2588207 -0.9659255 0 0.4999992 -0.8660259 0 0.9659253 0.2588209 0 0.8660269 0.4999974 0 0.9659255 -0.2588204 0 0.7071046 -0.707109 0 0.9659253 0.2588212 0 0.2588207 -0.9659255 0 0.4999981 -0.8660265 0 -0.7071099 0.7071036 0 -0.8660272 0.499997 0 -0.9659254 0.2588209 0 -0.9659256 -0.25882 0 -0.9659256 -0.25882 0 -0.7071045 -0.7071091 0 -0.4999994 -0.8660258 0 -0.2588207 -0.9659254 0 -0.2588187 0.965926 0 0.2588187 0.9659259 0 0.7071102 0.7071033 0 0.9659254 0.2588209 0 0.9659255 -0.2588207 0 0.2588207 -0.9659254 0 3.9488e-7 0 -1 0 0 -1 -6.84002e-7 0 -1 1.15881e-6 0 -1 -8.13994e-7 0 -1 -2.06481e-6 0 -1 3.9489e-7 0 -1 3.94944e-6 0 -1 -5.78236e-7 0 -1 -2.997e-6 0 -1 -3.94945e-6 0 -1 1.97283e-6 0 -1 1.9731e-5 0 -1 1.4444e-6 0 -1 4.5271e-6 0 -1 -1.97311e-5 0 -1</float_array>
          <technique_common>
            <accessor source="#Cubo-mesh-normals-array" count="279" stride="3">
              <param name="X" type="float"/>
              <param name="Y" type="float"/>
              <param name="Z" type="float"/>
            </accessor>
          </technique_common>
        </source>
        <source id="Cubo-mesh-map-0">
          <float_array id="Cubo-mesh-map-0-array" count="1476">0.8385849 0.5556579 0.7598958 0.5198875 0.7598958 0.5479869 0.9483829 0.4815029 0.553712 0.4655364 0.9483829 0.4655364 0.9012284 0.5036807 0.1573518 0.4815029 0.9012284 0.4815029 0.9483829 0.5036807 0.553712 0.5199159 0.9483829 0.5199159 0.8385849 0.45068 0.7598958 0.481503 0.7598958 0.4538686 0.9012284 0.519916 0.1573518 0.5036807 0.9012284 0.5036807 0.9483829 0.4815029 0.553712 0.5036807 0.9483829 0.5036807 0.553712 0.4974696 0.159041 0.4815029 0.553712 0.4815029 0.9012284 0.4815029 0.1573518 0.4974696 0.9012284 0.4974696 0.8385849 0.5243163 0.7598958 0.481503 0.7598958 0.5198875 0.9483829 0.4974696 0.553712 0.4815029 0.9483829 0.4815029 0.9012284 0.4655364 0.1573518 0.4815029 0.9012284 0.4815029 0.553712 0.459325 0.159041 0.4815029 0.553712 0.4815029 0.8385849 0.5123258 0.7598958 0.481503 0.8385849 0.481503 0.9012284 0.5036807 0.1573518 0.519916 0.9012284 0.519916 0.9483829 0.459325 0.553712 0.4815029 0.9483829 0.4815029 0.553712 0.459325 0.159041 0.4430899 0.553712 0.4430899 0.9012284 0.4815029 0.1573518 0.5036807 0.9012284 0.5036807 0.8385849 0.4386896 0.7598958 0.481503 0.8385849 0.481503 0.9483829 0.459325 0.553712 0.4430899 0.9483829 0.4430899 0.9012284 0.459325 0.1573518 0.4815029 0.9012284 0.4815029 0.553712 0.4430899 0.159041 0.459325 0.553712 0.459325 0.8385849 0.407348 0.7598958 0.4431181 0.7598958 0.4150189 0.9012284 0.4430899 0.1573518 0.459325 0.9012284 0.459325 0.9483829 0.4430899 0.553712 0.459325 0.9483829 0.459325 0.553712 0.4815029 0.159041 0.459325 0.553712 0.459325 0.9012284 0.4815029 0.1573518 0.4655364 0.9012284 0.4655364 0.8385849 0.407348 0.7598958 0.4431181 0.8385849 0.4386896 0.9483829 0.4815029 0.553712 0.459325 0.9483829 0.459325 0.9012284 0.4974696 0.1573518 0.4815029 0.9012284 0.4815029 0.8385849 0.4386896 0.7598958 0.481503 0.7598958 0.4431181 0.9012284 0.459325 0.1573518 0.4430899 0.9012284 0.4430899 0.553712 0.4815029 0.159041 0.5036807 0.553712 0.5036807 0.553712 0.4815029 0.159041 0.4655364 0.553712 0.4655364 0.9012284 0.4815029 0.1573518 0.459325 0.9012284 0.459325 0.553712 0.5036807 0.159041 0.519916 0.553712 0.5199159 0.8385849 0.45068 0.7598958 0.481503 0.8385849 0.481503 0.9483829 0.4655364 0.553712 0.4815029 0.9483829 0.4815029 0.553712 0.4655364 0.159041 0.4815029 0.553712 0.4815029 0.8385849 0.481503 0.7598958 0.5091376 0.8385849 0.5123258 0.9483829 0.4815029 0.553712 0.4974696 0.9483829 0.4974696 0.553712 0.4815029 0.159041 0.4974696 0.553712 0.4974696 0.8385849 0.5243163 0.7598958 0.5479869 0.7598958 0.5198875 0.9483829 0.5199159 0.553712 0.5036807 0.9483829 0.5036807 0.553712 0.5199159 0.159041 0.5036807 0.553712 0.5036807 0.8385849 0.5243163 0.7598958 0.481503 0.8385849 0.481503 0.9483829 0.4815029 0.553712 0.5036807 0.553712 0.4815029 0.553712 0.4815029 0.159041 0.5036807 0.159041 0.4815029 0.8996391 0.2141601 0.9280071 0.2047069 0.9280071 0.2236134 0.7735002 0.5063511 0.78942 0.4853518 0.7926452 0.4919645 0.7934187 0.4849972 0.7820498 0.5045042 0.7965455 0.4914188 0.8279992 0.4729825 0.7996647 0.4978246 0.7958623 0.4985604 0.8196755 0.4536378 0.8302199 0.4639374 0.8238475 0.4633342 0.7958623 0.4985604 0.7924292 0.5161416 0.7853093 0.5184125 0.7527993 0.5005195 0.7934187 0.4849972 0.78942 0.4853518 0.78942 0.4853518 0.8263199 0.4548411 0.8196755 0.4536378 0.7820498 0.5045042 0.7800281 0.5207952 0.7924292 0.5161416 0.8302199 0.4639374 0.7934187 0.4849972 0.7965455 0.4914188 0.8238475 0.4633342 0.78942 0.4853518 0.8196755 0.4536378 0.8279992 0.4729825 0.7926452 0.4919645 0.8238475 0.4633342 0.8341014 0.4729914 0.7965455 0.4914188 0.7996647 0.4978246 0.7735002 0.5063511 0.7622656 0.4990335 0.7527993 0.5005195 0.8238475 0.4633342 0.8341014 0.4729914 0.8279992 0.4729825 0.8011255 0.5400219 0.8078075 0.5330781 0.8046435 0.5381567 0.7715237 0.523548 0.7820498 0.5045042 0.7735002 0.5063511 0.7924292 0.5161416 0.8047158 0.5346294 0.7853093 0.5184125 0.7853093 0.5184125 0.7715237 0.523548 0.7735002 0.5063511 0.7800281 0.5207952 0.8011255 0.5400219 0.8046435 0.5381567 0.7853093 0.5184125 0.8011255 0.5400219 0.7715237 0.523548 0.7924292 0.5161416 0.8046435 0.5381567 0.8078075 0.5330781 0.7735002 0.5063511 0.7527993 0.5005195 0.78942 0.4853518 0.7934187 0.4849972 0.7622656 0.4990335 0.7820498 0.5045042 0.8279992 0.4729825 0.8341014 0.4729914 0.7996647 0.4978246 0.8196755 0.4536378 0.8263199 0.4548411 0.8302199 0.4639374 0.7958623 0.4985604 0.7996647 0.4978246 0.7924292 0.5161416 0.7527993 0.5005195 0.7622656 0.4990335 0.7934187 0.4849972 0.78942 0.4853518 0.7934187 0.4849972 0.8263199 0.4548411 0.7924292 0.5161416 0.7996647 0.4978246 0.7820498 0.5045042 0.7996647 0.4978246 0.7965455 0.4914188 0.7820498 0.5045042 0.8302199 0.4639374 0.8263199 0.4548411 0.7934187 0.4849972 0.8238475 0.4633342 0.7926452 0.4919645 0.78942 0.4853518 0.8279992 0.4729825 0.7958623 0.4985604 0.7926452 0.4919645 0.8341014 0.4729914 0.8302199 0.4639374 0.7965455 0.4914188 0.7735002 0.5063511 0.7820498 0.5045042 0.7622656 0.4990335 0.8238475 0.4633342 0.8302199 0.4639374 0.8341014 0.4729914 0.8011255 0.5400219 0.8047158 0.5346294 0.8078075 0.5330781 0.7715237 0.523548 0.7800281 0.5207952 0.7820498 0.5045042 0.7924292 0.5161416 0.8078075 0.5330781 0.8047158 0.5346294 0.7926452 0.4919645 0.7958623 0.4985604 0.7735002 0.5063511 0.7958623 0.4985604 0.7853093 0.5184125 0.7735002 0.5063511 0.7800281 0.5207952 0.7715237 0.523548 0.8011255 0.5400219 0.7853093 0.5184125 0.8047158 0.5346294 0.8011255 0.5400219 0.7924292 0.5161416 0.7800281 0.5207952 0.8046435 0.5381567 0.4018617 0.9170277 0.4018619 0.9888451 0.4018617 0.9170277 0.4018619 0.9888451 0.4018617 0.9170277 0.4018617 0.9170277 0.4018619 0.9888451 0.4018617 0.9170277 0.4018619 0.9888451 0.4018617 0.9170277 0.4018619 0.9888451 0.4018619 0.9888451 0.4018617 0.9170277 0.4018619 0.9888451 0.4018617 0.9170277 0.4018619 0.9888451 0.4018617 0.9170277 0.4018617 0.9170277 0.4018619 0.9888451 0.4018619 0.9888451 0.4018619 0.9888451 0.4018617 0.9170277 0.4018617 0.9170277 0.4018617 0.9170277 0.4018619 0.9888451 0.4018619 0.9888451 0.4018619 0.9888451 0.4018617 0.9170277 0.4018619 0.9888451 0.4018617 0.9170277 0.4018617 0.9170277 0.4018617 0.9170277 0.4018617 0.9170277 0.4018619 0.9888451 0.4018619 0.9888451 0.4018619 0.9888451 0.4018617 0.9170277 0.4018617 0.9170277 0.4018617 0.9170277 0.4018617 0.9170277 0.4018619 0.9888451 0.4018619 0.9888451 0.8385849 0.5556579 0.8385849 0.5243163 0.7598958 0.5198875 0.9483829 0.4815029 0.553712 0.4815029 0.553712 0.4655364 0.9012284 0.5036807 0.1573518 0.5036807 0.1573518 0.4815029 0.9483829 0.5036807 0.553712 0.5036807 0.553712 0.5199159 0.8385849 0.45068 0.8385849 0.481503 0.7598958 0.481503 0.9012284 0.519916 0.1573518 0.519916 0.1573518 0.5036807 0.9483829 0.4815029 0.553712 0.4815029 0.553712 0.5036807 0.553712 0.4974696 0.159041 0.4974696 0.159041 0.4815029 0.9012284 0.4815029 0.1573518 0.4815029 0.1573518 0.4974696 0.8385849 0.5243163 0.8385849 0.481503 0.7598958 0.481503 0.9483829 0.4974696 0.553712 0.4974696 0.553712 0.4815029 0.9012284 0.4655364 0.1573518 0.4655364 0.1573518 0.4815029 0.553712 0.459325 0.159041 0.459325 0.159041 0.4815029 0.8385849 0.5123258 0.7598958 0.5091376 0.7598958 0.481503 0.9012284 0.5036807 0.1573518 0.5036807 0.1573518 0.519916 0.9483829 0.459325 0.553712 0.459325 0.553712 0.4815029 0.553712 0.459325 0.159041 0.459325 0.159041 0.4430899 0.9012284 0.4815029 0.1573518 0.4815029 0.1573518 0.5036807 0.8385849 0.4386896 0.7598958 0.4431181 0.7598958 0.481503 0.9483829 0.459325 0.553712 0.459325 0.553712 0.4430899 0.9012284 0.459325 0.1573518 0.459325 0.1573518 0.4815029 0.553712 0.4430899 0.159041 0.4430899 0.159041 0.459325 0.8385849 0.407348 0.8385849 0.4386896 0.7598958 0.4431181 0.9012284 0.4430899 0.1573518 0.4430899 0.1573518 0.459325 0.9483829 0.4430899 0.553712 0.4430899 0.553712 0.459325 0.553712 0.4815029 0.159041 0.4815029 0.159041 0.459325 0.9012284 0.4815029 0.1573518 0.4815029 0.1573518 0.4655364 0.8385849 0.407348 0.7598958 0.4150189 0.7598958 0.4431181 0.9483829 0.4815029 0.553712 0.4815029 0.553712 0.459325 0.9012284 0.4974696 0.1573518 0.4974696 0.1573518 0.4815029 0.8385849 0.4386896 0.8385849 0.481503 0.7598958 0.481503 0.9012284 0.459325 0.1573518 0.459325 0.1573518 0.4430899 0.553712 0.4815029 0.159041 0.4815029 0.159041 0.5036807 0.553712 0.4815029 0.159041 0.4815029 0.159041 0.4655364 0.9012284 0.4815029 0.1573518 0.4815029 0.1573518 0.459325 0.553712 0.5036807 0.159041 0.5036807 0.159041 0.519916 0.8385849 0.45068 0.7598958 0.4538686 0.7598958 0.481503 0.9483829 0.4655364 0.553712 0.4655364 0.553712 0.4815029 0.553712 0.4655364 0.159041 0.4655364 0.159041 0.4815029 0.8385849 0.481503 0.7598958 0.481503 0.7598958 0.5091376 0.9483829 0.4815029 0.553712 0.4815029 0.553712 0.4974696 0.553712 0.4815029 0.159041 0.4815029 0.159041 0.4974696 0.8385849 0.5243163 0.8385849 0.5556579 0.7598958 0.5479869 0.9483829 0.5199159 0.553712 0.5199159 0.553712 0.5036807 0.553712 0.5199159 0.159041 0.519916 0.159041 0.5036807 0.8385849 0.5243163 0.7598958 0.5198875 0.7598958 0.481503 0.9483829 0.4815029 0.9483829 0.5036807 0.553712 0.5036807 0.553712 0.4815029 0.553712 0.5036807 0.159041 0.5036807 0.9280071 0.2236134 0.9185512 0.2250758 0.9090951 0.2236134 0.9090951 0.2236134 0.9021729 0.219618 0.8996391 0.2141601 0.8996391 0.2141601 0.9021729 0.2087023 0.9280071 0.2047069 0.9021729 0.2087023 0.9090951 0.2047069 0.9280071 0.2047069 0.9090951 0.2047069 0.9185512 0.2032445 0.9280071 0.2047069 0.9280071 0.2047069 0.9349294 0.2087023 0.9280071 0.2236134 0.9349294 0.2087023 0.9374632 0.2141601 0.9280071 0.2236134 0.9374632 0.2141601 0.9349294 0.219618 0.9280071 0.2236134 0.9280071 0.2236134 0.9090951 0.2236134 0.8996391 0.2141601 0.4018617 0.9170277 0.4018619 0.9888451 0.4018619 0.9888451 0.4018619 0.9888451 0.4018619 0.9888451 0.4018617 0.9170277 0.4018619 0.9888451 0.4018617 0.9170277 0.4018617 0.9170277 0.4018617 0.9170277 0.4018617 0.9170277 0.4018619 0.9888451 0.4018617 0.9170277 0.4018619 0.9888451 0.4018619 0.9888451 0.4018619 0.9888451 0.4018619 0.9888451 0.4018617 0.9170277 0.4018619 0.9888451 0.4018619 0.9888451 0.4018619 0.9888451 0.4018617 0.9170277 0.4018617 0.9170277 0.4018617 0.9170277 0.4018619 0.9888451 0.4018619 0.9888451 0.4018619 0.9888451 0.4018617 0.9170277 0.4018619 0.9888451 0.4018619 0.9888451 0.4018617 0.9170277 0.4018617 0.9170277 0.4018617 0.9170277 0.4018619 0.9888451 0.4018619 0.9888451 0.4018619 0.9888451 0.4018617 0.9170277 0.4018617 0.9170277 0.4018617 0.9170277 0.4018617 0.9170277 0.4018617 0.9170277 0.4018619 0.9888451 0.8126403 0.9466217 0.06876361 0.9244439 0.8126403 0.9244439 0.8126403 0.962857 0.06876361 0.9466217 0.8126403 0.9466217 0.4651238 0.9404106 0.0704528 0.9244439 0.4651238 0.9244439 0.8126403 0.9244439 0.06876361 0.9404106 0.8126403 0.9404106 0.8126403 0.9084774 0.06876361 0.9244439 0.8126403 0.9244439 0.4651238 0.9022659 0.0704528 0.9244439 0.4651238 0.9244439 0.8126403 0.9466217 0.06876361 0.962857 0.8126403 0.962857 0.4651238 0.9022659 0.0704528 0.8860309 0.4651238 0.8860309 0.8126403 0.9244439 0.06876361 0.9466217 0.8126403 0.9466217 0.8126403 0.9022659 0.06876361 0.9244439 0.8126403 0.9244439 0.4651238 0.8860309 0.0704528 0.9022659 0.4651238 0.9022659 0.8126403 0.8860309 0.06876361 0.9022659 0.8126403 0.9022659 0.4651238 0.9244439 0.0704528 0.9022659 0.4651238 0.9022659 0.8126403 0.9244439 0.06876361 0.9084774 0.8126403 0.9084774 0.8126403 0.9404106 0.06876361 0.9244439 0.8126403 0.9244439 0.8126403 0.9022659 0.06876361 0.8860309 0.8126403 0.8860309 0.4651238 0.9244439 0.0704528 0.9466217 0.4651238 0.9466217 0.4651238 0.9244439 0.0704528 0.9084774 0.4651238 0.9084774 0.8126403 0.9244439 0.06876361 0.9022659 0.8126403 0.9022659 0.4651238 0.9466217 0.0704528 0.962857 0.4651238 0.9628568 0.4651238 0.9084774 0.0704528 0.9244439 0.4651238 0.9244439 0.4651238 0.9244439 0.0704528 0.9404106 0.4651238 0.9404106 0.4651238 0.9628568 0.0704528 0.9466217 0.4651238 0.9466217 0.4651238 0.9244439 0.0704528 0.9466217 0.0704528 0.9244439 0.8126403 0.9466217 0.06876361 0.9466217 0.06876361 0.9244439 0.8126403 0.962857 0.06876361 0.962857 0.06876361 0.9466217 0.4651238 0.9404106 0.0704528 0.9404106 0.0704528 0.9244439 0.8126403 0.9244439 0.06876361 0.9244439 0.06876361 0.9404106 0.8126403 0.9084774 0.06876361 0.9084774 0.06876361 0.9244439 0.4651238 0.9022659 0.0704528 0.9022659 0.0704528 0.9244439 0.8126403 0.9466217 0.06876361 0.9466217 0.06876361 0.962857 0.4651238 0.9022659 0.0704528 0.9022659 0.0704528 0.8860309 0.8126403 0.9244439 0.06876361 0.9244439 0.06876361 0.9466217 0.8126403 0.9022659 0.06876361 0.9022659 0.06876361 0.9244439 0.4651238 0.8860309 0.0704528 0.8860309 0.0704528 0.9022659 0.8126403 0.8860309 0.06876361 0.8860309 0.06876361 0.9022659 0.4651238 0.9244439 0.0704528 0.9244439 0.0704528 0.9022659 0.8126403 0.9244439 0.06876361 0.9244439 0.06876361 0.9084774 0.8126403 0.9404106 0.06876361 0.9404106 0.06876361 0.9244439 0.8126403 0.9022659 0.06876361 0.9022659 0.06876361 0.8860309 0.4651238 0.9244439 0.0704528 0.9244439 0.0704528 0.9466217 0.4651238 0.9244439 0.0704528 0.9244439 0.0704528 0.9084774 0.8126403 0.9244439 0.06876361 0.9244439 0.06876361 0.9022659 0.4651238 0.9466217 0.0704528 0.9466217 0.0704528 0.962857 0.4651238 0.9084774 0.0704528 0.9084774 0.0704528 0.9244439 0.4651238 0.9244439 0.0704528 0.9244439 0.0704528 0.9404106 0.4651238 0.9628568 0.0704528 0.962857 0.0704528 0.9466217 0.4651238 0.9244439 0.4651238 0.9466217 0.0704528 0.9466217 0.06876361 0.9244439 0.06876361 0.9022659 0.06876361 0.9022659 0.1573518 0.4815029 0.1573518 0.459325 0.1573518 0.459325 0.06876361 0.9022659 0.06876361 0.9244439 0.06876361 0.9466217 0.06876361 0.9466217 0.06876361 0.9404106 0.06876361 0.9244439 0.06876361 0.9244439 0.06876361 0.962857 0.06876361 0.9022659 0.06876361 0.962857 0.06876361 0.9466217 0.06876361 0.9022659 0.06876361 0.9466217 0.06876361 0.9244439 0.06876361 0.9022659 0.06876361 0.9022659 0.06876361 0.9084774 0.06876361 0.9022659 0.06876361 0.9084774 0.06876361 0.9244439 0.06876361 0.9022659 0.06876361 0.9244439 0.06876361 0.8860309 0.06876361 0.9022659 0.06876361 0.9022659 0.06876361 0.9466217 0.06876361 0.9244439 0.1573518 0.459325 0.1573518 0.4815029 0.1573518 0.5036807 0.1573518 0.5036807 0.1573518 0.4974696 0.1573518 0.4815029 0.1573518 0.4815029 0.1573518 0.519916 0.1573518 0.459325 0.1573518 0.519916 0.1573518 0.5036807 0.1573518 0.459325 0.1573518 0.5036807 0.1573518 0.4815029 0.1573518 0.459325 0.1573518 0.459325 0.1573518 0.4655364 0.1573518 0.459325 0.1573518 0.4655364 0.1573518 0.4815029 0.1573518 0.459325 0.1573518 0.4815029 0.1573518 0.4430899 0.1573518 0.459325 0.1573518 0.459325 0.1573518 0.5036807 0.1573518 0.4815029</float_array>
          <technique_common>
            <accessor source="#Cubo-mesh-map-0-array" count="738" stride="2">
              <param name="S" type="float"/>
              <param name="T" type="float"/>
            </accessor>
          </technique_common>
        </source>
        <vertices id="Cubo-mesh-vertices">
          <input semantic="POSITION" source="#Cubo-mesh-positions"/>
        </vertices>
        <triangles material="Materiais-material" count="246">
          <input semantic="VERTEX" source="#Cubo-mesh-vertices" offset="0"/>
          <input semantic="NORMAL" source="#Cubo-mesh-normals" offset="1"/>
          <input semantic="TEXCOORD" source="#Cubo-mesh-map-0" offset="2" set="0"/>
          <p>10 0 0 41 1 1 38 2 2 53 3 3 49 4 4 50 5 5 27 6 6 3 7 7 26 8 8 41 1 9 37 9 10 38 2 11 18 10 12 53 3 13 50 5 14 30 11 15 5 12 16 27 6 17 44 13 18 40 14 19 41 1 20 55 15 21 51 16 22 52 17 23 33 18 24 7 19 25 30 11 26 12 20 27 44 13 28 41 1 29 56 21 30 52 17 31 53 3 32 36 22 33 9 23 34 33 18 35 46 24 36 42 25 37 43 26 38 22 27 39 53 3 40 20 28 41 39 29 42 11 30 43 36 22 44 47 31 45 43 26 46 44 13 47 58 32 48 54 33 49 55 15 50 42 25 51 13 34 52 39 35 53 16 36 54 44 13 55 14 37 56 59 38 57 55 15 58 56 21 59 45 39 60 15 40 61 42 25 62 49 4 63 45 41 64 46 42 65 22 27 66 59 38 67 56 21 68 48 43 69 17 44 70 45 41 71 50 5 72 46 42 73 47 31 74 0 45 75 57 46 76 58 32 77 51 47 78 19 48 79 48 43 80 18 10 81 47 31 82 16 36 83 1 49 84 58 32 85 59 38 86 54 33 87 21 50 88 51 16 89 24 51 90 1 49 91 59 38 92 57 46 93 23 52 94 54 33 95 43 26 96 39 35 97 40 14 98 52 53 99 48 43 100 49 4 101 26 54 102 25 55 103 57 46 104 40 56 105 36 22 106 37 9 107 10 0 108 35 57 109 8 58 110 38 2 111 34 59 112 35 57 113 37 9 114 33 18 115 34 60 116 8 58 117 32 61 118 6 62 119 35 57 120 31 63 121 32 61 122 34 60 123 30 11 124 31 64 125 4 65 126 32 61 127 29 66 128 32 61 129 28 67 130 29 66 131 31 64 132 27 6 133 28 67 134 4 65 135 1 49 136 2 68 137 1 49 138 28 67 139 0 69 140 0 69 141 27 6 142 26 8 143 69 70 144 65 71 145 61 72 146 85 73 147 80 74 148 89 75 149 82 76 150 87 77 151 88 78 152 73 79 153 83 80 154 81 81 155 72 82 156 86 83 157 84 84 158 81 81 159 93 85 160 90 86 161 74 87 162 82 88 163 80 89 164 80 89 165 76 90 166 72 91 167 87 77 168 92 92 169 93 93 170 86 94 171 82 76 172 88 78 173 84 95 174 80 74 175 72 96 176 73 97 177 89 75 178 84 95 179 77 98 180 88 78 181 83 99 182 85 100 183 78 101 184 74 102 185 84 84 186 77 103 187 73 104 188 94 105 189 79 106 190 75 107 191 91 108 192 87 109 193 85 110 194 93 111 195 95 112 196 90 113 197 90 114 198 91 115 199 85 73 200 92 116 201 94 117 202 75 118 203 90 114 204 94 119 205 91 115 206 93 120 207 75 121 208 79 122 209 85 73 210 74 123 211 80 74 212 82 76 213 78 124 214 87 77 215 73 79 216 77 125 217 83 80 218 72 82 219 76 126 220 86 83 221 81 81 222 83 80 223 93 85 224 74 87 225 78 127 226 82 88 227 80 89 228 82 88 229 76 90 230 93 93 231 83 99 232 87 77 233 83 99 234 88 78 235 87 77 236 86 94 237 76 128 238 82 76 239 84 95 240 89 75 241 80 74 242 73 129 243 81 130 244 89 75 245 77 98 246 86 94 247 88 78 248 85 100 249 87 131 250 78 101 251 84 84 252 86 83 253 77 103 254 94 105 255 95 132 256 79 106 257 91 108 258 92 133 259 87 109 260 93 111 261 79 134 262 95 112 263 89 75 264 81 130 265 85 73 266 81 130 267 90 114 268 85 73 269 92 116 270 91 135 271 94 117 272 90 114 273 95 136 274 94 119 275 93 93 276 92 92 277 75 137 278 98 138 279 97 139 280 99 140 281 97 141 282 103 142 283 99 143 284 96 144 285 102 145 286 100 146 287 104 147 288 106 148 289 107 149 290 108 150 291 106 151 292 105 152 293 107 153 294 111 154 295 104 155 296 96 156 297 106 157 298 97 158 299 98 159 300 111 160 301 102 161 302 97 162 303 109 163 304 101 164 305 103 165 306 109 166 307 108 167 308 98 168 309 105 169 310 104 170 311 96 171 312 110 172 313 107 173 314 99 174 315 108 175 316 105 176 317 102 177 318 110 178 319 100 179 320 10 0 321 12 20 322 41 1 323 53 3 324 52 53 325 49 4 326 27 6 327 5 12 328 3 180 329 41 1 330 40 56 331 37 9 332 18 10 333 20 28 334 53 3 335 30 11 336 7 19 337 5 12 338 44 13 339 43 26 340 40 14 341 55 15 342 54 33 343 51 16 344 33 18 345 9 23 346 7 19 347 12 20 348 14 37 349 44 13 350 56 21 351 55 15 352 52 17 353 36 22 354 11 30 355 9 23 356 46 24 357 45 39 358 42 25 359 22 27 360 56 21 361 53 3 362 39 29 363 13 181 364 11 30 365 47 31 366 46 24 367 43 26 368 58 32 369 57 46 370 54 33 371 42 25 372 15 40 373 13 182 374 16 36 375 47 31 376 44 13 377 59 38 378 58 32 379 55 15 380 45 39 381 17 183 382 15 40 383 49 4 384 48 43 385 45 41 386 22 27 387 24 51 388 59 38 389 48 43 390 19 48 391 17 184 392 50 5 393 49 4 394 46 42 395 0 45 396 26 54 397 57 46 398 51 47 399 21 185 400 19 48 401 18 10 402 50 5 403 47 31 404 1 49 405 0 45 406 58 32 407 54 33 408 23 52 409 21 186 410 24 51 411 2 68 412 1 49 413 57 46 414 25 55 415 23 52 416 43 26 417 42 25 418 39 35 419 52 53 420 51 47 421 48 43 422 26 54 423 3 187 424 25 55 425 40 56 426 39 29 427 36 22 428 10 0 429 38 2 430 35 57 431 38 2 432 37 9 433 34 59 434 37 9 435 36 22 436 33 18 437 8 58 438 35 57 439 32 61 440 35 188 441 34 60 442 31 64 443 34 60 444 33 18 445 30 11 446 4 65 447 6 62 448 32 61 449 32 61 450 31 64 451 28 67 452 31 64 453 30 11 454 27 6 455 4 65 456 29 66 457 1 49 458 1 49 459 29 66 460 28 67 461 0 69 462 28 67 463 27 6 464 61 72 465 60 189 466 71 190 467 71 190 468 70 191 469 69 70 470 69 70 471 68 192 472 65 71 473 68 192 474 67 189 475 65 71 476 67 189 477 66 189 478 65 71 479 65 71 480 64 193 481 61 72 482 64 193 483 63 194 484 61 72 485 63 194 486 62 195 487 61 72 488 61 72 489 71 190 490 69 70 491 98 138 492 96 196 493 97 139 494 97 141 495 101 197 496 103 142 497 96 144 498 98 198 499 102 145 500 104 147 501 105 199 502 106 148 503 108 150 504 109 200 505 106 151 506 107 153 507 110 201 508 111 154 509 96 156 510 107 202 511 106 157 512 98 159 513 104 203 514 111 160 515 97 162 516 106 204 517 109 163 518 103 165 519 101 205 520 109 166 521 98 168 522 99 206 523 105 169 524 96 171 525 100 207 526 110 172 527 99 174 528 103 208 529 108 175 530 102 177 531 111 209 532 110 178 533 126 210 534 113 211 535 125 212 536 128 213 537 114 214 538 126 210 539 145 215 540 142 216 541 143 217 542 130 218 543 115 219 544 128 220 545 132 221 546 116 222 547 130 223 548 139 224 549 136 225 550 137 226 551 134 227 552 117 228 553 132 221 554 147 229 555 144 230 556 145 231 557 136 225 558 118 232 559 134 233 560 138 234 561 119 235 562 136 225 563 141 236 564 138 237 565 139 238 566 140 239 567 120 237 568 138 237 569 112 240 570 146 241 571 147 229 572 142 242 573 121 243 574 140 239 575 144 216 576 122 244 577 142 216 578 146 241 579 123 245 580 144 230 581 137 226 582 134 233 583 135 232 584 143 246 585 140 239 586 141 236 587 125 247 588 124 248 589 146 241 590 135 249 591 132 221 592 133 250 593 133 250 594 130 223 595 131 251 596 131 252 597 128 220 598 129 253 599 129 254 600 126 210 601 127 255 602 112 256 603 126 210 604 125 212 605 126 210 606 114 214 607 113 211 608 128 213 609 115 254 610 114 214 611 145 215 612 144 216 613 142 216 614 130 218 615 116 219 616 115 219 617 132 221 618 117 228 619 116 222 620 139 224 621 138 234 622 136 225 623 134 227 624 118 249 625 117 228 626 147 229 627 146 241 628 144 230 629 136 225 630 119 235 631 118 257 632 138 234 633 120 258 634 119 235 635 141 236 636 140 239 637 138 237 638 140 239 639 121 243 640 120 259 641 112 240 642 125 247 643 146 241 644 142 242 645 122 260 646 121 243 647 144 261 648 123 261 649 122 261 650 146 241 651 124 248 652 123 245 653 137 226 654 136 225 655 134 233 656 143 246 657 142 242 658 140 239 659 125 247 660 113 262 661 124 248 662 135 249 663 134 227 664 132 221 665 133 250 666 132 221 667 130 223 668 131 252 669 130 218 670 128 220 671 129 254 672 128 213 673 126 210 674 112 256 675 127 255 676 126 210 677 116 263 678 120 264 679 124 265 680 9 266 681 17 267 682 25 268 683 124 265 684 113 264 685 114 269 686 114 269 687 115 270 688 116 263 689 116 263 690 117 264 691 120 264 692 117 264 693 118 264 694 120 264 695 118 264 696 119 264 697 120 264 698 120 264 699 121 271 700 124 265 701 121 271 702 122 272 703 124 265 704 122 272 705 123 273 706 124 265 707 124 265 708 114 269 709 116 263 710 25 268 711 3 264 712 5 274 713 5 274 714 7 275 715 9 266 716 9 266 717 11 264 718 17 267 719 11 264 720 13 264 721 17 267 722 13 264 723 15 264 724 17 267 725 17 267 726 19 276 727 25 268 728 19 276 729 21 277 730 25 268 731 21 277 732 23 278 733 25 268 734 25 268 735 5 274 736 9 266 737</p>
        </triangles>
      </mesh>
    </geometry>
  </library_geometries>
  <library_visual_scenes>
    <visual_scene id="Scene" name="Scene">
      <node id="huochong" name="huochong" type="NODE">
        <matrix sid="transform">1 0 0 0 0 1 0 0 0 0 1 0 0 0 0 1</matrix>
        <instance_geometry url="#Cubo-mesh" name="huochong">
          <bind_material>
            <technique_common>
              <instance_material symbol="Materiais-material" target="#Materiais-material">
                <bind_vertex_input semantic="Cubo-mesh-map-0" input_semantic="TEXCOORD" input_set="0"/>
              </instance_material>
            </technique_common>
          </bind_material>
        </instance_geometry>
        <node id="prop_projectile" name="prop_projectile" type="NODE">
          <matrix sid="transform">1 0 0 0 0 1 0 0.0460838 0 0 1 2.590581 0 0 0 1</matrix>
        </node>
      </node>
    </visual_scene>
  </library_visual_scenes>
  <scene>
    <instance_visual_scene url="#Scene"/>
  </scene>
</COLLADA>