<?xml version="1.0" encoding="utf-8"?>
<COLLADA xmlns="http://www.collada.org/2005/11/COLLADASchema" version="1.4.1" xmlns:xsi="http://www.w3.org/2001/XMLSchema-instance">
  <asset>
    <contributor>
      <author>Blender User</author>
      <authoring_tool>Blender 4.3.1 commit date:2024-12-10, commit time:07:46, hash:33d812126174</authoring_tool>
    </contributor>
    <created>2026-04-19T19:30:14</created>
    <modified>2026-04-19T19:30:14</modified>
    <unit name="meter" meter="1"/>
    <up_axis>Z_UP</up_axis>
  </asset>
  <library_effects>
    <effect id="Material_002-effect">
      <profile_COMMON>
        <newparam sid="adarga_04_png-surface">
          <surface type="2D">
            <init_from>adarga_04_png</init_from>
          </surface>
        </newparam>
        <newparam sid="adarga_04_png-sampler">
          <sampler2D>
            <source>adarga_04_png-surface</source>
          </sampler2D>
        </newparam>
        <technique sid="common">
          <lambert>
            <emission>
              <color sid="emission">0 0 0 1</color>
            </emission>
            <diffuse>
              <texture texture="adarga_04_png-sampler" texcoord="UVMap"/>
            </diffuse>
            <index_of_refraction>
              <float sid="ior">1.5</float>
            </index_of_refraction>
          </lambert>
        </technique>
      </profile_COMMON>
    </effect>
  </library_effects>
  <library_images>
    <image id="adarga_04_png" name="adarga_04_png">
      <init_from>/home/welton/Downloads/adarga_04.png</init_from>
    </image>
  </library_images>
  <library_materials>
    <material id="Material_002-material" name="Material.002">
      <instance_effect url="#Material_002-effect"/>
    </material>
  </library_materials>
  <library_geometries>
    <geometry id="Cylinder-mesh" name="Cylinder">
      <mesh>
        <source id="Cylinder-mesh-positions">
          <float_array id="Cylinder-mesh-positions-array" count="147">0.004845976 0.08763766 0.7796573 0.004845976 0.02119827 0.7796573 0.2115551 0.1016533 0.8440282 0.2115551 0.03521394 0.8440281 0.4386515 0.1016533 0.8146257 0.4386515 0.03521394 0.8146257 0.5903924 0.1016533 0.5875294 0.5903924 0.03521394 0.5875294 0.6436768 0.1016533 0.2049587 0.6436768 0.035214 0.2049587 0.5266745 0.1016533 -0.2234888 0.5266745 0.03521394 -0.2234889 0.3749336 0.1016533 -0.4505852 0.3749336 0.035214 -0.4505853 0.2115551 0.1016533 -0.6023261 0.2115551 0.035214 -0.6023261 0.004845976 0.08763772 -0.5791488 0.004845976 0.02119833 -0.579149 -0.2018631 0.1016533 0.8440282 -0.2018631 0.03521394 0.8440281 -0.4289594 0.1016533 0.8146257 -0.4289594 0.03521394 0.8146257 -0.5807004 0.1016533 0.5875294 -0.5807004 0.03521394 0.5875294 -0.6339848 0.1016533 0.2049587 -0.6339848 0.035214 0.2049587 -0.5169824 0.1016533 -0.2234888 -0.5169824 0.03521394 -0.2234889 -0.3652415 0.1016533 -0.4505852 -0.3652415 0.035214 -0.4505853 -0.2018631 0.1016533 -0.6023261 -0.2018631 0.035214 -0.6023261 -0.1519329 0.1134946 0.2478244 -0.2173629 0.1164955 0.2465468 -0.1255834 0.1429303 0.1780228 -0.1910133 0.1459311 0.1767451 -0.1163306 0.1406883 0.08250087 -0.1817606 0.1436891 0.08122318 -0.1366479 0.09292179 -0.005207419 -0.2020779 0.09592258 -0.006485044 0.2562807 0.1134946 0.2478244 0.1908506 0.1164955 0.2465468 0.2826302 0.1429303 0.1780228 0.2172002 0.1459311 0.1767451 0.2918829 0.1406883 0.08250087 0.226453 0.1436891 0.08122318 0.2715657 0.09292179 -0.005207419 0.2061357 0.09592258 -0.006485044 0.004845976 0.02119827 0.1002541</float_array>
          <technique_common>
            <accessor source="#Cylinder-mesh-positions-array" count="49" stride="3">
              <param name="X" type="float"/>
              <param name="Y" type="float"/>
              <param name="Z" type="float"/>
            </accessor>
          </technique_common>
        </source>
        <source id="Cylinder-mesh-normals">
          <float_array id="Cylinder-mesh-normals-array" count="234">0 -3.31011e-7 1 -0.09085327 -1.54264e-6 0.9958644 -0.08188366 -1.77675e-6 0.996642 0.5271661 -6.14468e-7 0.8497623 0.52715 -5.42866e-7 0.8497723 0.9345818 0 0.3557485 0.9345797 0 0.3557539 0.9979464 -4.92038e-7 -0.06405472 0.9979465 -6.08394e-7 -0.06405317 0.9098738 -1.21432e-7 -0.4148852 0.9098751 -2.40691e-7 -0.4148823 0.7611692 3.16165e-7 -0.6485534 0.7611724 2.06728e-7 -0.6485496 0.3225604 0 -0.9465489 0.3039194 1.90588e-7 -0.9526978 0 1.43213e-6 -1 0.02296108 -0.9997167 -0.006270229 -0.06026226 0.9960716 0.06488394 0.09085321 -1.53742e-6 0.9958644 0 0 1 -0.527166 -7.70451e-7 0.8497623 0.0818836 -1.803e-6 0.9966419 -0.9345817 0 0.3557485 -0.5271499 -6.20804e-7 0.8497723 -0.9979464 0 -0.06405472 -0.9345797 0 0.3557539 -0.9098737 4.9601e-7 -0.4148854 -0.9979465 0 -0.06405317 -0.7611693 2.89242e-7 -0.6485534 -0.909875 4.24685e-7 -0.4148824 -0.3225603 0 -0.9465489 -0.7611724 1.74265e-7 -0.6485496 -0.3039193 1.88705e-7 -0.9526979 -0.03784406 -0.9992837 0 0 1 -2.37223e-7 0.03422242 0.9161904 0.3992794 0.04044812 0.9749873 0.2185497 0.0342226 0.9161905 0.3992792 0.04191827 0.9850737 0.1669516 0.04936581 0.9619348 -0.2687833 0.04950511 0.8722702 -0.4865119 0.0492357 0.9668394 -0.2505942 0.03422242 0.9161903 0.3992795 0.04044812 0.9749872 0.2185497 0.0342226 0.9161905 0.3992793 0.04191827 0.9850737 0.1669517 0.04936581 0.9619348 -0.2687833 0.04950511 0.8722702 -0.4865119 0.0492357 0.9668394 -0.2505941 0 1.77194e-6 -1 0 -1 0 0.04628449 -0.9965866 0.06836009 0.03784406 -0.9992837 0 0.06026238 -0.9960716 -0.06488412 0.02392923 -0.9997137 0 0.02144491 -0.9997656 0.002986788 0.01898264 -0.9997394 -0.01268386 -0.02684903 0.9996395 0 -0.04628449 0.9965866 -0.06836014 -0.01760971 0.9998334 0.004808902 0 1 -1.58149e-7 -0.0250743 0.9996796 -0.003492295 -0.04923242 0.9982455 0.03289622 -0.04628449 -0.9965866 0.06836003 0 -1 0 -0.02144485 -0.9997656 0.002986788 -0.02296108 -0.9997167 -0.006270229 -0.01898264 -0.9997394 -0.01268386 -0.06026238 -0.9960716 -0.06488412 -0.02392923 -0.9997137 0 0.04628449 0.9965866 -0.06835991 0.02684903 0.9996395 0 0.01760977 0.9998335 0.004808962 0.06026226 0.9960716 0.064884 0.04923242 0.9982455 0.03289598 0.0250743 0.9996796 -0.003492355 0.04950499 0.8722703 -0.486512 0.04950505 0.8722702 -0.486512</float_array>
          <technique_common>
            <accessor source="#Cylinder-mesh-normals-array" count="78" stride="3">
              <param name="X" type="float"/>
              <param name="Y" type="float"/>
              <param name="Z" type="float"/>
            </accessor>
          </technique_common>
        </source>
        <source id="Cylinder-mesh-map-0">
          <float_array id="Cylinder-mesh-map-0-array" count="444">0.5378594 0.5601796 0.5513216 0.5413467 0.5378594 0.5413467 0.5513216 0.5413467 0.5378594 0.5206562 0.5378594 0.5413467 0.5513316 0.5018744 0.5417587 0.5165874 0.5417587 0.5018744 0.5513316 0.5165874 0.5417587 0.5413731 0.5417587 0.5165874 0.5513316 0.5413731 0.5417587 0.5691311 0.5417587 0.5413731 0.5513316 0.5691311 0.5417587 0.5838441 0.5417587 0.5691311 0.5513216 0.5264614 0.5378594 0.5413467 0.5378594 0.5264614 0.5513216 0.5413467 0.5378594 0.5601796 0.5378594 0.5413467 0.4118217 0.2827837 0.4509685 0.5287312 0.2372267 0.4686262 0.8832117 0.2803291 0.8494529 0.226535 0.8067409 0.2347517 0.5378594 0.5601796 0.5513216 0.5413467 0.5513216 0.5601796 0.5378594 0.5206562 0.5513216 0.5413467 0.5378594 0.5413467 0.5417587 0.5165874 0.5513316 0.5018744 0.5417587 0.5018744 0.5417587 0.5413731 0.5513316 0.5165874 0.5417587 0.5165874 0.5417587 0.5691311 0.5513316 0.5413731 0.5417587 0.5413731 0.5417587 0.5838441 0.5513316 0.5691311 0.5417587 0.5691311 0.5378594 0.5413467 0.5513216 0.5264614 0.5378594 0.5264614 0.5378594 0.5601796 0.5513216 0.5413467 0.5378594 0.5413467 0.3610516 0.1524204 0.2372267 0.07861936 0.2372267 0.4686262 0.9178212 0.6567863 0.8873639 0.7349923 0.8417814 0.7451176 0.6865714 0.3827967 0.704059 0.4192916 0.704059 0.3827967 0.6865714 0.4192916 0.704059 0.4807714 0.704059 0.4192916 0.6865715 0.5496238 0.704059 0.4807714 0.6865714 0.4807714 0.6865714 0.3827967 0.704059 0.4192916 0.704059 0.3827967 0.6865714 0.4192916 0.704059 0.4807714 0.704059 0.4192916 0.6865715 0.5496238 0.704059 0.4807714 0.6865714 0.4807714 0.5378594 0.5601796 0.5513216 0.5601796 0.5513216 0.5413467 0.5513216 0.5413467 0.5513216 0.5206562 0.5378594 0.5206562 0.5513316 0.5018744 0.5513316 0.5165874 0.5417587 0.5165874 0.5513316 0.5165874 0.5513316 0.5413731 0.5417587 0.5413731 0.5513316 0.5413731 0.5513316 0.5691311 0.5417587 0.5691311 0.5513316 0.5691311 0.5513316 0.5838441 0.5417587 0.5838441 0.5513216 0.5264614 0.5513216 0.5413467 0.5378594 0.5413467 0.5513216 0.5413467 0.5513216 0.5601796 0.5378594 0.5601796 0.3823705 0.8787063 0.3063879 0.8955847 0.4331404 0.7483434 0.3063879 0.8955847 0.2372267 0.8586329 0.4331404 0.7483434 0.2372267 0.4686262 0.2372267 0.07861936 0.3610516 0.1524204 0.2372267 0.07861936 0.3063879 0.06531453 0.3610516 0.1524204 0.2372267 0.8586329 0.2372267 0.4686262 0.4331404 0.7483434 0.4509685 0.5287312 0.4331404 0.7483434 0.2372267 0.4686262 0.3610516 0.1524204 0.4118217 0.2827837 0.2372267 0.4686262 0.8067409 0.2347517 0.8067409 0.7164654 0.9145658 0.3608376 0.8067409 0.7164654 0.8494529 0.7392858 0.9277316 0.6483538 0.9145658 0.3608376 0.8067409 0.7164654 0.9387418 0.5127277 0.8494529 0.7392858 0.8963776 0.7288624 0.9277316 0.6483538 0.9277316 0.6483538 0.9387418 0.5127277 0.8067409 0.7164654 0.9145658 0.3608376 0.8832117 0.2803291 0.8067409 0.2347517 0.5378594 0.5601796 0.5378594 0.5413467 0.5513216 0.5413467 0.5378594 0.5206562 0.5513216 0.5206562 0.5513216 0.5413467 0.5417587 0.5165874 0.5513316 0.5165874 0.5513316 0.5018744 0.5417587 0.5413731 0.5513316 0.5413731 0.5513316 0.5165874 0.5417587 0.5691311 0.5513316 0.5691311 0.5513316 0.5413731 0.5417587 0.5838441 0.5513316 0.5838441 0.5513316 0.5691311 0.5378594 0.5413467 0.5513216 0.5413467 0.5513216 0.5264614 0.5378594 0.5601796 0.5513216 0.5601796 0.5513216 0.5413467 0.2372267 0.8586329 0.3063879 0.8955847 0.4331404 0.7483434 0.3063879 0.8955847 0.3823705 0.8787063 0.4331404 0.7483434 0.4331404 0.7483434 0.4509685 0.5287312 0.2372267 0.4686262 0.4509685 0.5287312 0.4118217 0.2827837 0.2372267 0.4686262 0.4118217 0.2827837 0.3610516 0.1524204 0.2372267 0.4686262 0.3610516 0.1524204 0.3063879 0.06531453 0.2372267 0.07861936 0.2372267 0.4686262 0.2372267 0.8586329 0.4331404 0.7483434 0.8417814 0.7451176 0.800291 0.7229499 0.9178212 0.6567863 0.800291 0.7229499 0.800291 0.2550134 0.9050319 0.3774932 0.9285165 0.5250391 0.800291 0.7229499 0.9050319 0.3774932 0.800291 0.2550134 0.8417814 0.2470316 0.8745746 0.2992872 0.8745746 0.2992872 0.9050319 0.3774932 0.800291 0.2550134 0.9285165 0.5250391 0.9178212 0.6567863 0.800291 0.7229499 0.6865714 0.3827967 0.6865714 0.4192916 0.704059 0.4192916 0.6865714 0.4192916 0.6865714 0.4807714 0.704059 0.4807714 0.6865715 0.5496238 0.704059 0.5496238 0.704059 0.4807714 0.6865714 0.3827967 0.6865714 0.4192916 0.704059 0.4192916 0.6865714 0.4192916 0.6865714 0.4807714 0.704059 0.4807714 0.6865715 0.5496238 0.704059 0.5496238 0.704059 0.4807714</float_array>
          <technique_common>
            <accessor source="#Cylinder-mesh-map-0-array" count="222" stride="2">
              <param name="S" type="float"/>
              <param name="T" type="float"/>
            </accessor>
          </technique_common>
        </source>
        <vertices id="Cylinder-mesh-vertices">
          <input semantic="POSITION" source="#Cylinder-mesh-positions"/>
        </vertices>
        <triangles material="Material_002-material" count="74">
          <input semantic="VERTEX" source="#Cylinder-mesh-vertices" offset="0"/>
          <input semantic="NORMAL" source="#Cylinder-mesh-normals" offset="1"/>
          <input semantic="TEXCOORD" source="#Cylinder-mesh-map-0" offset="2" set="0"/>
          <p>0 0 0 3 1 1 2 2 2 3 1 3 4 3 4 2 2 5 5 4 6 6 5 7 4 3 8 7 6 9 8 7 10 6 5 11 9 8 12 10 9 13 8 7 14 11 10 15 12 11 16 10 9 17 13 12 18 14 13 19 12 11 20 15 14 21 16 15 22 14 13 23 11 16 24 9 16 25 48 16 26 12 17 27 14 17 28 16 17 29 0 0 30 19 18 31 1 19 32 20 20 33 19 18 34 18 21 35 22 22 36 21 23 37 20 20 38 24 24 39 23 25 40 22 22 41 26 26 42 25 27 43 24 24 44 28 28 45 27 29 46 26 26 47 30 30 48 29 31 49 28 28 50 16 15 51 31 32 52 30 30 53 29 33 54 17 33 55 48 33 56 22 34 57 20 34 58 18 34 59 32 35 60 35 36 61 33 37 62 34 38 63 37 39 64 35 36 65 38 40 66 37 39 67 36 41 68 40 42 69 43 43 70 41 44 71 42 45 72 45 46 73 43 43 74 46 47 75 45 46 76 44 48 77 0 0 78 1 19 79 3 1 80 3 1 81 5 4 82 4 3 83 5 4 84 7 6 85 6 5 86 7 6 87 9 8 88 8 7 89 9 8 90 11 10 91 10 9 92 11 10 93 13 12 94 12 11 95 13 12 96 15 14 97 14 13 98 15 14 99 17 49 100 16 15 101 5 50 102 3 50 103 7 50 104 3 51 105 1 51 106 7 51 107 48 52 108 17 52 109 13 52 110 17 53 111 15 53 112 13 53 113 1 54 114 48 54 115 7 54 116 9 55 117 7 55 118 48 55 119 13 56 120 11 56 121 48 56 122 16 57 123 0 57 124 10 57 125 0 58 126 2 58 127 6 58 128 10 59 129 0 59 130 8 59 131 2 60 132 4 60 133 6 60 134 6 61 135 8 61 136 0 61 137 10 62 138 12 62 139 16 62 140 0 0 141 18 21 142 19 18 143 20 20 144 21 23 145 19 18 146 22 22 147 23 25 148 21 23 149 24 24 150 25 27 151 23 25 152 26 26 153 27 29 154 25 27 155 28 28 156 29 31 157 27 29 158 30 30 159 31 32 160 29 31 161 16 15 162 17 49 163 31 32 164 1 63 165 19 63 166 23 63 167 19 64 168 21 64 169 23 64 170 23 65 171 25 65 172 48 65 173 25 66 174 27 66 175 48 66 176 27 67 177 29 67 178 48 67 179 29 68 180 31 68 181 17 68 182 48 69 183 1 69 184 23 69 185 18 70 186 0 70 187 22 70 188 0 71 189 16 71 190 26 71 191 24 72 192 0 72 193 26 72 194 16 73 195 30 73 196 28 73 197 28 74 198 26 74 199 16 74 200 24 75 201 22 75 202 0 75 203 32 35 204 34 38 205 35 36 206 34 38 207 36 41 208 37 39 209 38 40 210 39 76 211 37 39 212 40 42 213 42 45 214 43 43 215 42 45 216 44 48 217 45 46 218 46 47 219 47 77 220 45 46 221</p>
        </triangles>
      </mesh>
    </geometry>
  </library_geometries>
  <library_visual_scenes>
    <visual_scene id="Scene" name="Scene">
      <node id="Cylinder" name="Cylinder" type="NODE">
        <matrix sid="transform">1 0 0 0 0 1 0 0 0 0 1 0 0 0 0 1</matrix>
        <instance_geometry url="#Cylinder-mesh" name="Cylinder">
          <bind_material>
            <technique_common>
              <instance_material symbol="Material_002-material" target="#Material_002-material">
                <bind_vertex_input semantic="UVMap" input_semantic="TEXCOORD" input_set="0"/>
              </instance_material>
            </technique_common>
          </bind_material>
        </instance_geometry>
      </node>
    </visual_scene>
  </library_visual_scenes>
  <scene>
    <instance_visual_scene url="#Scene"/>
  </scene>
</COLLADA>