<?xml version="1.0" encoding="utf-8"?>
<COLLADA xmlns="http://www.collada.org/2005/11/COLLADASchema" version="1.4.1" xmlns:xsi="http://www.w3.org/2001/XMLSchema-instance">
  <asset>
    <contributor>
      <author>Blender User</author>
      <authoring_tool>Blender 4.3.1 commit date:2024-12-10, commit time:07:46, hash:33d812126174</authoring_tool>
    </contributor>
    <created>2026-06-01T22:17:03</created>
    <modified>2026-06-01T22:17:03</modified>
    <unit name="meter" meter="1"/>
    <up_axis>Z_UP</up_axis>
  </asset>
  <library_effects>
    <effect id="Materiais_001-effect">
      <profile_COMMON>
        <newparam sid="ming_helmet_01_png-surface">
          <surface type="2D">
            <init_from>ming_helmet_01_png</init_from>
          </surface>
        </newparam>
        <newparam sid="ming_helmet_01_png-sampler">
          <sampler2D>
            <source>ming_helmet_01_png-surface</source>
          </sampler2D>
        </newparam>
        <technique sid="common">
          <lambert>
            <emission>
              <color sid="emission">0 0 0 1</color>
            </emission>
            <diffuse>
              <texture texture="ming_helmet_01_png-sampler" texcoord="Cylinder_014-mesh-map-0"/>
            </diffuse>
            <index_of_refraction>
              <float sid="ior">1.5</float>
            </index_of_refraction>
          </lambert>
        </technique>
      </profile_COMMON>
    </effect>
  </library_effects>
  <library_images>
    <image id="ming_helmet_01_png" name="ming_helmet_01_png">
      <init_from>/home/welton/Downloads/ming_helmet_01.png</init_from>
    </image>
  </library_images>
  <library_materials>
    <material id="Materiais_001-material" name="Materiais.001">
      <instance_effect url="#Materiais_001-effect"/>
    </material>
  </library_materials>
  <library_geometries>
    <geometry id="Cylinder_014-mesh" name="Cylinder.014">
      <mesh>
        <source id="Cylinder_014-mesh-positions">
          <float_array id="Cylinder_014-mesh-positions-array" count="336">0.003654599 0.2454388 0.1999754 0.118205 0.2199584 0.2060047 0.2147368 0.1498601 0.2237683 0.2785539 0.04581558 0.2505619 0.2999407 -0.07633531 0.2823061 0.2756416 -0.1979965 0.3141691 0.2093557 -0.3006459 0.3412988 0.1111744 -0.3686566 0.3595657 -0.003954887 -0.3916742 0.3661887 -0.001138508 0.04589551 0.6730715 -0.002112686 0.04522067 0.673253 -0.1185051 -0.3661941 0.3601595 -0.002770304 0.04420226 0.6735222 -0.003011345 0.04299521 0.6738384 -0.2150366 -0.2960958 0.342396 -0.002799212 0.04178315 0.6741534 -0.002166092 0.04075092 0.6744191 -0.278854 -0.1920516 0.3156024 -0.001208364 0.04005545 0.6745953 -7.18746e-5 0.03980261 0.6746553 -0.3002409 -0.06990021 0.283858 0.00107032 0.04003095 0.6745893 0.002044379 0.04070574 0.6744083 -0.2759417 0.05176085 0.2519952 0.002702057 0.04172426 0.6741391 0.002943158 0.04293125 0.673823 -0.2096559 0.1544104 0.2248653 0.002730906 0.04414331 0.6735081 0.002097785 0.04517537 0.6732419 -0.1114746 0.2224209 0.2065985 0.001140058 0.04587101 0.6730658 3.62719e-6 0.04612386 0.6730061 0.09573978 0.1121847 0.5507078 -0.1230916 0.06843477 0.5632963 -0.04974293 0.1445453 0.5430505 -0.09352964 0.1142141 0.5511972 0.122902 -0.04295134 0.5910246 0.09333997 -0.08873069 0.603124 0.04955339 -0.1190619 0.6112704 -0.001791596 -0.1293272 0.6142241 -0.09592938 -0.08670139 0.603613 -0.05287843 -0.1179637 0.6115353 -0.1339284 0.0141766 0.5775064 0.1337389 0.01130676 0.5768146 0.1242008 0.06578338 0.5626571 0.05268877 0.1434471 0.5427859 -0.1243904 -0.04030001 0.591664 0.001601934 0.1548107 0.5400968 -0.08197796 -0.2141383 0.550872 0.1484745 0.1427375 0.456551 -0.1908528 0.07489728 0.4760714 -0.07711595 0.1929168 0.4446772 0.1905931 -0.09782183 0.5190674 0.2073971 -0.01368725 0.4970329 -0.145013 0.1458842 0.4573098 -0.002761006 -0.231759 0.5550414 0.002501308 0.2088347 0.4400973 -0.2076568 -0.009237051 0.498106 0.07685637 -0.2158414 0.5504612 0.1447533 -0.1688087 0.5378289 0.08171826 0.191214 0.4442669 0.1926072 0.07078588 0.4750801 -0.1487341 -0.165662 0.5385876 -0.1928668 -0.09371054 0.5200589 -0.09838581 -0.2845607 0.4597801 0.1782155 0.1437804 0.3465712 -0.2290631 0.06235492 0.3700004 0.09225547 -0.2866049 0.4592872 -0.09255021 0.2040082 0.3323197 -0.1740438 0.1475572 0.3474819 -0.17851 -0.226377 0.4450359 0.003010571 0.2231137 0.3268225 0.09809112 0.2019643 0.331827 0.2311857 0.05742025 0.3688107 -0.003305435 -0.3057101 0.4647846 -0.2492321 -0.0386275 0.3964475 0.2287684 -0.1449516 0.4216067 0.2489375 -0.04396891 0.3951594 0.173749 -0.2301539 0.4441253 -0.2314803 -0.1400169 0.4227965 0.07109057 0.1021504 0.6076212 -0.09235125 -0.01106607 0.6380305 0.09125792 -0.01303464 0.6375558 0.06930881 -0.04702484 0.6465392 -0.09138685 0.0696671 0.616968 0.03679823 -0.06954509 0.6525877 -0.001324295 -0.07716685 0.6547809 -0.0712195 -0.04551815 0.6469023 -0.0392552 -0.06872969 0.6527845 -0.09943306 0.02938163 0.6275188 -0.06943774 0.1036573 0.6079846 0.09930408 0.02725076 0.6270051 0.09222233 0.06769853 0.6164934 0.03912615 0.1253621 0.6017394 -0.0369271 0.1261775 0.6019356 0.001195371 0.1337993 0.5997429 0.005100727 0.3665205 0.1683871 0.1631911 0.3313552 0.176708 0.2964141 0.2346128 0.2012234 0.3844878 0.09102159 0.2382012 0.4140036 -0.07755827 0.2820112 0.3804686 -0.2454622 0.3259851 0.2889876 -0.3871281 0.3634267 0.1534882 -0.4809894 0.3886367 -0.005401074 -0.5127557 0.397777 -0.1634913 -0.4775907 0.3894562 -0.2967139 -0.3808484 0.3649408 -0.3847877 -0.2372576 0.3279633 -0.4143038 -0.06867724 0.2841529 -0.3807687 0.09922653 0.2401792 -0.2892879 0.2408927 0.2027374 -0.1537885 0.3347536 0.1775274</float_array>
          <technique_common>
            <accessor source="#Cylinder_014-mesh-positions-array" count="112" stride="3">
              <param name="X" type="float"/>
              <param name="Y" type="float"/>
              <param name="Z" type="float"/>
            </accessor>
          </technique_common>
        </source>
        <source id="Cylinder_014-mesh-normals">
          <float_array id="Cylinder_014-mesh-normals-array" count="402">-0.4475945 0.2296795 0.8642375 -0.4143975 0.08266407 0.9063341 -0.4476211 0.2321492 0.8635636 0.2650256 -0.3785852 0.8868116 7.48191e-4 -0.1674584 0.985879 -0.002476334 -0.4258192 0.9048049 0.6293599 -0.04905098 0.7755644 0.3223391 -0.05308985 0.9451345 0.4855154 -0.2440275 0.8394793 -0.4144965 0.3869138 0.8237053 -0.3210485 0.5166496 0.7937262 -0.3156323 0.5216507 0.7926266 -0.1664778 0.6113215 0.7736739 0.008628964 0.6410936 0.7674143 0.009074091 0.6411198 0.7673872 -0.3470844 -0.5889756 0.7298221 -0.003854632 -0.5531505 0.8330725 -0.3136788 -0.4933336 0.8113122 -0.17223 0.6091658 0.7741149 0.1836227 0.6064329 0.773642 0.1887305 0.6043407 0.7740499 -0.629759 -0.03511792 0.7759964 -0.3198094 -0.0459271 0.9463682 0.6836798 0.1783021 0.7076654 0.4268185 0.372763 0.8239379 0.4550641 0.2209093 0.8626214 0.1761015 -0.1382862 0.9746103 -0.4160288 0.3834732 0.8245413 0.4189545 0.07283157 0.9050816 0.6435174 0.4120029 0.6450884 0.335177 0.5080537 0.7934343 -0.4888677 -0.2341561 0.8403449 -0.1744679 -0.1345486 0.9754269 0.5081368 0.6234009 0.5942798 -0.269688 -0.3735941 0.8875223 0.8587183 0.1203607 0.4981127 0.7289986 -0.1181038 0.6742498 0.7934278 -0.1680971 0.5849922 -0.3687279 0.9145335 0.166338 0.01086711 0.9560396 0.2930364 0.01097673 0.988536 0.150586 -0.7979951 -0.1511078 0.5834126 -0.5682888 -0.3326687 0.7525819 -0.7318894 -0.1023959 0.6736861 0.61532 -0.4189624 0.6677214 0.3062228 -0.4988684 0.8107761 0.3367291 -0.5950176 0.7297723 -0.005382359 -0.6576579 0.7532976 0.6386992 0.6836611 0.3530878 0.3321545 0.8422564 0.4245909 0.5892302 0.6628857 0.461942 -0.6234381 0.6989905 0.3503388 -0.3122487 0.850524 0.4232136 -0.3404157 0.8885347 0.3076087 -0.8572462 0.1400586 0.4954923 -0.7896276 0.1636525 0.5913597 0.3604382 0.8800387 0.3092188 0.01082819 0.9114795 0.4112032 0.8077281 0.4154655 0.418287 0.7458721 0.4165321 0.5197845 -0.7991609 0.4346966 0.4151877 -0.5740361 0.6776041 0.4597122 -0.623871 -0.4069482 0.6672167 -0.7370294 0.4347342 0.517488 0.7920008 0.1452414 0.5929922 0.5621499 -0.3436944 0.7522377 0.666606 -0.4989915 0.5537544 0.3659079 -0.6933372 0.6208019 0.855997 -0.2253541 0.4652792 -0.8606681 0.423416 0.2827887 -0.6729087 0.7084454 0.212836 0.8687878 0.4032212 0.2874382 -0.3787557 -0.6869269 0.6202222 -0.8622554 -0.2072743 0.462118 -0.9234593 0.1068436 0.3685208 0.9239063 0.08599835 0.372829 -0.006654083 -0.7630984 0.6462483 -0.6773892 -0.4861969 0.5520476 0.3889003 0.9057155 0.1686303 0.6881088 0.692463 0.2167978 0.6799542 0.6940416 0.2365769 0.9169695 0.08881103 0.3889466 -0.8543719 -0.2054618 0.4773197 -0.9164826 0.1093677 0.3848354 0.3832084 0.9038008 0.1905142 -0.6683973 -0.4828056 0.5658125 -0.006001412 -0.7537066 0.6571836 0.3600535 -0.6857457 0.632546 0.8483766 -0.2228958 0.4801818 -0.852961 0.4267765 0.3005317 -0.3717615 -0.6798284 0.6321605 -0.6641529 0.7104907 0.2326028 -0.3618365 0.9130496 0.188188 0.8612338 0.4064308 0.3051075 0.6583263 -0.494854 0.567209 0.01172614 0.984785 0.1733813 0.3537135 0.8683099 0.3477427 -0.7795033 0.4352595 0.4504707 0.01037263 0.9431164 0.3323008 -0.3345159 0.8764938 0.3462046 -0.6102257 0.6910713 0.3873566 -0.8346138 0.1523168 0.5293577 0.00520718 0.2523742 0.9676158 0.005207836 0.2523742 0.9676157 0.005207121 0.2523742 0.9676158 0.005207955 0.2523743 0.9676157 0.005208075 0.2523744 0.9676157 0.005207836 0.2523743 0.9676158 0.005206704 0.2523741 0.9676157 0.005206942 0.2523741 0.9676157 0.005206227 0.2523742 0.9676158 0.005206942 0.2523759 0.9676154 0.005207002 0.252376 0.9676153 0.005207657 0.2523737 0.9676159 0.005207896 0.2523751 0.9676156 0.005207836 0.2523739 0.9676159 0.005205988 0.2523741 0.9676157 0.00520724 0.2523754 0.9676155 0.005207598 0.2523754 0.9676155 0.0052073 0.2523753 0.9676154 0.005206644 0.2523743 0.9676157 0.0052073 0.2523753 0.9676154 0.005206525 0.2523741 0.9676158 0.005206525 0.2523741 0.9676157 0.005207538 0.2523748 0.9676156 0.005207598 0.2523747 0.9676156 0.005207657 0.2523746 0.9676156 0.005207717 0.2523747 0.9676157 0.005206644 0.2523743 0.9676158 0.005207598 0.2523751 0.9676155 0.005207836 0.2523743 0.9676158 0.005208015 0.2523744 0.9676157 0.005207538 0.2523746 0.9676157 0.005207598 0.2523745 0.9676156</float_array>
          <technique_common>
            <accessor source="#Cylinder_014-mesh-normals-array" count="134" stride="3">
              <param name="X" type="float"/>
              <param name="Y" type="float"/>
              <param name="Z" type="float"/>
            </accessor>
          </technique_common>
        </source>
        <source id="Cylinder_014-mesh-map-0">
          <float_array id="Cylinder_014-mesh-map-0-array" count="1152">0.3925235 0.620808 0.4814055 0.5956405 0.4814668 0.5968819 0.5003026 0.4965404 0.4835893 0.5931168 0.462629 0.4968865 0.5638788 0.5403456 0.4858166 0.5935677 0.5358439 0.5118024 0.4088334 0.6584961 0.4828151 0.598892 0.437002 0.6871588 0.4727119 0.7024061 0.4850424 0.5993427 0.5104898 0.7019203 0.3758199 0.4341274 0.4571549 0.4667128 0.4118807 0.4878328 0.437002 0.6871588 0.483897 0.5993553 0.4727119 0.7024061 0.5445619 0.6858054 0.4850424 0.5993427 0.4860773 0.5988562 0.3905599 0.5798714 0.4817876 0.5944895 0.4814055 0.5956405 0.5801678 0.5778508 0.487226 0.5968187 0.4871647 0.5955776 0.5358439 0.5118024 0.4847348 0.5931044 0.5003026 0.4965404 0.3925235 0.620808 0.4819617 0.5980233 0.4088334 0.6584961 0.5801678 0.5778508 0.48667 0.5944361 0.5638788 0.5403456 0.582236 0.6186477 0.4868441 0.5979696 0.487226 0.5968187 0.4032188 0.5419496 0.4825543 0.5936032 0.4817876 0.5944895 0.5697456 0.656555 0.4860773 0.5988562 0.4868441 0.5979696 0.4285362 0.5128183 0.4835893 0.5931168 0.4825543 0.5936032 0.6808092 0.5651239 0.5915146 0.5244254 0.6480169 0.4897597 0.4648106 0.8592193 0.5409334 0.8152387 0.5538239 0.8578257 0.2990372 0.5691126 0.3782348 0.526495 0.3613902 0.5768586 0.5916844 0.4323886 0.5071573 0.4662804 0.5202711 0.4016403 0.5202711 0.4016403 0.4571549 0.4667128 0.4445019 0.4022083 0.6601096 0.7235209 0.565955 0.7175485 0.5993649 0.6786763 0.3926435 0.7856843 0.4705305 0.7396699 0.4647405 0.8163734 0.3028919 0.6517224 0.3613902 0.5768586 0.3639768 0.6312523 0.6095312 0.7825765 0.5207173 0.7389916 0.565955 0.7175485 0.6850876 0.6471669 0.5993649 0.6786763 0.6159121 0.6283378 0.3357682 0.7278293 0.423075 0.7194278 0.3926435 0.7856843 0.3246985 0.4926994 0.4118807 0.4878328 0.3782348 0.526495 0.3028919 0.6517224 0.3856403 0.6813406 0.3357682 0.7278293 0.6808092 0.5651239 0.6159121 0.6283378 0.6131416 0.5741909 0.6480169 0.4897597 0.5543159 0.4865481 0.5916844 0.4323886 0.4647405 0.8163734 0.5207173 0.7389916 0.5409334 0.8152387 0.6129465 0.4107274 0.5202711 0.4016403 0.5296198 0.3748205 0.678679 0.4776779 0.5916844 0.4323886 0.6129465 0.4107274 0.3140794 0.7557832 0.3926435 0.7856843 0.3805518 0.8233932 0.7220128 0.6613882 0.6601096 0.7235209 0.6850876 0.6471669 0.3805518 0.8233932 0.4647405 0.8163734 0.4648106 0.8592193 0.3609784 0.4126597 0.4445019 0.4022083 0.3758199 0.4341274 0.2712085 0.570286 0.3246985 0.4926994 0.2990372 0.5691126 0.2756744 0.6668259 0.3357682 0.7278293 0.3140794 0.7557832 0.716969 0.5656222 0.6480169 0.4897597 0.678679 0.4776779 0.5296198 0.3748205 0.4445019 0.4022083 0.4411845 0.375441 0.3012348 0.4810296 0.3758199 0.4341274 0.3246985 0.4926994 0.6339154 0.8195937 0.5409334 0.8152387 0.6095312 0.7825765 0.2756744 0.6668259 0.2990372 0.5691126 0.3028919 0.6517224 0.716969 0.5656222 0.6850876 0.6471669 0.6808092 0.5651239 0.6929187 0.7505645 0.6095312 0.7825765 0.6601096 0.7235209 0.7312658 0.7824562 0.6339154 0.8195937 0.6929187 0.7505645 0.7592334 0.5661504 0.7220128 0.6613882 0.716969 0.5656222 0.2378603 0.5716147 0.2756744 0.6668259 0.2430346 0.6846448 0.6623265 0.8632985 0.5538239 0.8578257 0.6339154 0.8195937 0.2730688 0.4671695 0.3609784 0.4126597 0.3012348 0.4810296 0.5296198 0.3748205 0.4368499 0.343768 0.54024 0.3431012 0.716969 0.5656222 0.7144469 0.4633609 0.7592334 0.5661504 0.2430346 0.6846448 0.3140794 0.7557832 0.2879782 0.7888211 0.2730688 0.4671695 0.2712085 0.570286 0.2378603 0.5716147 0.3430208 0.3872298 0.4411845 0.375441 0.3609784 0.4126597 0.3658154 0.8679798 0.4648106 0.8592193 0.4644737 0.9098724 0.7651985 0.6781212 0.6929187 0.7505645 0.7220128 0.6613882 0.2879782 0.7888211 0.3805518 0.8233932 0.3658154 0.8679798 0.678679 0.4776779 0.637623 0.3851044 0.7144469 0.4633609 0.6129465 0.4107274 0.54024 0.3431012 0.637623 0.3851044 0.4644737 0.9098724 0.5538239 0.8578257 0.5686546 0.9081473 0.4118807 0.4878328 0.462629 0.4968865 0.4285362 0.5128183 0.5993649 0.6786763 0.5445619 0.6858054 0.5697456 0.656555 0.3782348 0.526495 0.4285362 0.5128183 0.4032188 0.5419496 0.6159121 0.6283378 0.5697456 0.656555 0.582236 0.6186477 0.6131416 0.5741909 0.5638788 0.5403456 0.5915146 0.5244254 0.3639768 0.6312523 0.4088334 0.6584961 0.3856403 0.6813406 0.5543159 0.4865481 0.5003026 0.4965404 0.5071573 0.4662804 0.6131416 0.5741909 0.582236 0.6186477 0.5801678 0.5778508 0.3613902 0.5768586 0.4032188 0.5419496 0.3905599 0.5798714 0.565955 0.7175485 0.5104898 0.7019203 0.5445619 0.6858054 0.423075 0.7194278 0.4727119 0.7024061 0.4705305 0.7396699 0.4705305 0.7396699 0.5104898 0.7019203 0.5207173 0.7389916 0.3856403 0.6813406 0.437002 0.6871588 0.423075 0.7194278 0.5915146 0.5244254 0.5358439 0.5118024 0.5543159 0.4865481 0.5071573 0.4662804 0.462629 0.4968865 0.4571549 0.4667128 0.3639768 0.6312523 0.3905599 0.5798714 0.3925235 0.620808 0.3925235 0.620808 0.3905599 0.5798714 0.4814055 0.5956405 0.5003026 0.4965404 0.4847348 0.5931044 0.4835893 0.5931168 0.5638788 0.5403456 0.48667 0.5944361 0.4858166 0.5935677 0.4088334 0.6584961 0.4819617 0.5980233 0.4828151 0.598892 0.4727119 0.7024061 0.483897 0.5993553 0.4850424 0.5993427 0.3758199 0.4341274 0.4445019 0.4022083 0.4571549 0.4667128 0.437002 0.6871588 0.4828151 0.598892 0.483897 0.5993553 0.5445619 0.6858054 0.5104898 0.7019203 0.4850424 0.5993427 0.3905599 0.5798714 0.4032188 0.5419496 0.4817876 0.5944895 0.5801678 0.5778508 0.582236 0.6186477 0.487226 0.5968187 0.5358439 0.5118024 0.4858166 0.5935677 0.4847348 0.5931044 0.3925235 0.620808 0.4814668 0.5968819 0.4819617 0.5980233 0.5801678 0.5778508 0.4871647 0.5955776 0.48667 0.5944361 0.582236 0.6186477 0.5697456 0.656555 0.4868441 0.5979696 0.4032188 0.5419496 0.4285362 0.5128183 0.4825543 0.5936032 0.5697456 0.656555 0.5445619 0.6858054 0.4860773 0.5988562 0.4285362 0.5128183 0.462629 0.4968865 0.4835893 0.5931168 0.6808092 0.5651239 0.6131416 0.5741909 0.5915146 0.5244254 0.4648106 0.8592193 0.4647405 0.8163734 0.5409334 0.8152387 0.2990372 0.5691126 0.3246985 0.4926994 0.3782348 0.526495 0.5916844 0.4323886 0.5543159 0.4865481 0.5071573 0.4662804 0.5202711 0.4016403 0.5071573 0.4662804 0.4571549 0.4667128 0.6601096 0.7235209 0.6095312 0.7825765 0.565955 0.7175485 0.3926435 0.7856843 0.423075 0.7194278 0.4705305 0.7396699 0.3028919 0.6517224 0.2990372 0.5691126 0.3613902 0.5768586 0.6095312 0.7825765 0.5409334 0.8152387 0.5207173 0.7389916 0.6850876 0.6471669 0.6601096 0.7235209 0.5993649 0.6786763 0.3357682 0.7278293 0.3856403 0.6813406 0.423075 0.7194278 0.3246985 0.4926994 0.3758199 0.4341274 0.4118807 0.4878328 0.3028919 0.6517224 0.3639768 0.6312523 0.3856403 0.6813406 0.6808092 0.5651239 0.6850876 0.6471669 0.6159121 0.6283378 0.6480169 0.4897597 0.5915146 0.5244254 0.5543159 0.4865481 0.4647405 0.8163734 0.4705305 0.7396699 0.5207173 0.7389916 0.6129465 0.4107274 0.5916844 0.4323886 0.5202711 0.4016403 0.678679 0.4776779 0.6480169 0.4897597 0.5916844 0.4323886 0.3140794 0.7557832 0.3357682 0.7278293 0.3926435 0.7856843 0.7220128 0.6613882 0.6929187 0.7505645 0.6601096 0.7235209 0.3805518 0.8233932 0.3926435 0.7856843 0.4647405 0.8163734 0.3609784 0.4126597 0.4411845 0.375441 0.4445019 0.4022083 0.2712085 0.570286 0.3012348 0.4810296 0.3246985 0.4926994 0.2756744 0.6668259 0.3028919 0.6517224 0.3357682 0.7278293 0.716969 0.5656222 0.6808092 0.5651239 0.6480169 0.4897597 0.5296198 0.3748205 0.5202711 0.4016403 0.4445019 0.4022083 0.3012348 0.4810296 0.3609784 0.4126597 0.3758199 0.4341274 0.6339154 0.8195937 0.5538239 0.8578257 0.5409334 0.8152387 0.2756744 0.6668259 0.2712085 0.570286 0.2990372 0.5691126 0.716969 0.5656222 0.7220128 0.6613882 0.6850876 0.6471669 0.6929187 0.7505645 0.6339154 0.8195937 0.6095312 0.7825765 0.7312658 0.7824562 0.6623265 0.8632985 0.6339154 0.8195937 0.7592334 0.5661504 0.7651985 0.6781212 0.7220128 0.6613882 0.2378603 0.5716147 0.2712085 0.570286 0.2756744 0.6668259 0.6623265 0.8632985 0.5686546 0.9081473 0.5538239 0.8578257 0.2730688 0.4671695 0.3430208 0.3872298 0.3609784 0.4126597 0.5296198 0.3748205 0.4411845 0.375441 0.4368499 0.343768 0.716969 0.5656222 0.678679 0.4776779 0.7144469 0.4633609 0.2430346 0.6846448 0.2756744 0.6668259 0.3140794 0.7557832 0.2730688 0.4671695 0.3012348 0.4810296 0.2712085 0.570286 0.3430208 0.3872298 0.4368499 0.343768 0.4411845 0.375441 0.3658154 0.8679798 0.3805518 0.8233932 0.4648106 0.8592193 0.7651985 0.6781212 0.7312658 0.7824562 0.6929187 0.7505645 0.2879782 0.7888211 0.3140794 0.7557832 0.3805518 0.8233932 0.678679 0.4776779 0.6129465 0.4107274 0.637623 0.3851044 0.6129465 0.4107274 0.5296198 0.3748205 0.54024 0.3431012 0.4644737 0.9098724 0.4648106 0.8592193 0.5538239 0.8578257 0.4118807 0.4878328 0.4571549 0.4667128 0.462629 0.4968865 0.5993649 0.6786763 0.565955 0.7175485 0.5445619 0.6858054 0.3782348 0.526495 0.4118807 0.4878328 0.4285362 0.5128183 0.6159121 0.6283378 0.5993649 0.6786763 0.5697456 0.656555 0.6131416 0.5741909 0.5801678 0.5778508 0.5638788 0.5403456 0.3639768 0.6312523 0.3925235 0.620808 0.4088334 0.6584961 0.5543159 0.4865481 0.5358439 0.5118024 0.5003026 0.4965404 0.6131416 0.5741909 0.6159121 0.6283378 0.582236 0.6186477 0.3613902 0.5768586 0.3782348 0.526495 0.4032188 0.5419496 0.565955 0.7175485 0.5207173 0.7389916 0.5104898 0.7019203 0.423075 0.7194278 0.437002 0.6871588 0.4727119 0.7024061 0.4705305 0.7396699 0.4727119 0.7024061 0.5104898 0.7019203 0.3856403 0.6813406 0.4088334 0.6584961 0.437002 0.6871588 0.5915146 0.5244254 0.5638788 0.5403456 0.5358439 0.5118024 0.5071573 0.4662804 0.5003026 0.4965404 0.462629 0.4968865 0.3639768 0.6312523 0.3613902 0.5768586 0.3905599 0.5798714 0.4085429 0.03904104 0.3001427 0.1474412 0.4085429 0.1474412 0.4085429 0.03860402 0.3001427 0.1470042 0.4085429 0.1470042 0.409418 0.03904104 0.5178182 0.1474412 0.5178182 0.03904104 0.409418 0.03860402 0.5178182 0.1470042 0.5178182 0.03860402 0.4085429 0.03601574 0.3001427 0.1444159 0.4085429 0.1444159 0.5186932 0.03904104 0.6270935 0.1474412 0.6270935 0.03904104 0.5186932 0.03860402 0.6270935 0.1470042 0.6270935 0.03860402 0.409418 0.03601574 0.5178182 0.1444159 0.5178182 0.03601574 0.5186932 0.03601574 0.6270935 0.1444159 0.6270935 0.03601574 0.4085429 0.03557872 0.3001427 0.1439789 0.4085429 0.1439789 0.7363687 0.03904104 0.6279685 0.1474412 0.7363687 0.1474412 0.409418 0.03557872 0.5178182 0.1439789 0.5178182 0.03557872 0.6279685 0.03860402 0.7363687 0.1470042 0.7363687 0.03860402 0.6270935 0.03557872 0.5186932 0.1439789 0.6270935 0.1439789 0.7363687 0.03601574 0.6279685 0.1444159 0.7363687 0.1444159 0.7363687 0.03557872 0.6279685 0.1439789 0.7363687 0.1439789 0.4085429 0.03904104 0.3001427 0.03904104 0.3001427 0.1474412 0.4085429 0.03860402 0.3001427 0.03860402 0.3001427 0.1470042 0.409418 0.03904104 0.409418 0.1474412 0.5178182 0.1474412 0.409418 0.03860402 0.409418 0.1470042 0.5178182 0.1470042 0.4085429 0.03601574 0.3001427 0.03601574 0.3001427 0.1444159 0.5186932 0.03904104 0.5186932 0.1474412 0.6270935 0.1474412 0.5186932 0.03860402 0.5186932 0.1470042 0.6270935 0.1470042 0.409418 0.03601574 0.409418 0.1444159 0.5178182 0.1444159 0.5186932 0.03601574 0.5186932 0.1444159 0.6270935 0.1444159 0.4085429 0.03557872 0.3001427 0.03557872 0.3001427 0.1439789 0.7363687 0.03904104 0.6279685 0.03904104 0.6279685 0.1474412 0.409418 0.03557872 0.409418 0.1439789 0.5178182 0.1439789 0.6279685 0.03860402 0.6279685 0.1470042 0.7363687 0.1470042 0.6270935 0.03557872 0.5186932 0.03557872 0.5186932 0.1439789 0.7363687 0.03601574 0.6279685 0.03601574 0.6279685 0.1444159 0.7363687 0.03557872 0.6279685 0.03557872 0.6279685 0.1439789</float_array>
          <technique_common>
            <accessor source="#Cylinder_014-mesh-map-0-array" count="576" stride="2">
              <param name="S" type="float"/>
              <param name="T" type="float"/>
            </accessor>
          </technique_common>
        </source>
        <vertices id="Cylinder_014-mesh-vertices">
          <input semantic="POSITION" source="#Cylinder_014-mesh-positions"/>
        </vertices>
        <triangles material="Materiais_001-material" count="192">
          <input semantic="VERTEX" source="#Cylinder_014-mesh-vertices" offset="0"/>
          <input semantic="NORMAL" source="#Cylinder_014-mesh-normals" offset="1"/>
          <input semantic="TEXCOORD" source="#Cylinder_014-mesh-map-0" offset="2" set="0"/>
          <p>89 0 0 15 1 1 13 2 2 85 3 3 19 4 4 86 5 5 82 6 6 22 7 7 83 8 8 84 9 9 10 10 10 90 11 11 94 12 12 31 13 13 95 14 14 48 15 15 39 16 16 41 17 17 90 11 18 9 18 19 94 12 20 93 19 21 31 13 22 30 20 23 81 21 24 16 22 25 15 1 26 91 23 27 27 24 28 25 25 29 83 8 30 21 26 31 85 3 32 89 0 33 12 27 34 84 9 35 91 23 36 24 28 37 82 6 38 92 29 39 28 30 40 27 24 41 87 31 42 18 32 43 16 22 44 80 33 45 30 20 46 28 30 47 88 34 48 19 4 49 18 32 50 53 35 51 36 36 52 52 37 53 68 38 54 56 39 55 71 40 56 63 41 57 40 42 58 46 43 59 59 44 60 38 45 61 58 46 62 58 46 63 39 16 64 55 47 65 49 48 66 45 49 67 32 50 68 54 51 69 34 52 70 51 53 71 57 54 72 46 43 73 42 55 74 60 56 75 47 57 76 45 49 77 61 58 78 32 50 79 44 59 80 50 60 81 35 61 82 54 51 83 62 62 84 41 17 85 40 42 86 57 54 87 33 63 88 50 60 89 53 35 90 44 59 91 43 64 92 52 37 93 37 65 94 59 44 95 51 53 96 47 57 97 56 39 98 78 66 99 58 46 100 67 67 101 76 68 102 59 44 103 78 66 104 66 69 105 54 51 106 69 70 107 73 71 108 49 48 109 61 58 110 69 70 111 51 53 112 68 38 113 64 72 114 55 47 115 48 15 116 79 73 117 62 62 118 63 41 119 75 74 120 50 60 121 66 69 122 77 75 123 52 37 124 76 68 125 67 67 126 55 47 127 74 76 128 70 77 129 48 15 130 62 62 131 72 78 132 56 39 133 60 56 134 75 74 135 63 41 136 57 54 137 77 75 138 61 58 139 53 35 140 65 79 141 60 56 142 49 48 143 2 80 144 72 78 145 65 79 146 4 81 147 73 71 148 77 75 149 17 82 150 75 74 151 20 83 152 1 84 153 71 40 154 72 78 155 14 85 156 64 72 157 70 77 158 67 67 159 8 86 160 7 87 161 77 75 162 5 88 163 4 81 164 20 83 165 66 69 166 23 89 167 14 85 168 79 73 169 17 82 170 11 90 171 74 76 172 64 72 173 26 91 174 68 38 175 29 92 176 3 93 177 65 79 178 73 71 179 23 89 180 69 70 181 26 91 182 76 68 183 6 94 184 5 88 185 78 66 186 7 87 187 6 94 188 29 92 189 71 40 190 0 95 191 41 17 192 86 5 193 88 34 194 32 50 195 93 96 196 80 33 197 40 42 198 88 34 199 87 31 200 44 59 201 80 33 202 92 29 203 43 64 204 82 6 205 36 36 206 42 55 207 84 97 208 33 63 209 37 65 210 85 3 211 38 45 212 43 64 213 92 29 214 91 23 215 46 43 216 87 31 217 81 21 218 45 49 219 95 98 220 93 96 221 35 61 222 94 99 223 34 52 224 34 52 225 95 98 226 47 57 227 33 63 228 90 100 229 35 61 230 36 36 231 83 8 232 37 65 233 38 45 234 86 5 235 39 16 236 42 55 237 81 21 238 89 101 239 89 0 240 81 21 241 15 1 242 85 3 243 21 26 244 19 4 245 82 6 246 24 28 247 22 7 248 84 9 249 12 27 250 10 10 251 94 12 252 9 18 253 31 13 254 48 15 255 55 47 256 39 16 257 90 11 258 10 10 259 9 18 260 93 19 261 95 14 262 31 13 263 81 21 264 87 31 265 16 22 266 91 23 267 92 29 268 27 24 269 83 8 270 22 7 271 21 26 272 89 0 273 13 2 274 12 27 275 91 23 276 25 25 277 24 28 278 92 29 279 80 33 280 28 30 281 87 31 282 88 34 283 18 32 284 80 33 285 93 19 286 30 20 287 88 34 288 86 5 289 19 4 290 53 35 291 43 64 292 36 36 293 68 38 294 51 53 295 56 39 296 63 41 297 62 62 298 40 42 299 59 44 300 37 65 301 38 45 302 58 46 303 38 45 304 39 16 305 49 48 306 60 56 307 45 49 308 54 51 309 35 61 310 34 52 311 57 54 312 63 41 313 46 43 314 60 56 315 56 39 316 47 57 317 61 58 318 49 48 319 32 50 320 50 60 321 33 63 322 35 61 323 62 62 324 48 15 325 41 17 326 57 54 327 42 55 328 33 63 329 53 35 330 61 58 331 44 59 332 52 37 333 36 36 334 37 65 335 51 53 336 34 52 337 47 57 338 78 66 339 59 44 340 58 46 341 76 68 342 52 37 343 59 44 344 66 69 345 50 60 346 54 51 347 73 71 348 65 79 349 49 48 350 69 70 351 54 51 352 51 53 353 64 72 354 74 76 355 55 47 356 79 73 357 70 77 358 62 62 359 75 74 360 57 54 361 50 60 362 77 75 363 53 35 364 52 37 365 67 67 366 58 46 367 55 47 368 70 77 369 64 72 370 48 15 371 72 78 372 71 40 373 56 39 374 75 74 375 79 73 376 63 41 377 77 75 378 73 71 379 61 58 380 65 79 381 72 78 382 60 56 383 2 80 384 1 84 385 72 78 386 4 81 387 3 93 388 73 71 389 17 82 390 79 73 391 75 74 392 1 84 393 0 95 394 71 40 395 14 85 396 11 90 397 64 72 398 67 67 399 74 76 400 8 86 401 77 75 402 76 68 403 5 88 404 20 83 405 75 74 406 66 69 407 14 85 408 70 77 409 79 73 410 11 90 411 8 86 412 74 76 413 26 91 414 69 70 415 68 38 416 3 93 417 2 80 418 65 79 419 23 89 420 66 69 421 69 70 422 76 68 423 78 66 424 6 94 425 78 66 426 67 67 427 7 87 428 29 92 429 68 38 430 71 40 431 41 17 432 39 16 433 86 5 434 32 50 435 45 49 436 93 96 437 40 42 438 41 17 439 88 34 440 44 59 441 32 50 442 80 33 443 43 64 444 91 23 445 82 6 446 42 55 447 89 101 448 84 97 449 37 65 450 83 8 451 85 3 452 43 64 453 44 59 454 92 29 455 46 43 456 40 42 457 87 31 458 45 49 459 47 57 460 95 98 461 35 61 462 90 100 463 94 99 464 34 52 465 94 99 466 95 98 467 33 63 468 84 97 469 90 100 470 36 36 471 82 6 472 83 8 473 38 45 474 85 3 475 86 5 476 42 55 477 46 43 478 81 21 479 0 102 480 97 103 481 96 104 482 8 105 483 105 106 484 104 107 485 8 105 486 103 108 487 7 109 488 6 110 489 101 111 490 5 112 491 3 113 492 100 114 493 99 115 494 7 109 495 102 116 496 6 110 497 23 117 498 108 118 499 20 119 500 26 120 501 109 121 502 23 117 503 0 102 504 111 122 505 29 123 506 2 124 507 99 115 508 98 125 509 17 126 510 108 118 511 107 127 512 29 123 513 110 128 514 26 120 515 5 112 516 100 114 517 4 129 518 1 130 519 98 125 520 97 103 521 11 131 522 106 132 523 105 106 524 14 133 525 107 127 526 106 132 527 0 102 528 1 130 529 97 103 530 8 105 531 11 131 532 105 106 533 8 105 534 104 107 535 103 108 536 6 110 537 102 116 538 101 111 539 3 113 540 4 129 541 100 114 542 7 109 543 103 108 544 102 116 545 23 117 546 109 121 547 108 118 548 26 120 549 110 128 550 109 121 551 0 102 552 96 104 553 111 122 554 2 124 555 3 113 556 99 115 557 17 126 558 20 119 559 108 118 560 29 123 561 111 122 562 110 128 563 5 112 564 101 111 565 100 114 566 1 130 567 2 124 568 98 125 569 11 131 570 14 133 571 106 132 572 14 133 573 17 126 574 107 127 575</p>
        </triangles>
      </mesh>
    </geometry>
  </library_geometries>
  <library_visual_scenes>
    <visual_scene id="Scene" name="Scene">
      <node id="tou_kui" name="tou_kui" type="NODE">
        <matrix sid="transform">1 0 0 0 0 1 0 0 0 0 1 0 0 0 0 1</matrix>
        <instance_geometry url="#Cylinder_014-mesh" name="tou_kui">
          <bind_material>
            <technique_common>
              <instance_material symbol="Materiais_001-material" target="#Materiais_001-material">
                <bind_vertex_input semantic="Cylinder_014-mesh-map-0" input_semantic="TEXCOORD" input_set="0"/>
              </instance_material>
            </technique_common>
          </bind_material>
        </instance_geometry>
        <node id="prop_feather" name="prop_feather" type="NODE">
          <matrix sid="transform">0.9999925 -2.44687e-11 0.003867447 6.46869e-4 -0.001093108 0.9592251 0.2826412 0.03447989 -0.003709752 -0.2826433 0.9592179 0.6574697 0 0 0 1</matrix>
        </node>
      </node>
    </visual_scene>
  </library_visual_scenes>
  <scene>
    <instance_visual_scene url="#Scene"/>
  </scene>
</COLLADA>