<?xml version="1.0" encoding="utf-8"?>
<COLLADA xmlns="http://www.collada.org/2005/11/COLLADASchema" version="1.4.1" xmlns:xsi="http://www.w3.org/2001/XMLSchema-instance">
  <asset>
    <contributor>
      <author>Blender User</author>
      <authoring_tool>Blender 4.3.1 commit date:2024-12-10, commit time:07:46, hash:33d812126174</authoring_tool>
    </contributor>
    <created>2026-06-01T21:56:59</created>
    <modified>2026-06-01T21:56:59</modified>
    <unit name="meter" meter="1"/>
    <up_axis>Z_UP</up_axis>
  </asset>
  <library_effects>
    <effect id="Materiais_001-effect">
      <profile_COMMON>
        <newparam sid="han_officer_helmet_02_01_png-surface">
          <surface type="2D">
            <init_from>han_officer_helmet_02_01_png</init_from>
          </surface>
        </newparam>
        <newparam sid="han_officer_helmet_02_01_png-sampler">
          <sampler2D>
            <source>han_officer_helmet_02_01_png-surface</source>
          </sampler2D>
        </newparam>
        <technique sid="common">
          <lambert>
            <emission>
              <color sid="emission">0 0 0 1</color>
            </emission>
            <diffuse>
              <texture texture="han_officer_helmet_02_01_png-sampler" texcoord="Cylinder_014-mesh-map-0"/>
            </diffuse>
            <index_of_refraction>
              <float sid="ior">1.5</float>
            </index_of_refraction>
          </lambert>
        </technique>
      </profile_COMMON>
    </effect>
  </library_effects>
  <library_images>
    <image id="han_officer_helmet_02_01_png" name="han_officer_helmet_02_01_png">
      <init_from>/home/welton/Downloads/han_officer_helmet_02_01.png</init_from>
    </image>
  </library_images>
  <library_materials>
    <material id="Materiais_001-material" name="Materiais.001">
      <instance_effect url="#Materiais_001-effect"/>
    </material>
  </library_materials>
  <library_geometries>
    <geometry id="Cylinder_002-mesh" name="Cylinder.002">
      <mesh>
        <source id="Cylinder_002-mesh-positions">
          <float_array id="Cylinder_002-mesh-positions-array" count="117">0.003023982 0.1578727 0.03656613 0.002981901 0.1916092 0.2065523 0.1015242 0.1359629 0.04210281 0.09722405 0.1706462 0.2118498 0.1845306 0.07568627 0.05841583 0.176642 0.1129754 0.2274574 0.2394062 -0.01378017 0.08302098 0.2291452 0.02737665 0.2509991 0.2577967 -0.1188162 0.1121729 0.2467404 -0.07311856 0.2788905 0.2369019 -0.2234313 0.141433 0.2267492 -0.1732107 0.3068863 0.1799035 -0.3116981 0.1663476 0.1722149 -0.2576618 0.3307233 -0.1850258 -0.3077856 0.1673551 -0.1769382 -0.2539183 0.3316873 -0.2399013 -0.2183191 0.1427497 -0.2294415 -0.1683198 0.3081457 -0.258292 -0.1132827 0.1135977 -0.2470368 -0.0678243 0.280254 -0.2373973 -0.008667886 0.08433759 -0.2270455 0.0322678 0.2522584 -0.1803988 0.07959908 0.05942338 -0.1725113 0.116719 0.2284213 -0.09597414 0.1380804 0.04264843 -0.09173637 0.1726721 0.2123715 0.003537476 0.1311038 -0.1212497 0.1098728 0.1074509 -0.1152728 0.1994818 0.04237949 -0.09766215 0.2587223 -0.05420333 -0.07109975 0.2785758 -0.1675944 -0.03962922 0.256019 -0.2805309 -0.008041322 0.1944867 -0.375819 0.01885497 -0.1994705 -0.371595 0.01994258 -0.2587112 -0.275012 -0.00661993 -0.2785647 -0.1616207 -0.0380907 -0.2560079 -0.04868435 -0.06967824 -0.1944756 0.04660367 -0.0965746 -0.1033354 0.1097368 -0.1146838</float_array>
          <technique_common>
            <accessor source="#Cylinder_002-mesh-positions-array" count="39" stride="3">
              <param name="X" type="float"/>
              <param name="Y" type="float"/>
              <param name="Z" type="float"/>
            </accessor>
          </technique_common>
        </source>
        <source id="Cylinder_002-mesh-normals">
          <float_array id="Cylinder_002-mesh-normals-array" count="117">-0.995304 0.03905075 0.0885722 -0.9294953 0.3674197 -0.03226929 -0.92653 0.3760871 -0.01003682 0.9344533 0.3560727 -0.003061115 0.7440803 0.6588691 -0.1106171 0.9374258 0.3470757 -0.02777463 0.9271621 -0.3187633 0.1968771 0.9978925 0.005571722 0.06464993 0.9293377 -0.3335847 0.158281 0.4193519 0.8943664 -0.1557332 0.01121824 0.9858615 -0.1671869 0.009921729 0.9834744 -0.1807754 -0.7299498 0.6739338 -0.1139593 -0.7267229 0.6800932 -0.09667992 -0.4007931 0.902328 -0.1586471 0.009372234 0.9808265 -0.1946575 -0.8589293 -0.4726065 0.1971892 -0.9350188 -0.2992183 0.1902849 -0.8557184 -0.4593583 0.2381933 0.9952322 0.017443 0.09596163 -0.9978212 0.02795141 0.05976319 -0.9372488 -0.3128786 0.1538559 0.8446375 -0.4766198 0.2437643 0.8478074 -0.4907436 0.2009813 -0.4033368 0.898537 -0.1730624 0.74124 0.6650032 -0.09129106 0.4210274 0.89072 -0.17133 0.42129 0.8960565 -0.1399913 -0.9259974 0.3772754 0.01386964 -0.9919866 0.04077237 0.1195833 0.9198873 -0.3124629 0.2370111 -0.7272139 0.6818951 -0.07860708 -0.4007126 0.9047775 -0.1442474 0.933765 0.3571234 0.02336275 -0.9278462 -0.2946375 0.2286708 0.7425552 0.6660119 -0.07099384 0.9914063 0.0199902 0.1292832 0.84002 -0.4622734 0.2840247 -0.8512198 -0.4460663 0.2764952</float_array>
          <technique_common>
            <accessor source="#Cylinder_002-mesh-normals-array" count="39" stride="3">
              <param name="X" type="float"/>
              <param name="Y" type="float"/>
              <param name="Z" type="float"/>
            </accessor>
          </technique_common>
        </source>
        <source id="Cylinder_002-mesh-map-0">
          <float_array id="Cylinder_002-mesh-map-0-array" count="288">0.7029032 0.2820547 0.7714261 0.4215847 0.7714261 0.2820547 0.2376642 0.2824938 0.1691961 0.4220237 0.2376642 0.4220237 0.3746004 0.2824938 0.3061323 0.4220237 0.3746004 0.4220237 0.100728 0.2824938 0.03225994 0.1429638 0.03225994 0.2824938 0.7714261 0.2820547 0.839949 0.4215847 0.839949 0.2820547 0.908472 0.2820547 0.9769949 0.4215847 0.9769949 0.2820547 0.5658573 0.4215847 0.6343802 0.2820547 0.5658573 0.2820547 0.3061323 0.2824938 0.2376642 0.4220237 0.3061323 0.4220237 0.7029032 0.4215847 0.6343802 0.2820547 0.6343802 0.4215847 0.4430685 0.2824938 0.3746004 0.4220237 0.4430685 0.4220236 0.839949 0.2820547 0.908472 0.4215847 0.908472 0.2820547 0.1691961 0.2824938 0.100728 0.4220237 0.1691961 0.4220237 0.1691961 0.2824938 0.100728 0.1429638 0.100728 0.2824938 0.7029032 0.2820547 0.7714261 0.1425246 0.7029032 0.1425246 0.4430685 0.2824938 0.3746004 0.1429638 0.3746004 0.2824938 0.7714261 0.2820547 0.839949 0.1425246 0.7714261 0.1425246 0.839949 0.2820547 0.908472 0.1425246 0.839949 0.1425246 0.3061323 0.2824938 0.2376642 0.1429638 0.2376642 0.2824938 0.9769949 0.2820547 0.908472 0.1425246 0.908472 0.2820547 0.6343802 0.2820547 0.7029032 0.1425246 0.6343802 0.1425246 0.6343802 0.1425246 0.5658573 0.2820547 0.6343802 0.2820547 0.2376642 0.2824938 0.1691961 0.1429638 0.1691961 0.2824938 0.3746004 0.2824938 0.3061323 0.1429638 0.3061323 0.2824938 0.100728 0.4220237 0.03225994 0.2824938 0.03225994 0.4220237 0.7029032 0.2820547 0.7029032 0.4215847 0.7714261 0.4215847 0.2376642 0.2824938 0.1691961 0.2824938 0.1691961 0.4220237 0.3746004 0.2824938 0.3061323 0.2824938 0.3061323 0.4220237 0.100728 0.2824938 0.100728 0.1429638 0.03225994 0.1429638 0.7714261 0.2820547 0.7714261 0.4215847 0.839949 0.4215847 0.908472 0.2820547 0.908472 0.4215847 0.9769949 0.4215847 0.5658573 0.4215847 0.6343802 0.4215847 0.6343802 0.2820547 0.3061323 0.2824938 0.2376642 0.2824938 0.2376642 0.4220237 0.7029032 0.4215847 0.7029032 0.2820547 0.6343802 0.2820547 0.4430685 0.2824938 0.3746004 0.2824938 0.3746004 0.4220237 0.839949 0.2820547 0.839949 0.4215847 0.908472 0.4215847 0.1691961 0.2824938 0.100728 0.2824938 0.100728 0.4220237 0.1691961 0.2824938 0.1691961 0.1429638 0.100728 0.1429638 0.7029032 0.2820547 0.7714261 0.2820547 0.7714261 0.1425246 0.4430685 0.2824938 0.4430685 0.1429638 0.3746004 0.1429638 0.7714261 0.2820547 0.839949 0.2820547 0.839949 0.1425246 0.839949 0.2820547 0.908472 0.2820547 0.908472 0.1425246 0.3061323 0.2824938 0.3061323 0.1429638 0.2376642 0.1429638 0.9769949 0.2820547 0.9769949 0.1425246 0.908472 0.1425246 0.6343802 0.2820547 0.7029032 0.2820547 0.7029032 0.1425246 0.6343802 0.1425246 0.5658573 0.1425246 0.5658573 0.2820547 0.2376642 0.2824938 0.2376642 0.1429638 0.1691961 0.1429638 0.3746004 0.2824938 0.3746004 0.1429638 0.3061323 0.1429638 0.100728 0.4220237 0.100728 0.2824938 0.03225994 0.2824938</float_array>
          <technique_common>
            <accessor source="#Cylinder_002-mesh-map-0-array" count="144" stride="2">
              <param name="S" type="float"/>
              <param name="T" type="float"/>
            </accessor>
          </technique_common>
        </source>
        <vertices id="Cylinder_002-mesh-vertices">
          <input semantic="POSITION" source="#Cylinder_002-mesh-positions"/>
        </vertices>
        <triangles material="Materiais_001-material" count="48">
          <input semantic="VERTEX" source="#Cylinder_002-mesh-vertices" offset="0"/>
          <input semantic="NORMAL" source="#Cylinder_002-mesh-normals" offset="1"/>
          <input semantic="TEXCOORD" source="#Cylinder_002-mesh-map-0" offset="2" set="0"/>
          <p>18 0 0 21 1 1 20 2 2 6 3 3 5 4 4 7 5 5 10 6 6 9 7 7 11 8 8 2 9 9 26 10 10 0 11 11 20 2 12 23 12 13 22 13 14 24 14 15 1 15 16 0 11 17 15 16 18 16 17 19 14 18 20 8 19 21 7 5 22 9 7 23 19 20 24 16 17 25 17 21 26 12 22 27 11 8 28 13 23 29 22 13 30 25 24 31 24 14 32 4 25 33 3 26 34 5 4 35 4 25 36 27 27 37 2 9 38 18 0 39 36 28 40 35 29 41 12 22 42 31 30 43 10 6 44 20 2 45 37 31 46 36 28 47 22 13 48 38 32 49 37 31 50 8 19 51 29 33 52 6 3 53 0 11 54 38 32 55 24 14 56 16 17 57 35 29 58 34 34 59 34 34 60 14 18 61 16 17 62 6 3 63 28 35 64 4 25 65 10 6 66 30 36 67 8 19 68 3 26 69 0 11 70 1 15 71 18 0 72 19 20 73 21 1 74 6 3 75 4 25 76 5 4 77 10 6 78 8 19 79 9 7 80 2 9 81 27 27 82 26 10 83 20 2 84 21 1 85 23 12 86 24 14 87 25 24 88 1 15 89 15 16 90 17 21 91 16 17 92 8 19 93 6 3 94 7 5 95 19 20 96 18 0 97 16 17 98 12 22 99 10 6 100 11 8 101 22 13 102 23 12 103 25 24 104 4 25 105 2 9 106 3 26 107 4 25 108 28 35 109 27 27 110 18 0 111 20 2 112 36 28 113 12 22 114 32 37 115 31 30 116 20 2 117 22 13 118 37 31 119 22 13 120 24 14 121 38 32 122 8 19 123 30 36 124 29 33 125 0 11 126 26 10 127 38 32 128 16 17 129 18 0 130 35 29 131 34 34 132 33 38 133 14 18 134 6 3 135 29 33 136 28 35 137 10 6 138 31 30 139 30 36 140 3 26 141 2 9 142 0 11 143</p>
        </triangles>
      </mesh>
    </geometry>
  </library_geometries>
  <library_visual_scenes>
    <visual_scene id="Scene" name="Scene">
      <node id="ming_helmet_01" name="ming_helmet_01" type="NODE">
        <matrix sid="transform">1 0 0 0 0 1 0 0 0 0 1 0 0 0 0 1</matrix>
        <instance_geometry url="#Cylinder_002-mesh" name="ming_helmet_01">
          <bind_material>
            <technique_common>
              <instance_material symbol="Materiais_001-material" target="#Materiais_001-material">
                <bind_vertex_input semantic="Cylinder_014-mesh-map-0" input_semantic="TEXCOORD" input_set="0"/>
              </instance_material>
            </technique_common>
          </bind_material>
        </instance_geometry>
      </node>
    </visual_scene>
  </library_visual_scenes>
  <scene>
    <instance_visual_scene url="#Scene"/>
  </scene>
</COLLADA>